<svg xmlns="http://www.w3.org/2000/svg" width="1593" height="1549.626" viewBox="0 0 1593 1549.626">
    <defs>
        <linearGradient id="linear-gradient" x1=".691" x2=".396" y1=".14" y2=".843" gradientUnits="objectBoundingBox">
            <stop offset="0" stop-color="#fff" stop-opacity=".149"/>
            <stop offset="1" stop-color="#fff" stop-opacity="0"/>
        </linearGradient>
        <clipPath id="clip-path">
            <path id="Union_61" d="M6540.354 1362.123l-.086-.24h-.109s-168.559-237.747-575.252-222.815a384.21 384.21 0 0 1-41.845-.678c-1.086.011-2.167.016-3.257.016-171.653 0-310.8-133.479-310.8-298.136s139.151-298.136 310.8-298.136c2.116 0 4.235.02 6.34.061 287.092-18.375 476.912-93.963 589.219-299.714 14.778-27.074 27-47.131 37.095-61.533C6621.175 68.023 6709.791 0 6806.5 0 7024.929 0 7202 346.9 7202 774.813s-177.072 774.813-395.5 774.813c-101.787 0-266.146-187.503-266.146-187.503z" class="cls-1" transform="translate(-5451 1376)"/>
        </clipPath>
        <style>
            .cls-1{fill:#1daeef}.cls-3{fill:url(#linear-gradient)}
        </style>
    </defs>
    <g id="Group_686" transform="translate(-158.001 -1376)">
        <path id="Union_58" d="M6540.354 1362.123l-.086-.24h-.109s-168.559-237.747-575.252-222.815a384.21 384.21 0 0 1-41.845-.678c-1.086.011-2.167.016-3.257.016-171.653 0-310.8-133.479-310.8-298.136s139.151-298.136 310.8-298.136c2.116 0 4.235.02 6.34.061 287.092-18.375 476.912-93.963 589.219-299.714 14.778-27.074 27-47.131 37.095-61.533C6621.175 68.023 6709.791 0 6806.5 0 7024.929 0 7202 346.9 7202 774.813s-177.072 774.813-395.5 774.813c-101.787 0-266.146-187.503-266.146-187.503z" class="cls-1" transform="translate(-5451 1376)"/>
        <g id="Mask_Group_24" clip-path="url(#clip-path)">
            <circle id="Ellipse_3" cx="362.5" cy="362.5" r="362.5" class="cls-3" transform="translate(194 2030)"/>
            <circle id="Ellipse_4" cx="207" cy="207" r="207" class="cls-3" transform="translate(268 1811)"/>
        </g>
    </g>
</svg>
