<?xml version="1.0" encoding="UTF-8" standalone="no"?>
<!DOCTYPE svg PUBLIC "-//W3C//DTD SVG 1.1//EN" "http://www.w3.org/Graphics/SVG/1.1/DTD/svg11.dtd">
<svg version="1.1" xmlns="http://www.w3.org/2000/svg" xmlns:xlink="http://www.w3.org/1999/xlink" preserveAspectRatio="xMidYMid meet" viewBox="0 0 640 640" width="640" height="640"><defs><path d="M322.08 307.5C322.08 315.59 315.52 322.14 307.43 322.14C299.34 322.14 292.79 315.59 292.79 307.5C292.79 307.5 292.79 307.5 292.79 307.5C292.79 299.41 299.34 292.85 307.43 292.85C307.43 292.85 307.43 292.85 307.43 292.85C315.52 292.85 322.08 299.41 322.08 307.5ZM273.98 287.77C281.56 287.77 287.71 281.62 287.7 274.05C287.7 266.47 281.56 260.33 273.98 260.32C266.41 260.32 260.26 266.46 260.26 274.04C260.26 274.04 260.26 274.05 260.26 274.05C260.26 281.63 266.4 287.77 273.98 287.77ZM240.53 253.4C247.6 253.4 253.33 247.67 253.33 240.6C253.33 233.52 247.6 227.79 240.53 227.79C233.46 227.79 227.72 233.52 227.72 240.59C227.72 247.67 233.46 253.4 240.53 253.4ZM207.08 219.03C213.64 219.02 218.96 213.7 218.95 207.14C218.95 200.58 213.64 195.27 207.08 195.27C200.52 195.26 195.2 200.58 195.19 207.14C195.19 207.14 195.19 207.14 195.19 207.15C195.2 213.71 200.52 219.03 207.08 219.03ZM173.63 184.67C179.68 184.67 184.59 179.76 184.59 173.7C184.6 167.65 179.69 162.73 173.63 162.73C173.63 162.73 173.63 162.73 173.63 162.73C167.57 162.73 162.66 167.64 162.66 173.69C162.66 179.75 167.57 184.67 173.63 184.67ZM140.19 150.28C145.74 150.28 150.23 145.78 150.22 140.23C150.22 134.68 145.72 130.19 140.17 130.19C134.62 130.19 130.13 134.69 130.13 140.24C130.13 145.8 134.64 150.29 140.19 150.28ZM106.72 115.92C111.76 115.92 115.85 111.84 115.85 106.8C115.85 101.76 111.77 97.67 106.73 97.67C106.72 97.67 106.72 97.67 106.72 97.67C101.69 97.67 97.6 101.75 97.6 106.79C97.6 111.83 101.68 115.92 106.72 115.92ZM73.27 81.55C77.81 81.55 81.48 77.88 81.48 73.34C81.48 68.81 77.81 65.14 73.27 65.14C68.74 65.14 65.07 68.81 65.06 73.34C65.06 77.88 68.74 81.55 73.27 81.55ZM39.82 47.17C43.85 47.17 47.11 43.91 47.11 39.88C47.11 35.86 43.85 32.59 39.82 32.59C39.82 32.59 39.82 32.59 39.82 32.59C35.8 32.59 32.53 35.86 32.53 39.88C32.53 43.91 35.8 47.17 39.82 47.17ZM6.37 12.81C9.89 12.81 12.74 9.95 12.74 6.44C12.74 2.92 9.89 0.07 6.37 0.07C2.85 0.07 0 2.92 0 6.43C0 6.43 0 6.43 0 6.43C0 9.95 2.85 12.81 6.37 12.81ZM374.73 322.14C382.82 322.14 389.38 315.59 389.38 307.5C389.38 299.41 382.82 292.85 374.74 292.85C374.74 292.85 374.74 292.85 374.74 292.85C366.65 292.85 360.09 299.41 360.09 307.49C360.09 307.49 360.09 307.5 360.09 307.5C360.09 315.58 366.65 322.14 374.73 322.14ZM341.29 287.77C348.87 287.77 355.01 281.62 355.01 274.05C355.01 266.47 348.86 260.33 341.29 260.32C333.71 260.32 327.56 266.47 327.56 274.05C327.56 274.05 327.56 274.05 327.56 274.05C327.56 281.63 333.71 287.77 341.29 287.77ZM307.83 253.4C314.9 253.4 320.64 247.67 320.64 240.6C320.64 233.52 314.9 227.79 307.83 227.79C300.76 227.79 295.03 233.52 295.03 240.59C295.03 247.67 300.76 253.4 307.83 253.4ZM274.38 219.03C280.94 219.02 286.26 213.7 286.26 207.14C286.25 200.58 280.94 195.27 274.38 195.27C267.82 195.26 262.5 200.58 262.5 207.14C262.5 207.14 262.5 207.14 262.5 207.15C262.5 213.71 267.82 219.03 274.38 219.03ZM240.93 184.66C246.98 184.66 251.89 179.75 251.89 173.7C251.89 167.64 246.98 162.73 240.93 162.73C240.93 162.73 240.93 162.73 240.93 162.73C234.88 162.73 229.97 167.64 229.97 173.69C229.96 179.75 234.87 184.66 240.93 184.66ZM207.49 150.28C213.04 150.28 217.53 145.78 217.53 140.23C217.52 134.68 213.03 130.19 207.48 130.19C201.93 130.19 197.44 134.69 197.44 140.24C197.44 145.8 201.94 150.29 207.49 150.28ZM174.02 115.92C179.06 115.92 183.15 111.84 183.15 106.8C183.15 101.76 179.07 97.67 174.03 97.67C174.03 97.67 174.03 97.67 174.02 97.67C168.99 97.67 164.91 101.75 164.9 106.79C164.9 111.83 168.98 115.92 174.02 115.92ZM140.58 81.55C145.11 81.55 148.78 77.87 148.78 73.34C148.78 68.8 145.11 65.13 140.58 65.13C136.04 65.13 132.37 68.8 132.37 73.34C132.37 73.34 132.37 73.34 132.37 73.34C132.37 77.87 136.04 81.55 140.58 81.55ZM107.12 47.17C111.15 47.17 114.41 43.91 114.41 39.88C114.41 35.86 111.15 32.6 107.12 32.6C107.12 32.6 107.12 32.6 107.12 32.6C103.1 32.6 99.84 35.86 99.84 39.88C99.84 43.91 103.1 47.17 107.12 47.17ZM73.67 12.81C77.19 12.81 80.04 9.96 80.04 6.44C80.04 2.92 77.19 0.07 73.67 0.07C70.16 0.07 67.31 2.92 67.31 6.43C67.31 9.96 70.16 12.81 73.67 12.81ZM442.05 322.14C450.14 322.14 456.69 315.59 456.69 307.5C456.69 299.41 450.14 292.85 442.05 292.85C442.05 292.85 442.05 292.85 442.05 292.85C433.96 292.85 427.4 299.41 427.4 307.49C427.4 307.49 427.4 307.5 427.4 307.5C427.4 315.58 433.96 322.14 442.05 322.14ZM408.6 287.77C416.18 287.77 422.32 281.62 422.32 274.05C422.32 266.47 416.18 260.33 408.6 260.32C401.02 260.32 394.87 266.46 394.87 274.04C394.87 274.04 394.87 274.05 394.87 274.05C394.87 281.63 401.02 287.77 408.6 287.77ZM375.14 253.4C382.22 253.4 387.95 247.67 387.95 240.6C387.95 233.52 382.22 227.79 375.14 227.79C368.07 227.79 362.34 233.52 362.34 240.59C362.34 247.67 368.07 253.4 375.14 253.4ZM341.7 219.03C348.26 219.02 353.57 213.7 353.57 207.14C353.56 200.58 348.25 195.27 341.7 195.27C335.13 195.26 329.81 200.58 329.81 207.14C329.81 207.14 329.81 207.14 329.81 207.15C329.81 213.71 335.13 219.03 341.7 219.03ZM308.24 184.66C314.3 184.66 319.21 179.75 319.21 173.7C319.21 167.64 314.3 162.73 308.24 162.73C308.24 162.73 308.24 162.73 308.24 162.73C302.19 162.73 297.28 167.64 297.28 173.69C297.28 179.75 302.18 184.66 308.24 184.66ZM274.8 150.28C280.35 150.28 284.84 145.78 284.84 140.23C284.83 134.68 280.34 130.19 274.79 130.19C269.24 130.19 264.75 134.69 264.75 140.24C264.75 140.24 264.75 140.24 264.75 140.24C264.75 145.79 269.25 150.28 274.8 150.28ZM241.34 115.91C246.38 115.92 250.47 111.83 250.47 106.79C250.47 101.75 246.39 97.66 241.35 97.66C241.34 97.66 241.34 97.66 241.34 97.66C236.3 97.66 232.21 101.75 232.21 106.79C232.21 106.79 232.21 106.79 232.21 106.79C232.22 111.83 236.3 115.91 241.34 115.91ZM207.89 81.54C212.43 81.54 216.1 77.87 216.1 73.34C216.1 68.8 212.43 65.13 207.89 65.13C203.36 65.13 199.68 68.8 199.68 73.33C199.68 73.33 199.68 73.34 199.68 73.34C199.69 77.87 203.36 81.54 207.89 81.54ZM174.44 47.17C178.47 47.17 181.73 43.91 181.73 39.88C181.73 35.86 178.47 32.59 174.44 32.59C174.44 32.59 174.44 32.59 174.44 32.59C170.42 32.59 167.15 35.85 167.15 39.88C167.15 39.88 167.15 39.88 167.15 39.88C167.15 43.91 170.42 47.17 174.44 47.17ZM140.99 12.81C144.51 12.81 147.36 9.95 147.36 6.44C147.36 2.92 144.51 0.07 140.99 0.07C137.47 0.07 134.62 2.91 134.62 6.43C134.62 6.43 134.62 6.43 134.62 6.43C134.62 9.95 137.47 12.81 140.99 12.81ZM509.36 322.14C517.44 322.14 524 315.59 524 307.5C524 299.41 517.45 292.85 509.36 292.85C509.36 292.85 509.36 292.85 509.36 292.85C501.27 292.85 494.71 299.41 494.71 307.49C494.71 307.49 494.71 307.5 494.71 307.5C494.71 315.58 501.27 322.14 509.36 322.14ZM475.91 287.77C483.49 287.77 489.63 281.62 489.63 274.05C489.63 266.47 483.48 260.32 475.9 260.32C468.32 260.32 462.18 266.47 462.18 274.04C462.18 274.05 462.18 274.05 462.18 274.05C462.18 281.63 468.33 287.77 475.91 287.77ZM442.45 253.4C449.53 253.4 455.26 247.66 455.26 240.59C455.26 233.52 449.52 227.79 442.45 227.79C435.38 227.79 429.65 233.52 429.65 240.59C429.65 240.59 429.65 240.59 429.65 240.59C429.65 247.67 435.38 253.4 442.45 253.4ZM409 219.03C415.56 219.02 420.88 213.7 420.88 207.14C420.87 200.58 415.55 195.27 409 195.27C402.43 195.27 397.12 200.58 397.12 207.15C397.12 213.71 402.44 219.03 409 219.03ZM375.55 184.65C381.6 184.65 386.51 179.75 386.51 173.69C386.51 167.63 381.6 162.73 375.55 162.73C375.55 162.73 375.55 162.73 375.55 162.73C369.49 162.72 364.58 167.63 364.58 173.69C364.58 173.69 364.58 173.69 364.58 173.69C364.58 179.75 369.49 184.65 375.55 184.65ZM342.1 150.28C347.65 150.28 352.14 145.78 352.14 140.23C352.14 134.69 347.64 130.19 342.1 130.19C336.55 130.19 332.05 134.69 332.05 140.24C332.05 140.24 332.05 140.24 332.05 140.24C332.05 145.79 336.55 150.28 342.1 150.28ZM308.64 115.91C313.68 115.91 317.77 111.83 317.77 106.79C317.77 101.75 313.68 97.66 308.64 97.66C308.64 97.66 308.64 97.66 308.64 97.66C303.61 97.66 299.52 101.75 299.52 106.79C299.52 111.83 303.6 115.91 308.64 115.91ZM275.19 81.54C279.73 81.54 283.4 77.86 283.4 73.33C283.39 68.8 279.72 65.13 275.19 65.13C270.66 65.13 266.99 68.81 266.99 73.34C266.99 77.87 270.66 81.54 275.19 81.54ZM241.74 47.17C245.77 47.17 249.03 43.91 249.03 39.88C249.03 35.86 245.77 32.59 241.74 32.59C241.74 32.59 241.74 32.59 241.74 32.59C237.72 32.6 234.46 35.86 234.46 39.88C234.46 43.91 237.72 47.17 241.74 47.17ZM208.29 12.81C211.81 12.81 214.66 9.95 214.66 6.44C214.66 2.92 211.81 0.07 208.29 0.07C204.78 0.07 201.93 2.92 201.93 6.43C201.92 9.95 204.77 12.81 208.29 12.81ZM287.7 340.95C287.7 333.37 281.55 327.23 273.97 327.23C266.39 327.23 260.25 333.38 260.25 340.96C260.25 348.53 266.39 354.67 273.97 354.67C273.97 354.67 273.98 354.67 273.98 354.67C281.56 354.68 287.7 348.53 287.7 340.95ZM253.33 374.41C253.33 367.33 247.6 361.6 240.53 361.6C233.45 361.6 227.72 367.33 227.72 374.41C227.72 381.48 233.45 387.21 240.52 387.21C240.52 387.21 240.53 387.21 240.53 387.21C247.6 387.21 253.33 381.48 253.33 374.41ZM218.95 407.85C218.95 401.29 213.63 395.98 207.07 395.98C200.51 395.99 195.19 401.3 195.19 407.86C195.2 414.42 200.52 419.74 207.08 419.74C207.08 419.74 207.08 419.74 207.08 419.74C213.64 419.74 218.96 414.42 218.95 407.85ZM184.59 441.31C184.59 435.25 179.68 430.34 173.63 430.34C167.57 430.34 162.66 435.25 162.66 441.31C162.66 441.31 162.66 441.31 162.66 441.31C162.66 447.36 167.57 452.27 173.62 452.27C179.68 452.27 184.59 447.36 184.59 441.31ZM150.22 474.76C150.22 469.21 145.72 464.72 140.18 464.72C134.63 464.72 130.13 469.22 130.13 474.76C130.14 480.31 134.63 484.8 140.17 484.8C145.73 484.8 150.22 480.31 150.22 474.76ZM115.86 508.22C115.86 503.18 111.77 499.09 106.73 499.09C101.69 499.09 97.6 503.17 97.6 508.21C97.6 513.25 101.68 517.33 106.72 517.34C111.77 517.34 115.86 513.26 115.86 508.22ZM81.49 541.67C81.49 537.13 77.82 533.46 73.28 533.46C68.75 533.46 65.08 537.13 65.08 541.67C65.08 546.19 68.74 549.86 73.27 549.87C77.82 549.87 81.49 546.2 81.49 541.67ZM47.12 575.12C47.12 571.09 43.85 567.83 39.83 567.83C35.8 567.83 32.54 571.09 32.54 575.12C32.54 575.12 32.54 575.12 32.54 575.12C32.54 579.14 35.8 582.39 39.82 582.4C43.85 582.41 47.12 579.14 47.12 575.12ZM12.75 608.57C12.75 605.05 9.9 602.2 6.38 602.2C2.87 602.2 0.02 605.05 0.02 608.57C0.02 608.57 0.02 608.57 0.02 608.57C0.02 612.08 2.86 614.92 6.37 614.93C9.9 614.94 12.75 612.09 12.75 608.57ZM355.03 340.95C355.03 333.37 348.88 327.23 341.3 327.23C333.72 327.23 327.58 333.38 327.58 340.96C327.58 348.53 333.72 354.67 341.29 354.67C348.89 354.68 355.03 348.53 355.03 340.95ZM320.66 374.41C320.66 367.33 314.93 361.6 307.85 361.6C300.78 361.6 295.05 367.33 295.05 374.41C295.05 381.47 300.77 387.2 307.84 387.21C314.93 387.21 320.66 381.48 320.66 374.41ZM286.28 407.85C286.28 401.29 280.96 395.98 274.39 395.98C267.84 395.99 262.52 401.3 262.52 407.86C262.52 414.42 267.83 419.73 274.39 419.74C280.97 419.74 286.29 414.42 286.28 407.85ZM251.92 441.31C251.92 435.25 247.01 430.34 240.95 430.34C234.9 430.34 229.99 435.25 229.99 441.31C229.99 441.31 229.99 441.31 229.99 441.31C229.99 447.36 234.89 452.26 240.93 452.27C247.01 452.27 251.92 447.36 251.92 441.31ZM217.55 474.76C217.55 469.21 213.05 464.72 207.5 464.72C201.96 464.72 197.46 469.22 197.46 474.76C197.47 480.3 201.95 484.79 207.48 484.8C213.06 484.8 217.55 480.31 217.55 474.76ZM183.18 508.22C183.19 503.18 179.1 499.09 174.06 499.09C169.02 499.09 164.93 503.17 164.93 508.21C164.93 513.24 169 517.32 174.03 517.34C179.1 517.34 183.18 513.26 183.18 508.22ZM148.82 541.67C148.82 537.13 145.14 533.46 140.61 533.46C136.08 533.46 132.4 537.13 132.4 541.67C132.41 546.19 136.06 549.85 140.58 549.87C145.14 549.87 148.82 546.2 148.82 541.67ZM114.44 575.12C114.44 571.09 111.18 567.83 107.16 567.83C103.13 567.83 99.87 571.09 99.87 575.12C99.87 575.12 99.87 575.12 99.87 575.12C99.87 579.13 103.11 582.38 107.12 582.4C111.18 582.41 114.44 579.14 114.44 575.12ZM80.08 608.57C80.08 605.05 77.23 602.2 73.71 602.2C70.2 602.2 67.35 605.05 67.35 608.57C67.35 608.57 67.35 608.57 67.35 608.57C67.35 612.07 70.18 614.91 73.68 614.93C77.23 614.94 80.08 612.09 80.08 608.57ZM422.36 340.95C422.36 333.37 416.21 327.23 408.63 327.23C401.05 327.23 394.91 333.38 394.91 340.96C394.91 348.52 401.03 354.66 408.6 354.67C416.22 354.68 422.36 348.53 422.36 340.95ZM387.99 374.41C387.99 367.33 382.25 361.6 375.18 361.6C368.11 361.6 362.38 367.33 362.38 374.41C362.38 381.46 368.09 387.19 375.14 387.21C382.25 387.21 387.99 381.48 387.99 374.41ZM353.61 407.85C353.61 401.29 348.28 395.98 341.72 395.98C335.16 395.99 329.85 401.3 329.85 407.86C329.85 414.41 335.15 419.72 341.7 419.74C348.3 419.74 353.61 414.42 353.61 407.85ZM319.25 441.31C319.25 435.25 314.34 430.34 308.28 430.34C302.23 430.34 297.32 435.25 297.32 441.31C297.32 441.31 297.32 441.31 297.32 441.31C297.32 447.35 302.2 452.25 308.24 452.27C314.34 452.27 319.25 447.36 319.25 441.31ZM284.88 474.76C284.88 469.21 280.38 464.72 274.83 464.72C269.29 464.72 264.79 469.22 264.79 474.76C264.79 480.29 269.26 484.78 274.79 484.8C280.39 484.8 284.88 480.31 284.88 474.76ZM250.51 508.22C250.51 503.18 246.43 499.09 241.39 499.09C236.35 499.09 232.26 503.17 232.26 508.21C232.26 513.23 236.32 517.31 241.34 517.34C246.42 517.34 250.51 513.26 250.51 508.22ZM216.15 541.67C216.15 537.13 212.47 533.46 207.94 533.46C203.41 533.46 199.73 537.13 199.73 541.67C199.73 546.18 203.38 549.84 207.89 549.87C212.47 549.87 216.15 546.2 216.15 541.67ZM181.77 575.12C181.77 571.09 178.51 567.83 174.48 567.83C170.46 567.83 167.2 571.09 167.2 575.12C167.2 575.12 167.2 575.12 167.2 575.12C167.2 579.12 170.43 582.37 174.43 582.4C178.51 582.41 181.77 579.14 181.77 575.12ZM147.41 608.57C147.41 605.05 144.56 602.2 141.04 602.2C137.52 602.2 134.67 605.05 134.67 608.57C134.67 608.57 134.67 608.57 134.67 608.57C134.68 612.06 137.49 614.9 140.98 614.93C144.56 614.94 147.41 612.09 147.41 608.57ZM489.62 340.95C489.63 333.37 483.48 327.23 475.9 327.23C468.32 327.22 462.18 333.37 462.18 340.95C462.18 340.95 462.18 340.95 462.18 340.95C462.18 348.53 468.32 354.67 475.9 354.67C483.48 354.68 489.62 348.53 489.62 340.95ZM455.26 374.4C455.26 367.33 449.53 361.6 442.45 361.6C435.38 361.6 429.65 367.33 429.65 374.4C429.65 381.47 435.38 387.2 442.45 387.21C442.45 387.21 442.45 387.21 442.45 387.21C449.53 387.21 455.26 381.47 455.26 374.4ZM420.88 407.86C420.88 401.3 415.56 395.98 409 395.98C402.44 395.98 397.12 401.3 397.12 407.86C397.12 407.86 397.12 407.86 397.12 407.86C397.12 414.42 402.44 419.74 409 419.74C415.56 419.74 420.88 414.42 420.88 407.86ZM386.52 441.31C386.52 435.25 381.61 430.34 375.55 430.34C369.5 430.34 364.59 435.25 364.59 441.31C364.59 441.31 364.59 441.31 364.59 441.31C364.59 447.36 369.5 452.27 375.55 452.27C381.61 452.27 386.52 447.36 386.52 441.31ZM352.15 474.75C352.15 469.21 347.65 464.71 342.1 464.71C336.56 464.71 332.06 469.21 332.06 474.76C332.06 480.3 336.56 484.8 342.1 484.8C347.66 484.8 352.15 480.3 352.15 474.75ZM317.78 508.21C317.79 503.17 313.7 499.09 308.66 499.09C303.62 499.08 299.53 503.17 299.53 508.21C299.53 513.25 303.61 517.33 308.64 517.34C313.7 517.34 317.78 513.25 317.78 508.21ZM283.42 541.66C283.42 537.13 279.74 533.46 275.21 533.46C270.68 533.46 267 537.13 267 541.66C267 546.19 270.67 549.86 275.2 549.87C279.74 549.87 283.42 546.2 283.42 541.66ZM249.05 575.11C249.05 571.09 245.78 567.83 241.76 567.83C237.73 567.83 234.47 571.09 234.47 575.11C234.47 575.11 234.47 575.11 234.47 575.11C234.47 579.13 237.72 582.39 241.74 582.4C245.78 582.4 249.05 579.14 249.05 575.11ZM214.68 608.57C214.68 605.05 211.83 602.2 208.31 602.2C204.8 602.2 201.95 605.05 201.95 608.57C201.95 608.57 201.95 608.57 201.95 608.57C201.95 612.07 204.78 614.92 208.29 614.93C211.83 614.93 214.68 612.08 214.68 608.57Z" id="b4bngSfCmr"></path></defs><g><g><g><use xlink:href="#b4bngSfCmr" opacity="1" fill="#eaf7ff" fill-opacity="1"></use><g><use xlink:href="#b4bngSfCmr" opacity="1" fill-opacity="0" stroke="#000000" stroke-width="1" stroke-opacity="0"></use></g></g></g></g></svg>