<svg xmlns="http://www.w3.org/2000/svg" width="158" height="67.525" viewBox="0 0 158 67.525">
    <defs>
        <style>
            .cls-1{fill:#fff}.cls-4{fill:#f53d4c}
        </style>
    </defs>
    <g id="Group_89" transform="translate(-363 -6505)">
        <path id="Path_1664" d="M277.587 278.993h-11.4l-3.379 9.441H258.7v-1.772a2.669 2.669 0 0 0 2.076-.806 10.167 10.167 0 0 0 1.184-2.287l10.213-24.5h1.713L285 284.948a3.822 3.822 0 0 0 .858 1.417 3.315 3.315 0 0 0 1.716.27v1.8h-6.291zm-.806-2l-4.986-11.672-4.806 11.667z" class="cls-1" transform="translate(146.915 6273.757)"/>
        <path id="Path_1650" d="M316.83 285.992a9.338 9.338 0 0 1-6.244 2.19q-5.753 0-5.758 1.841a1.651 1.651 0 0 0 .5 1.384 3.567 3.567 0 0 0 2.184.5h6.8q6.829 0 6.834 4.679a5.65 5.65 0 0 1-3.3 5.335l-1.144-1.572a2.925 2.925 0 0 0 1.578-2.419q0-3.106-5.931-2.785t-7.085-.091a3.6 3.6 0 0 1-3.34-3.8q0-3.15 4.341-4.111v-.075a5.663 5.663 0 0 1-2.925-2.761 8.587 8.587 0 0 1-.921-4 7.076 7.076 0 0 1 2.69-5.564 8.845 8.845 0 0 1 5.914-2.19 8.3 8.3 0 0 1 5.966 2.34 7.29 7.29 0 0 1 2.441 5.416 7.085 7.085 0 0 1-2.594 5.694m-2.767-10.019a3.734 3.734 0 0 0-6.29 0 7.437 7.437 0 0 0-1.281 4.529 7.362 7.362 0 0 0 1.275 4.487 3.734 3.734 0 0 0 6.29 0 7.32 7.32 0 0 0 1.286-4.494 7.438 7.438 0 0 0-1.286-4.529" class="cls-1" transform="translate(135.911 6270.327)"/>
        <path id="Path_1651" d="M330.322 272.926h4v15.549a1.714 1.714 0 0 0 .515 1.435 3.071 3.071 0 0 0 1.825.406h.039v1.647h-8.939v-1.647h.27a2.99 2.99 0 0 0 1.784-.406 1.955 1.955 0 0 0 .515-1.6z" class="cls-1" transform="translate(129.326 6270.229)"/>
        <path id="Path_1652" d="M343.226 266.812h4v20.141a1.716 1.716 0 0 0 .509 1.441 2.982 2.982 0 0 0 1.8.405v1.608h-6.291z" class="cls-1" transform="translate(125.389 6271.786)"/>
        <path id="Path_1653" d="M356.61 272.926h3.958v15.549a1.713 1.713 0 0 0 .52 1.435 3.044 3.044 0 0 0 1.818.406h.04v1.647h-8.91v-1.647h.269a2.971 2.971 0 0 0 1.784-.406 1.925 1.925 0 0 0 .514-1.6z" class="cls-1" transform="translate(122.636 6270.229)"/>
        <path id="Path_1654" d="M370.058 261.954h3.872v8.1h4.27v1.8h-4.27v11.974q0 3.118 2.691 3.111a2.727 2.727 0 0 0 2.379-1.373l1.549 1.075c-1.029 1.789-2.813 2.682-5.381 2.682a5.45 5.45 0 0 1-3.626-1.229 3.841 3.841 0 0 1-1.474-3.105z" class="cls-1" transform="translate(118.556 6273.023)"/>
        <path id="Path_1645" d="M389.658 272.926l7.063 15.12 6.291-15.12h2.688l-8.165 18.54a28.114 28.114 0 0 1-4.987 8.332 7.45 7.45 0 0 1-5.416 2.494 5.082 5.082 0 0 1-2.991-.806 2.989 2.989 0 0 1-1.31-2.607 2.239 2.239 0 0 1 .83-1.807 3.04 3.04 0 0 1 2.012-.692 2.354 2.354 0 0 1 1.6.572 1.672 1.672 0 0 1 .635 1.286 2.936 2.936 0 0 1-.16.9 3.789 3.789 0 0 0-.148.572c0 .406.177.613.537.613q2.86 0 6.446-7.332l-9.358-20.014z" class="cls-1" transform="translate(115.305 6270.229)"/>
        <path id="Path_1673" fill="#009edd" d="M231.062 255.715a4.1 4.1 0 0 1 .572 1.412 4.181 4.181 0 1 1-4.9-3.311h.236a19.6 19.6 0 0 0-4.29-.936 19.34 19.34 0 0 0-15.139 33.276c18.791 5.084 23.291-13.725 19.444-16.412-1.447-1-3.86-.936-5.587-.738-8.921 1.029 1.778-9.75 9.358-3.168 6.137 5.329 2.168 20.169-7.932 23.961a15.705 15.705 0 0 1-9.682.074 19.058 19.058 0 0 0 5.987 1.556 19.341 19.341 0 0 0 11.932-35.714z" transform="translate(161.478 6275.355)"/>
        <path id="Path_1689" fill="#b428a4" d="M249.018 247.62a3.826 3.826 0 1 1-4.265-3.328l.153-.016a3.757 3.757 0 0 1 4.112 3.344" transform="translate(151.324 6276.784)"/>
        <path id="Path_1687" d="M237.926 258.648a2.482 2.482 0 1 1-2.79-2.13 2.53 2.53 0 0 1 .271-.021 2.481 2.481 0 0 1 2.524 2.151" class="cls-4" transform="translate(153.465 6274.413)"/>
        <path id="Path_1690" fill="#47a836" d="M267.349 236.571a5.957 5.957 0 0 1-5.62 6.247 5.884 5.884 0 0 1-5.925-5.278 5.959 5.959 0 0 1 5.6-6.269 5.883 5.883 0 0 1 5.948 5.282" transform="translate(147.655 6280.838)"/>
        <path id="Path_1692" fill="#ffc800" d="M292.854 230.816a7.39 7.39 0 0 1-7 7.722 7.284 7.284 0 0 1-7.215-6.5 7.4 7.4 0 0 1 7.008-7.728 7.289 7.289 0 0 1 7.22 6.5" transform="translate(141.839 6281.864)"/>
        <path id="Path_1691" fill="#fd7831" d="M325.723 229.989a9.314 9.314 0 0 1-8.74 9.806 9.2 9.2 0 0 1-9.316-8.272 9.3 9.3 0 0 1 8.74-9.783 9.185 9.185 0 0 1 9.293 8.249" transform="translate(134.447 6283.266)"/>
        <path id="Path_1688" d="M363.943 239.568a12.981 12.981 0 0 1-11.815 13.887 12.68 12.68 0 0 1-13.764-11.682 12.968 12.968 0 0 1 11.8-13.876 12.686 12.686 0 0 1 13.764 11.677" class="cls-4" transform="translate(126.637 6280.963)"/>
        <path id="Path_1685" d="M408.269 266.092a3.113 3.113 0 1 1 3.112-3.112 3.113 3.113 0 0 1-3.112 3.112m0-5.594a2.481 2.481 0 1 0 2.48 2.481 2.481 2.481 0 0 0-2.48-2.481" class="cls-1" transform="translate(109.617 6273.554)"/>
        <path id="Path_1686" d="M408.848 263.352a.458.458 0 0 0 .3-.081.4.4 0 0 0 0-.516.472.472 0 0 0-.3-.076h-.285v.672h.285m-.285.468v.99h-.675v-2.619h1.031a1.3 1.3 0 0 1 .757.175.621.621 0 0 1 .241.549.69.69 0 0 1-.124.426.713.713 0 0 1-.378.244.52.52 0 0 1 .25.145 1.269 1.269 0 0 1 .221.338l.369.742h-.718l-.32-.651a.7.7 0 0 0-.2-.267.443.443 0 0 0-.264-.074h-.191" class="cls-1" transform="translate(108.921 6272.963)"/>
    </g>
</svg>
