<svg xmlns="http://www.w3.org/2000/svg" width="159.293" height="48.198" viewBox="0 0 159.293 48.198">
    <defs>
        <style>
            .cls-1{fill:#eaf7ff}
        </style>
    </defs>
    <g id="Group_672" transform="translate(-1069.461 -3896.399)">
        <g id="Group_81" transform="translate(443 3005)">
            <path id="Path_432" d="M253.052 249.4a5.851 5.851 0 1 1-6.523-5.09l.234-.024a5.745 5.745 0 0 1 6.288 5.113" class="cls-1" transform="translate(394.324 672.989)"/>
            <path id="Path_433" d="M240.542 259.786a3.8 3.8 0 1 1-4.267-3.257 3.86 3.86 0 0 1 .415-.032 3.794 3.794 0 0 1 3.859 3.289" class="cls-1" transform="translate(393.478 675.509)"/>
            <path id="Path_431" d="M273.46 239.378a9.109 9.109 0 0 1-8.595 9.552 9 9 0 0 1-9.061-8.07 9.112 9.112 0 0 1 8.56-9.586 9 9 0 0 1 9.1 8.077" class="cls-1" transform="translate(396.666 671.985)"/>
            <path id="Path_430" d="M300.378 234.258c.12 6.394-4.674 11.682-10.707 11.809a11.138 11.138 0 0 1-11.033-9.935c-.12-6.4 4.679-11.691 10.717-11.817a11.146 11.146 0 0 1 11.04 9.944" class="cls-1" transform="translate(399.198 669.214)"/>
            <path id="Path_429" d="M335.281 234.357c.271 8-5.712 14.711-13.364 14.995A14.062 14.062 0 0 1 307.67 236.7c-.263-7.988 5.72-14.686 13.364-14.96a14.045 14.045 0 0 1 14.211 12.614" class="cls-1" transform="translate(401.935 669.664)"/>
            <path id="Path_428" d="M377.5 245.768A19.85 19.85 0 0 1 359.433 267a19.389 19.389 0 0 1-21.047-17.864 19.831 19.831 0 0 1 18.049-21.218 19.4 19.4 0 0 1 21.047 17.855" class="cls-1" transform="translate(408.197 670.367)"/>
        </g>
    </g>
</svg>
