<svg xmlns="http://www.w3.org/2000/svg" width="668" height="668.463" viewBox="0 0 668 668.463">
    <path fill="rgba(93,198,253,0.15)" stroke="rgba(0,0,0,0)" stroke-miterlimit="10" d="M5820.567-860.538a1.535 1.535 0 0 1 1.534-1.54 1.541 1.541 0 0 1 1.54 1.54A1.535 1.535 0 0 1 5822.1-859a1.529 1.529 0 0 1-1.533-1.538zm-46.287-1.619a1.434 1.434 0 0 1 1.436-1.436 1.433 1.433 0 0 1 1.434 1.436 1.437 1.437 0 0 1-1.434 1.436 1.438 1.438 0 0 1-1.435-1.436zm92.442-3.234a1.535 1.535 0 0 1 1.534-1.534 1.536 1.536 0 0 1 1.54 1.534 1.54 1.54 0 0 1-1.54 1.54 1.538 1.538 0 0 1-1.533-1.541zm-138.149-4.823a1.435 1.435 0 0 1 1.437-1.435 1.437 1.437 0 0 1 1.435 1.435 1.441 1.441 0 0 1-1.435 1.436 1.439 1.439 0 0 1-1.437-1.437zm183.08-6.4a1.641 1.641 0 0 1 1.641-1.64 1.64 1.64 0 0 1 1.641 1.64 1.64 1.64 0 0 1-1.641 1.64 1.641 1.641 0 0 1-1.641-1.643zm-227.218-7.942a1.432 1.432 0 0 1 1.432-1.434 1.435 1.435 0 0 1 1.436 1.434 1.435 1.435 0 0 1-1.436 1.436 1.432 1.432 0 0 1-1.432-1.439zm114.778-12.744a11.276 11.276 0 0 1 11.275-11.273 11.276 11.276 0 0 1 11.28 11.273 11.281 11.281 0 0 1-11.28 11.273 11.281 11.281 0 0 1-11.275-11.273zm46.262-3.641a11.274 11.274 0 0 1 11.274-11.273 11.271 11.271 0 0 1 11.274 11.273 11.271 11.271 0 0 1-11.274 11.273 11.274 11.274 0 0 1-11.274-11.269zm-92.417 0a11.172 11.172 0 0 1 11.172-11.172 11.172 11.172 0 0 1 11.173 11.172 11.173 11.173 0 0 1-11.173 11.172 11.173 11.173 0 0 1-11.172-11.169zM5954.687-894a1.642 1.642 0 0 1 1.641-1.641 1.639 1.639 0 0 1 1.639 1.641 1.639 1.639 0 0 1-1.639 1.64 1.642 1.642 0 0 1-1.641-1.64zm-64.087-17.773a11.275 11.275 0 0 1 11.274-11.273 11.275 11.275 0 0 1 11.273 11.273 11.277 11.277 0 0 1-11.273 11.28 11.276 11.276 0 0 1-11.274-11.28zm-182.659 0a11.172 11.172 0 0 1 11.174-11.169 11.172 11.172 0 0 1 11.171 11.169 11.174 11.174 0 0 1-11.171 11.175 11.174 11.174 0 0 1-11.178-11.175zm-65.12 6.87a1.333 1.333 0 0 1 1.331-1.331 1.334 1.334 0 0 1 1.337 1.331 1.334 1.334 0 0 1-1.337 1.33 1.333 1.333 0 0 1-1.335-1.327zm352.064-12.305a1.64 1.64 0 0 1 1.639-1.64 1.642 1.642 0 0 1 1.641 1.64 1.642 1.642 0 0 1-1.641 1.641 1.64 1.64 0 0 1-1.642-1.641zm-61.416-12.318a11.275 11.275 0 0 1 11.274-11.275 11.276 11.276 0 0 1 11.277 11.275 11.275 11.275 0 0 1-11.277 11.274 11.275 11.275 0 0 1-11.277-11.274zm-268.3 0a11.07 11.07 0 0 1 11.071-11.069 11.071 11.071 0 0 1 11.072 11.069 11.072 11.072 0 0 1-11.072 11.069 11.071 11.071 0 0 1-11.072-11.069zm122.642-5a11.069 11.069 0 0 1 11.071-11.065 11.065 11.065 0 0 1 11.07 11.065 11.065 11.065 0 0 1-11.07 11.069 11.069 11.069 0 0 1-11.072-11.065zm46.342-2.077a11.07 11.07 0 0 1 11.07-11.071 11.068 11.068 0 0 1 11.072 11.071 11.065 11.065 0 0 1-11.072 11.063 11.068 11.068 0 0 1-11.071-11.06zm-229.812 5.744a1.333 1.333 0 0 1 1.332-1.333 1.332 1.332 0 0 1 1.333 1.333 1.332 1.332 0 0 1-1.333 1.331 1.332 1.332 0 0 1-1.333-1.326zm137.4-9.89a11.174 11.174 0 0 1 11.176-11.175 11.173 11.173 0 0 1 11.168 11.175 11.172 11.172 0 0 1-11.168 11.169 11.173 11.173 0 0 1-11.176-11.164zm137.636-6.179a11.074 11.074 0 0 1 11.07-11.069 11.069 11.069 0 0 1 11.071 11.069 11.065 11.065 0 0 1-11.071 11.071 11.07 11.07 0 0 1-11.071-11.067zm93.55-6.849a11.377 11.377 0 0 1 11.379-11.371 11.379 11.379 0 0 1 11.381 11.371 11.38 11.38 0 0 1-11.381 11.377 11.379 11.379 0 0 1-11.38-11.373zm-347.216 0a10.965 10.965 0 0 1 10.966-10.965 10.965 10.965 0 0 1 10.966 10.965 10.966 10.966 0 0 1-10.966 10.971 10.966 10.966 0 0 1-10.967-10.967zm71.915-1.307a11.173 11.173 0 0 1 11.169-11.175 11.174 11.174 0 0 1 11.175 11.175 11.172 11.172 0 0 1-11.175 11.169 11.171 11.171 0 0 1-11.17-11.165zm333.831 9.3a1.64 1.64 0 0 1 1.641-1.64 1.639 1.639 0 0 1 1.639 1.64 1.638 1.638 0 0 1-1.639 1.639 1.64 1.64 0 0 1-1.642-1.635zm-109.422-19.37a11.07 11.07 0 0 1 11.071-11.071 11.07 11.07 0 0 1 11.071 11.071 11.074 11.074 0 0 1-11.071 11.069 11.074 11.074 0 0 1-11.072-11.065zm-352.084 3.24a1.23 1.23 0 0 1 1.231-1.227 1.232 1.232 0 0 1 1.234 1.227 1.237 1.237 0 0 1-1.234 1.231 1.235 1.235 0 0 1-1.232-1.227zm209.464-10.525a7.893 7.893 0 0 1 7.893-7.893 7.893 7.893 0 0 1 7.893 7.893 7.892 7.892 0 0 1-7.893 7.891 7.892 7.892 0 0 1-7.894-7.887zm46.469 0a7.789 7.789 0 0 1 7.787-7.793 7.79 7.79 0 0 1 7.792 7.793 7.79 7.79 0 0 1-7.792 7.787 7.788 7.788 0 0 1-7.788-7.78zm-169.112-4.626a11.175 11.175 0 0 1 11.176-11.175 11.174 11.174 0 0 1 11.17 11.175 11.173 11.173 0 0 1-11.17 11.169 11.174 11.174 0 0 1-11.177-11.163zm351.442-6.845a11.379 11.379 0 0 1 11.38-11.377 11.379 11.379 0 0 1 11.378 11.377 11.377 11.377 0 0 1-11.378 11.376 11.378 11.378 0 0 1-11.381-11.366zm-417.792 0a10.967 10.967 0 0 1 10.968-10.967 10.968 10.968 0 0 1 10.97 10.977 10.968 10.968 0 0 1-10.972 10.965 10.967 10.967 0 0 1-10.967-10.965zm143.644 1.829a7.887 7.887 0 0 1 7.892-7.891 7.892 7.892 0 0 1 7.892 7.891 7.9 7.9 0 0 1-7.892 7.891 7.891 7.891 0 0 1-7.894-7.883zm137.175 0a7.787 7.787 0 0 1 7.785-7.793 7.79 7.79 0 0 1 7.789 7.793 7.79 7.79 0 0 1-7.789 7.787 7.787 7.787 0 0 1-7.786-7.779zm192.457 2.909a1.639 1.639 0 0 1 1.639-1.64 1.64 1.64 0 0 1 1.64 1.64 1.64 1.64 0 0 1-1.64 1.64 1.639 1.639 0 0 1-1.637-1.632zm-102.95-11.542a11.07 11.07 0 0 1 11.07-11.069 11.069 11.069 0 0 1 11.07 11.069 11.069 11.069 0 0 1-11.07 11.071 11.07 11.07 0 0 1-11.071-11.064zm-269.042-10.222a7.89 7.89 0 0 1 7.891-7.891 7.892 7.892 0 0 1 7.9 7.891 7.9 7.9 0 0 1-7.9 7.891 7.894 7.894 0 0 1-7.892-7.884zm221.887 0a7.789 7.789 0 0 1 7.788-7.793 7.789 7.789 0 0 1 7.792 7.793 7.787 7.787 0 0 1-7.792 7.786 7.787 7.787 0 0 1-7.789-7.779zm-293.188-5.052a11.271 11.271 0 0 1 11.274-11.273 11.272 11.272 0 0 1 11.276 11.273 11.272 11.272 0 0 1-11.276 11.273 11.271 11.271 0 0 1-11.279-11.266zm-80.285 8.519a1.23 1.23 0 0 1 1.225-1.232 1.232 1.232 0 0 1 1.234 1.232 1.233 1.233 0 0 1-1.234 1.233 1.231 1.231 0 0 1-1.225-1.226zm277.364-11.085a4.612 4.612 0 0 1 4.613-4.612 4.613 4.613 0 0 1 4.612 4.612 4.613 4.613 0 0 1-4.612 4.612 4.612 4.612 0 0 1-4.614-4.605zm-46.237-2.909a4.612 4.612 0 0 1 4.612-4.612 4.612 4.612 0 0 1 4.612 4.612 4.612 4.612 0 0 1-4.612 4.612 4.612 4.612 0 0 1-4.612-4.605zm267.1-7.731a11.377 11.377 0 0 1 11.378-11.378 11.377 11.377 0 0 1 11.376 11.378 11.377 11.377 0 0 1-11.376 11.377 11.377 11.377 0 0 1-11.374-11.369zm-477.962 0a10.863 10.863 0 0 1 10.866-10.861 10.86 10.86 0 0 1 10.862 10.861 10.864 10.864 0 0 1-10.862 10.866 10.867 10.867 0 0 1-10.862-10.861zm433.89-3.573a11.069 11.069 0 0 1 11.066-11.069 11.07 11.07 0 0 1 11.07 11.069 11.07 11.07 0 0 1-11.07 11.071 11.069 11.069 0 0 1-11.062-11.066zm-131.184 5.533a4.511 4.511 0 0 1 4.509-4.509 4.51 4.51 0 0 1 4.508 4.509 4.506 4.506 0 0 1-4.508 4.509 4.507 4.507 0 0 1-4.505-4.505zm227.882.519a1.641 1.641 0 0 1 1.641-1.64 1.638 1.638 0 0 1 1.639 1.64 1.638 1.638 0 0 1-1.639 1.639 1.641 1.641 0 0 1-1.637-1.634zm-436.884-11.473a7.994 7.994 0 0 1 8-8 8 8 0 0 1 7.991 8 8 8 0 0 1-7.991 8 8 8 0 0 1-7.997-7.995zm297.014 0a7.792 7.792 0 0 1 7.787-7.793 7.794 7.794 0 0 1 7.793 7.793 7.788 7.788 0 0 1-7.793 7.787 7.787 7.787 0 0 1-7.784-7.782zm-223.921 2.413a4.612 4.612 0 0 1 4.613-4.612 4.614 4.614 0 0 1 4.613 4.612 4.613 4.613 0 0 1-4.613 4.612 4.612 4.612 0 0 1-4.61-4.608zm-137.3-15.139a11.271 11.271 0 0 1 11.275-11.273 11.274 11.274 0 0 1 11.273 11.273 11.278 11.278 0 0 1-11.273 11.273 11.276 11.276 0 0 1-11.272-11.269zm315.126 3.961a4.509 4.509 0 0 1 4.511-4.509 4.5 4.5 0 0 1 4.507 4.509 4.507 4.507 0 0 1-4.507 4.509 4.513 4.513 0 0 1-4.508-4.505zm-389.387.129a1.127 1.127 0 0 1 1.127-1.127 1.128 1.128 0 0 1 1.128 1.127 1.128 1.128 0 0 1-1.128 1.128 1.127 1.127 0 0 1-1.124-1.124zm293.534-8.324a1.332 1.332 0 0 1 1.333-1.333 1.332 1.332 0 0 1 1.331 1.333 1.333 1.333 0 0 1-1.331 1.333 1.333 1.333 0 0 1-1.33-1.329zm-121.194-5.45a4.714 4.714 0 0 1 4.719-4.713 4.713 4.713 0 0 1 4.712 4.713 4.711 4.711 0 0 1-4.712 4.712 4.713 4.713 0 0 1-4.716-4.708zm374.737-8.156a11.274 11.274 0 0 1 11.275-11.273 11.277 11.277 0 0 1 11.272 11.273 11.273 11.273 0 0 1-11.272 11.273 11.27 11.27 0 0 1-11.273-11.269zm-526.458 0a10.762 10.762 0 0 1 10.764-10.762 10.76 10.76 0 0 1 10.761 10.762 10.76 10.76 0 0 1-10.761 10.762 10.762 10.762 0 0 1-10.761-10.758zm485.3-1.54a11.068 11.068 0 0 1 11.069-11.065 11.067 11.067 0 0 1 11.072 11.065 11.067 11.067 0 0 1-11.072 11.069 11.068 11.068 0 0 1-11.067-11.065zm-166.693 7.909a1.33 1.33 0 0 1 1.333-1.33 1.333 1.333 0 0 1 1.33 1.33 1.333 1.333 0 0 1-1.33 1.331 1.331 1.331 0 0 1-1.33-1.327zm-91.38 0a1.332 1.332 0 0 1 1.331-1.33 1.329 1.329 0 0 1 1.329 1.33 1.329 1.329 0 0 1-1.329 1.331 1.333 1.333 0 0 1-1.328-1.327zm-140.4-10.256a8 8 0 0 1 8-8 8 8 0 0 1 8 8 7.993 7.993 0 0 1-8 8 8 8 0 0 1-8.001-7.996zm359.064 0a7.788 7.788 0 0 1 7.788-7.787 7.788 7.788 0 0 1 7.787 7.787 7.787 7.787 0 0 1-7.787 7.785 7.787 7.787 0 0 1-7.788-7.781zm130.636 4.949a1.638 1.638 0 0 1 1.639-1.64 1.642 1.642 0 0 1 1.642 1.64 1.642 1.642 0 0 1-1.642 1.64 1.638 1.638 0 0 1-1.639-1.635zm-172.061-8.794a4.511 4.511 0 0 1 4.51-4.508 4.512 4.512 0 0 1 4.515 4.508 4.514 4.514 0 0 1-4.515 4.511 4.513 4.513 0 0 1-4.509-4.507zm-374.614-14.249a11.271 11.271 0 0 1 11.275-11.265 11.275 11.275 0 0 1 11.273 11.273 11.276 11.276 0 0 1-11.273 11.275 11.272 11.272 0 0 1-11.274-11.278zm156.056 7.35a1.434 1.434 0 0 1 1.433-1.434 1.436 1.436 0 0 1 1.437 1.434 1.436 1.436 0 0 1-1.437 1.436 1.435 1.435 0 0 1-1.433-1.431zm173.917 0a1.331 1.331 0 0 1 1.333-1.331 1.333 1.333 0 0 1 1.332 1.331 1.333 1.333 0 0 1-1.332 1.333 1.332 1.332 0 0 1-1.332-1.328zm-399.316-5.834a1.127 1.127 0 0 1 1.126-1.126 1.128 1.128 0 0 1 1.127 1.126 1.13 1.13 0 0 1-1.127 1.129 1.128 1.128 0 0 1-1.125-1.125zm159.506-5.149a4.711 4.711 0 0 1 4.713-4.714 4.712 4.712 0 0 1 4.711 4.714 4.714 4.714 0 0 1-4.711 4.719 4.713 4.713 0 0 1-4.713-4.715zm424.2-17.256a11.275 11.275 0 0 1 11.274-11.273A11.275 11.275 0 0 1 6103-1101.62a11.277 11.277 0 0 1-11.274 11.28 11.277 11.277 0 0 1-11.269-11.28zm-561.968 0a10.765 10.765 0 0 1 10.763-10.761 10.765 10.765 0 0 1 10.763 10.761 10.766 10.766 0 0 1-10.763 10.768 10.767 10.767 0 0 1-10.761-10.764zm523.183-.459a11.067 11.067 0 0 1 11.069-11.069 11.069 11.069 0 0 1 11.07 11.069 11.07 11.07 0 0 1-11.07 11.069 11.068 11.068 0 0 1-11.067-11.064zm-441.788-.711a8 8 0 0 1 8-8 8 8 0 0 1 8 8 7.994 7.994 0 0 1-8 8 8 8 0 0 1-7.998-7.995zm405.426 0a7.79 7.79 0 0 1 7.791-7.788 7.788 7.788 0 0 1 7.79 7.788 7.788 7.788 0 0 1-7.79 7.79 7.791 7.791 0 0 1-7.788-7.785zm-37.366-1.171a4.506 4.506 0 0 1 4.508-4.509 4.512 4.512 0 0 1 4.511 4.509 4.509 4.509 0 0 1-4.511 4.509 4.5 4.5 0 0 1-4.506-4.504zm160.8 2.661a1.537 1.537 0 0 1 1.539-1.537 1.537 1.537 0 0 1 1.538 1.537 1.538 1.538 0 0 1-1.538 1.538 1.538 1.538 0 0 1-1.539-1.534zm-439.411-4.787a1.541 1.541 0 0 1 1.539-1.54 1.541 1.541 0 0 1 1.541 1.54 1.539 1.539 0 0 1-1.541 1.534 1.54 1.54 0 0 1-1.538-1.529zm239.446 0a1.332 1.332 0 0 1 1.332-1.333 1.334 1.334 0 0 1 1.333 1.333 1.333 1.333 0 0 1-1.333 1.333 1.331 1.331 0 0 1-1.331-1.331zm-379.091-18.07a11.377 11.377 0 0 1 11.378-11.376 11.377 11.377 0 0 1 11.377 11.376 11.378 11.378 0 0 1-11.377 11.377 11.377 11.377 0 0 1-11.377-11.375zm84.143-.8a4.816 4.816 0 0 1 4.817-4.817 4.816 4.816 0 0 1 4.816 4.817 4.817 4.817 0 0 1-4.816 4.818 4.816 4.816 0 0 1-4.816-4.818zm-149.873 1.133a1.127 1.127 0 0 1 1.126-1.127 1.128 1.128 0 0 1 1.127 1.127 1.128 1.128 0 0 1-1.127 1.127 1.127 1.127 0 0 1-1.125-1.127zm607.329-22.9a11.282 11.282 0 0 1 11.281-11.279 11.28 11.28 0 0 1 11.273 11.279 11.278 11.278 0 0 1-11.273 11.273 11.28 11.28 0 0 1-11.28-11.276zm-37.274-.061a11.07 11.07 0 0 1 11.07-11.069 11.069 11.069 0 0 1 11.07 11.069 11.068 11.068 0 0 1-11.07 11.069 11.069 11.069 0 0 1-11.07-11.072zm-546.255.061a10.663 10.663 0 0 1 10.659-10.663 10.664 10.664 0 0 1 10.664 10.663 10.663 10.663 0 0 1-10.664 10.658 10.662 10.662 0 0 1-10.659-10.661zm77.7-.153a8.1 8.1 0 0 1 8.1-8.1 8.1 8.1 0 0 1 8.094 8.1 8.1 8.1 0 0 1-8.094 8.1 8.1 8.1 0 0 1-8.101-8.104zm434.182 0a7.79 7.79 0 0 1 7.794-7.787 7.788 7.788 0 0 1 7.787 7.787 7.789 7.789 0 0 1-7.787 7.793 7.791 7.791 0 0 1-7.795-7.797zm-34.744-.145a4.611 4.611 0 0 1 4.611-4.613 4.613 4.613 0 0 1 4.613 4.613 4.612 4.612 0 0 1-4.613 4.612 4.611 4.611 0 0 1-4.611-4.615zm153.5.336a1.54 1.54 0 0 1 1.54-1.54 1.54 1.54 0 0 1 1.539 1.54 1.54 1.54 0 0 1-1.539 1.54 1.54 1.54 0 0 1-1.542-1.544zm-470.058-.609a1.537 1.537 0 0 1 1.537-1.538 1.538 1.538 0 0 1 1.538 1.538 1.537 1.537 0 0 1-1.538 1.537 1.536 1.536 0 0 1-1.54-1.538zm281.445 0a1.333 1.333 0 0 1 1.333-1.333 1.334 1.334 0 0 1 1.333 1.333 1.335 1.335 0 0 1-1.333 1.333 1.333 1.333 0 0 1-1.335-1.334zM5541.4-1169.8a11.378 11.378 0 0 1 11.379-11.377 11.377 11.377 0 0 1 11.376 11.377 11.377 11.377 0 0 1-11.376 11.376 11.377 11.377 0 0 1-11.379-11.376zm80.9-.031a4.818 4.818 0 0 1 4.817-4.818 4.818 4.818 0 0 1 4.817 4.818 4.817 4.817 0 0 1-4.817 4.817 4.817 4.817 0 0 1-4.808-4.814zm-144.708.045a1.026 1.026 0 0 1 1.023-1.029 1.025 1.025 0 0 1 1.021 1.029 1.023 1.023 0 0 1-1.021 1.023 1.024 1.024 0 0 1-1.015-1.02zm617.327-23.2a11.274 11.274 0 0 1 11.274-11.273 11.275 11.275 0 0 1 11.279 11.273 11.279 11.279 0 0 1-11.279 11.273 11.278 11.278 0 0 1-11.265-11.275zm-36.754 0a11.064 11.064 0 0 1 11.063-11.071 11.067 11.067 0 0 1 11.071 11.071 11.07 11.07 0 0 1-11.071 11.069 11.068 11.068 0 0 1-11.054-11.071zm-553.956 0a10.558 10.558 0 0 1 10.56-10.557 10.558 10.558 0 0 1 10.558 10.557 10.558 10.558 0 0 1-10.558 10.557 10.558 10.558 0 0 1-10.551-10.561zm76.389 0a8.1 8.1 0 0 1 8.1-8.1 8.1 8.1 0 0 1 8.1 8.1 8.1 8.1 0 0 1-8.1 8.094 8.1 8.1 0 0 1-8.091-8.096zm443.878 0a7.79 7.79 0 0 1 7.788-7.793 7.79 7.79 0 0 1 7.793 7.793 7.788 7.788 0 0 1-7.793 7.785 7.788 7.788 0 0 1-7.779-7.787zm-33.786 0a4.611 4.611 0 0 1 4.611-4.612 4.612 4.612 0 0 1 4.613 4.612 4.611 4.611 0 0 1-4.613 4.612 4.611 4.611 0 0 1-4.601-4.616zm-329.6 0a1.54 1.54 0 0 1 1.535-1.541 1.541 1.541 0 0 1 1.54 1.541 1.536 1.536 0 0 1-1.54 1.534 1.535 1.535 0 0 1-1.525-1.536zm480.635 0a1.436 1.436 0 0 1 1.436-1.436 1.431 1.431 0 0 1 1.434 1.436 1.436 1.436 0 0 1-1.434 1.434 1.44 1.44 0 0 1-1.43-1.436zm-184.717 0a1.331 1.331 0 0 1 1.332-1.331 1.332 1.332 0 0 1 1.334 1.331 1.333 1.333 0 0 1-1.334 1.333 1.332 1.332 0 0 1-1.325-1.337zm-415.61-23.192a11.378 11.378 0 0 1 11.379-11.377 11.377 11.377 0 0 1 11.376 11.377 11.376 11.376 0 0 1-11.376 11.376 11.377 11.377 0 0 1-11.377-11.38zm80.8.03a4.921 4.921 0 0 1 4.921-4.92 4.921 4.921 0 0 1 4.921 4.92 4.92 4.92 0 0 1-4.921 4.919 4.92 4.92 0 0 1-4.913-4.923zm-144.6-.042a1.025 1.025 0 0 1 1.023-1.029 1.024 1.024 0 0 1 1.021 1.029 1.02 1.02 0 0 1-1.021 1.023 1.021 1.021 0 0 1-1.021-1.027zm576.309-22.994a11.172 11.172 0 0 1 11.172-11.172 11.173 11.173 0 0 1 11.174 11.172 11.172 11.172 0 0 1-11.174 11.171 11.172 11.172 0 0 1-11.17-11.174zm37.482-.058a11.173 11.173 0 0 1 11.175-11.175 11.172 11.172 0 0 1 11.168 11.175 11.171 11.171 0 0 1-11.168 11.169 11.172 11.172 0 0 1-11.172-11.172zm-583.532 0a10.557 10.557 0 0 1 10.557-10.557 10.557 10.557 0 0 1 10.558 10.557 10.557 10.557 0 0 1-10.558 10.557 10.558 10.558 0 0 1-10.554-10.562zm77.6.149a8.1 8.1 0 0 1 8.1-8.1 8.1 8.1 0 0 1 8.094 8.1 8.091 8.091 0 0 1-8.094 8.1 8.094 8.094 0 0 1-8.102-8.107zm434.081 0a7.894 7.894 0 0 1 7.894-7.893 7.893 7.893 0 0 1 7.892 7.893 7.891 7.891 0 0 1-7.892 7.891 7.892 7.892 0 0 1-7.896-7.898zm-34.643.148a4.611 4.611 0 0 1 4.611-4.612 4.613 4.613 0 0 1 4.613 4.612 4.612 4.612 0 0 1-4.613 4.612 4.611 4.611 0 0 1-4.612-4.617zm-316.663.273a1.639 1.639 0 0 1 1.639-1.64 1.641 1.641 0 0 1 1.641 1.64 1.641 1.641 0 0 1-1.641 1.64 1.639 1.639 0 0 1-1.64-1.645zm281.548 0a1.332 1.332 0 0 1 1.333-1.333 1.334 1.334 0 0 1 1.333 1.333 1.335 1.335 0 0 1-1.333 1.333 1.333 1.333 0 0 1-1.334-1.338zm188.715-.612a1.438 1.438 0 0 1 1.437-1.436 1.436 1.436 0 0 1 1.435 1.436 1.432 1.432 0 0 1-1.435 1.436 1.434 1.434 0 0 1-1.438-1.441zm-588.807-22.533a11.377 11.377 0 0 1 11.378-11.377 11.378 11.378 0 0 1 11.377 11.377 11.376 11.376 0 0 1-11.377 11.376 11.376 11.376 0 0 1-11.379-11.381zm84.043.8a4.919 4.919 0 0 1 4.917-4.922 4.925 4.925 0 0 1 4.922 4.922 4.925 4.925 0 0 1-4.922 4.922 4.919 4.919 0 0 1-4.918-4.927zm-149.673-1.133a1.029 1.029 0 0 1 1.029-1.023 1.027 1.027 0 0 1 1.021 1.023 1.029 1.029 0 0 1-1.021 1.029 1.031 1.031 0 0 1-1.03-1.034zm557.514-21.746a11.173 11.173 0 0 1 11.169-11.175 11.174 11.174 0 0 1 11.175 11.175 11.172 11.172 0 0 1-11.175 11.169 11.171 11.171 0 0 1-11.17-11.173zm38.989-.462a11.172 11.172 0 0 1 11.17-11.175 11.174 11.174 0 0 1 11.175 11.175 11.169 11.169 0 0 1-11.175 11.168 11.167 11.167 0 0 1-11.171-11.173zm-561.763 0a10.456 10.456 0 0 1 10.454-10.454 10.457 10.457 0 0 1 10.456 10.454 10.458 10.458 0 0 1-10.456 10.454 10.456 10.456 0 0 1-10.452-10.459zm80.883 1.171a8.2 8.2 0 0 1 8.2-8.2 8.2 8.2 0 0 1 8.2 8.2 8.2 8.2 0 0 1-8.2 8.2 8.2 8.2 0 0 1-8.201-8.205zm405.528 0a7.893 7.893 0 0 1 7.893-7.891 7.893 7.893 0 0 1 7.893 7.891 7.893 7.893 0 0 1-7.893 7.893 7.893 7.893 0 0 1-7.894-7.898zm-37.474 1.169a4.714 4.714 0 0 1 4.718-4.712 4.714 4.714 0 0 1 4.713 4.712 4.714 4.714 0 0 1-4.713 4.713 4.714 4.714 0 0 1-4.719-4.718zm-278.5 2.132a1.637 1.637 0 0 1 1.637-1.638 1.638 1.638 0 0 1 1.64 1.638 1.638 1.638 0 0 1-1.64 1.638 1.637 1.637 0 0 1-1.639-1.643zm239.441 0a1.433 1.433 0 0 1 1.435-1.436 1.437 1.437 0 0 1 1.436 1.436 1.437 1.437 0 0 1-1.436 1.436 1.433 1.433 0 0 1-1.437-1.441zm200.174-4.793a1.437 1.437 0 0 1 1.436-1.435 1.441 1.441 0 0 1 1.435 1.435 1.437 1.437 0 0 1-1.435 1.436 1.433 1.433 0 0 1-1.438-1.441zm-562.86-20.565a11.376 11.376 0 0 1 11.376-11.376 11.376 11.376 0 0 1 11.377 11.376 11.377 11.377 0 0 1-11.377 11.378 11.377 11.377 0 0 1-11.378-11.383zm90.058 3.631a4.923 4.923 0 0 1 4.922-4.922 4.924 4.924 0 0 1 4.921 4.922 4.924 4.924 0 0 1-4.921 4.922 4.923 4.923 0 0 1-4.924-4.927zm-159.193-5.143a1.025 1.025 0 0 1 1.023-1.029 1.024 1.024 0 0 1 1.021 1.029 1.023 1.023 0 0 1-1.021 1.022 1.023 1.023 0 0 1-1.025-1.028zm225.09-5.838a1.64 1.64 0 0 1 1.639-1.641 1.641 1.641 0 0 1 1.641 1.641 1.641 1.641 0 0 1-1.641 1.64 1.64 1.64 0 0 1-1.641-1.646zm173.918 0a1.532 1.532 0 0 1 1.536-1.534 1.536 1.536 0 0 1 1.54 1.534 1.542 1.542 0 0 1-1.54 1.541 1.537 1.537 0 0 1-1.538-1.547zm125.578-13.091a11.174 11.174 0 0 1 11.174-11.172 11.173 11.173 0 0 1 11.172 11.172 11.172 11.172 0 0 1-11.172 11.172 11.173 11.173 0 0 1-11.176-11.18zm-80.941 6.185a4.716 4.716 0 0 1 4.712-4.713 4.718 4.718 0 0 1 4.719 4.713 4.719 4.719 0 0 1-4.719 4.718 4.717 4.717 0 0 1-4.712-4.718zm-317.64-3.845a8.2 8.2 0 0 1 8.2-8.2 8.2 8.2 0 0 1 8.2 8.2 8.2 8.2 0 0 1-8.2 8.2 8.2 8.2 0 0 1-8.196-8.201zm359.057 0a7.994 7.994 0 0 1 8-7.989 7.993 7.993 0 0 1 7.995 7.989 8 8 0 0 1-7.995 8 8 8 0 0 1-7.996-8.001zm80.984-3.887a11.069 11.069 0 0 1 11.071-11.069 11.073 11.073 0 0 1 11.07 11.069 11.074 11.074 0 0 1-11.07 11.071 11.07 11.07 0 0 1-11.072-11.072zm-526.354 0a10.457 10.457 0 0 1 10.456-10.454 10.458 10.458 0 0 1 10.454 10.454 10.457 10.457 0 0 1-10.454 10.454 10.457 10.457 0 0 1-10.452-10.455zm576.522-1.059a1.333 1.333 0 0 1 1.333-1.333 1.332 1.332 0 0 1 1.332 1.333 1.332 1.332 0 0 1-1.332 1.331 1.332 1.332 0 0 1-1.328-1.332zm-425.314-7.1a4.919 4.919 0 0 1 4.923-4.916 4.915 4.915 0 0 1 4.917 4.916 4.92 4.92 0 0 1-4.917 4.922 4.924 4.924 0 0 1-4.918-4.92zm75.4 1.787a1.639 1.639 0 0 1 1.639-1.64 1.637 1.637 0 0 1 1.637 1.64 1.642 1.642 0 0 1-1.637 1.644 1.644 1.644 0 0 1-1.632-1.64zm91.479 0a1.536 1.536 0 0 1 1.542-1.534 1.529 1.529 0 0 1 1.533 1.534 1.535 1.535 0 0 1-1.533 1.54 1.542 1.542 0 0 1-1.535-1.536zm-264.965-11.464a11.487 11.487 0 0 1 11.484-11.483 11.481 11.481 0 0 1 11.477 11.483 11.476 11.476 0 0 1-11.477 11.476 11.481 11.481 0 0 1-11.477-11.474zm219.277 4.232a1.54 1.54 0 0 1 1.535-1.54 1.542 1.542 0 0 1 1.54 1.54 1.536 1.536 0 0 1-1.54 1.534 1.534 1.534 0 0 1-1.528-1.532zm95.75-8.194a4.817 4.817 0 0 1 4.819-4.816 4.815 4.815 0 0 1 4.815 4.816 4.816 4.816 0 0 1-4.815 4.818 4.817 4.817 0 0 1-4.815-4.816zm-388.869-.135a.92.92 0 0 1 .917-.917.921.921 0 0 1 .924.917.922.922 0 0 1-.924.923.921.921 0 0 1-.91-.921zm138.055-8.637a8.2 8.2 0 0 1 8.2-8.2 8.2 8.2 0 0 1 8.2 8.2 8.2 8.2 0 0 1-8.2 8.2 8.2 8.2 0 0 1-8.193-8.198zm297.007 0a7.994 7.994 0 0 1 8-7.99 7.992 7.992 0 0 1 8 7.99 7.993 7.993 0 0 1-8 8 8 8 0 0 1-7.989-7.998zm43.279-5.421a11.172 11.172 0 0 1 11.17-11.169 11.173 11.173 0 0 1 11.174 11.169 11.174 11.174 0 0 1-11.174 11.175 11.174 11.174 0 0 1-11.163-11.172zm-267.3 3.011a4.92 4.92 0 0 1 4.92-4.92 4.919 4.919 0 0 1 4.919 4.92 4.919 4.919 0 0 1-4.919 4.919 4.92 4.92 0 0 1-4.91-4.916zm311.884-6.584a10.964 10.964 0 0 1 10.964-10.965 10.97 10.97 0 0 1 10.972 10.965 10.971 10.971 0 0 1-10.972 10.965 10.965 10.965 0 0 1-10.954-10.962zm-477.961 0a10.451 10.451 0 0 1 10.454-10.454 10.456 10.456 0 0 1 10.455 10.454 10.457 10.457 0 0 1-10.455 10.454 10.452 10.452 0 0 1-10.445-10.451zm301.985-1.959a4.817 4.817 0 0 1 4.818-4.818 4.818 4.818 0 0 1 4.818 4.818 4.818 4.818 0 0 1-4.818 4.817 4.817 4.817 0 0 1-4.808-4.814zm228.5-.518a1.332 1.332 0 0 1 1.331-1.33 1.333 1.333 0 0 1 1.331 1.33 1.33 1.33 0 0 1-1.331 1.331 1.329 1.329 0 0 1-1.321-1.329zM5620.194-1380a11.482 11.482 0 0 1 11.486-11.475 11.475 11.475 0 0 1 11.477 11.475 11.482 11.482 0 0 1-11.477 11.483 11.489 11.489 0 0 1-11.486-11.483zm150.744 5.478a4.919 4.919 0 0 1 4.92-4.921 4.918 4.918 0 0 1 4.918 4.921 4.917 4.917 0 0 1-4.918 4.919 4.919 4.919 0 0 1-4.92-4.921zm46.339-2.909a4.817 4.817 0 0 1 4.818-4.817 4.817 4.817 0 0 1 4.817 4.817 4.818 4.818 0 0 1-4.817 4.818 4.819 4.819 0 0 1-4.817-4.82zm-125.883-7.613a8.2 8.2 0 0 1 8.2-8.2 8.2 8.2 0 0 1 8.2 8.2 8.2 8.2 0 0 1-8.2 8.2 8.2 8.2 0 0 1-8.194-8.202zm221.994 0a8 8 0 0 1 7.991-8 8 8 0 0 1 8 8 8 8 0 0 1-8 7.99 7.994 7.994 0 0 1-7.99-7.992zm47.154-10.227a11.272 11.272 0 0 1 11.274-11.273 11.272 11.272 0 0 1 11.275 11.273 11.275 11.275 0 0 1-11.274 11.271 11.275 11.275 0 0 1-11.274-11.273zm-420.115 6.752a.925.925 0 0 1 .916-.925.927.927 0 0 1 .924.925.922.922 0 0 1-.924.923.92.92 0 0 1-.914-.924zm468.192-13.552a10.969 10.969 0 0 1 10.973-10.972 10.968 10.968 0 0 1 10.967 10.972 10.967 10.967 0 0 1-10.967 10.965 10.968 10.968 0 0 1-10.971-10.967zm-417.688 0a10.458 10.458 0 0 1 10.454-10.461 10.456 10.456 0 0 1 10.456 10.461 10.454 10.454 0 0 1-10.456 10.454 10.457 10.457 0 0 1-10.452-10.456zm142.823-1.831a8.2 8.2 0 0 1 8.2-8.2 8.2 8.2 0 0 1 8.2 8.2 8.2 8.2 0 0 1-8.2 8.2 8.2 8.2 0 0 1-8.198-8.198zm137.174 0a8.1 8.1 0 0 1 8.095-8.1 8.1 8.1 0 0 1 8.1 8.1 8.1 8.1 0 0 1-8.1 8.1 8.093 8.093 0 0 1-8.093-8.098zm-214.463-5.016a11.481 11.481 0 0 1 11.48-11.48 11.48 11.48 0 0 1 11.479 11.48 11.479 11.479 0 0 1-11.479 11.479 11.481 11.481 0 0 1-11.479-11.48zm169.108-4.625a8.1 8.1 0 0 1 8.1-8.1 8.1 8.1 0 0 1 8.1 8.1 8.1 8.1 0 0 1-8.1 8.1 8.1 8.1 0 0 1-8.098-8.101zm-46.366 0a8.1 8.1 0 0 1 8.1-8.1 8.1 8.1 0 0 1 8.1 8.1 8.1 8.1 0 0 1-8.1 8.1 8.1 8.1 0 0 1-8.098-8.101zm284.8 6.728a1.33 1.33 0 0 1 1.331-1.331 1.334 1.334 0 0 1 1.332 1.331 1.329 1.329 0 0 1-1.332 1.33 1.325 1.325 0 0 1-1.333-1.332zm-142.174-14.008a11.275 11.275 0 0 1 11.267-11.277 11.276 11.276 0 0 1 11.274 11.279 11.275 11.275 0 0 1-11.274 11.273 11.275 11.275 0 0 1-11.269-11.277zm-224.517-10.077a11.476 11.476 0 0 1 11.477-11.477 11.477 11.477 0 0 1 11.483 11.477 11.477 11.477 0 0 1-11.483 11.481 11.476 11.476 0 0 1-11.477-11.481zm276.122-1.307a10.869 10.869 0 0 1 10.867-10.867 10.87 10.87 0 0 1 10.869 10.867 10.865 10.865 0 0 1-10.869 10.861 10.864 10.864 0 0 1-10.867-10.863zm-347.216 0a10.455 10.455 0 0 1 10.454-10.454 10.456 10.456 0 0 1 10.455 10.454 10.456 10.456 0 0 1-10.455 10.454 10.455 10.455 0 0 1-10.454-10.456zm-55.963 8.137a.921.921 0 0 1 .922-.923.922.922 0 0 1 .924.923.922.922 0 0 1-.924.925.921.921 0 0 1-.922-.927zm308.813-14.985a11.376 11.376 0 0 1 11.378-11.377 11.378 11.378 0 0 1 11.377 11.377 11.377 11.377 0 0 1-11.377 11.376 11.375 11.375 0 0 1-11.378-11.378zm-137.535-6.176a11.377 11.377 0 0 1 11.377-11.377 11.378 11.378 0 0 1 11.377 11.377 11.377 11.377 0 0 1-11.377 11.376 11.375 11.375 0 0 1-11.377-11.379zm92.309-4.146a11.378 11.378 0 0 1 11.378-11.376 11.379 11.379 0 0 1 11.379 11.376 11.379 11.379 0 0 1-11.379 11.377 11.378 11.378 0 0 1-11.378-11.38zm198.02 9.181a1.231 1.231 0 0 1 1.227-1.231 1.231 1.231 0 0 1 1.231 1.231 1.226 1.226 0 0 1-1.231 1.226 1.226 1.226 0 0 1-1.228-1.23zm-244.366-11.265a11.378 11.378 0 0 1 11.377-11.376 11.376 11.376 0 0 1 11.377 11.376 11.376 11.376 0 0 1-11.377 11.377 11.378 11.378 0 0 1-11.377-11.377zm146.475-5a10.767 10.767 0 0 1 10.762-10.762 10.765 10.765 0 0 1 10.764 10.762 10.761 10.761 0 0 1-10.764 10.763 10.762 10.762 0 0 1-10.758-10.759zm-268.193 0a10.456 10.456 0 0 1 10.455-10.454 10.456 10.456 0 0 1 10.454 10.454A10.452 10.452 0 0 1 5676.24-1446a10.453 10.453 0 0 1-10.455-10.457zm-61.034 1.332a.923.923 0 0 1 .925-.925.921.921 0 0 1 .917.925.92.92 0 0 1-.917.923.922.922 0 0 1-.922-.919zm286.355-19.085a10.765 10.765 0 0 1 10.764-10.762 10.762 10.762 0 0 1 10.762 10.762 10.762 10.762 0 0 1-10.762 10.762 10.765 10.765 0 0 1-10.761-10.758zm-182.448 0a10.453 10.453 0 0 1 10.455-10.454 10.456 10.456 0 0 1 10.453 10.454 10.455 10.455 0 0 1-10.453 10.454 10.452 10.452 0 0 1-10.452-10.45zm286.633 5.44a1.232 1.232 0 0 1 1.232-1.233 1.227 1.227 0 0 1 1.228 1.233 1.226 1.226 0 0 1-1.228 1.226 1.23 1.23 0 0 1-1.229-1.222zm-149.2-16.27a10.663 10.663 0 0 1 10.658-10.663 10.663 10.663 0 0 1 10.664 10.663 10.662 10.662 0 0 1-10.664 10.658 10.662 10.662 0 0 1-10.655-10.654zm-92.417 0a10.557 10.557 0 0 1 10.561-10.558 10.555 10.555 0 0 1 10.552 10.558 10.554 10.554 0 0 1-10.552 10.552 10.555 10.555 0 0 1-10.559-10.548zm46.26-3.642a10.557 10.557 0 0 1 10.558-10.557 10.558 10.558 0 0 1 10.556 10.557 10.558 10.558 0 0 1-10.556 10.557 10.557 10.557 0 0 1-10.555-10.553zm-156.7 7.6a.919.919 0 0 1 .916-.919.921.921 0 0 1 .924.919.922.922 0 0 1-.924.923.92.92 0 0 1-.915-.915zm311.967-10.9a1.128 1.128 0 0 1 1.127-1.127 1.127 1.127 0 0 1 1.127 1.127 1.126 1.126 0 0 1-1.127 1.128 1.127 1.127 0 0 1-1.125-1.12zm-270.359-9.442a1.03 1.03 0 0 1 1.029-1.027 1.024 1.024 0 0 1 1.022 1.027 1.02 1.02 0 0 1-1.022 1.023 1.025 1.025 0 0 1-1.028-1.015zm227.325-7.941a1.127 1.127 0 0 1 1.127-1.127 1.127 1.127 0 0 1 1.127 1.127 1.127 1.127 0 0 1-1.127 1.128 1.128 1.128 0 0 1-1.126-1.12zm-183.181-6.4a1.025 1.025 0 0 1 1.026-1.025 1.025 1.025 0 0 1 1.024 1.025 1.025 1.025 0 0 1-1.024 1.024 1.025 1.025 0 0 1-1.025-1.018zm138.146-4.828a1.127 1.127 0 0 1 1.127-1.127 1.133 1.133 0 0 1 1.133 1.127 1.133 1.133 0 0 1-1.133 1.127 1.128 1.128 0 0 1-1.126-1.121zm-92.439-3.231a1.026 1.026 0 0 1 1.026-1.025 1.026 1.026 0 0 1 1.025 1.025 1.026 1.026 0 0 1-1.025 1.026 1.026 1.026 0 0 1-1.026-1.02zm46.387-1.616a1.026 1.026 0 0 1 1.023-1.029 1.025 1.025 0 0 1 1.022 1.029 1.019 1.019 0 0 1-1.022 1.022 1.019 1.019 0 0 1-1.022-1.016z" transform="translate(-5477.101 1526.967)"/>
</svg>
