<svg xmlns="http://www.w3.org/2000/svg" width="60" height="60" viewBox="0 0 60 60">
    <defs>
        <style>
            .cls-1{fill:#47a836}
        </style>
    </defs>
    <g id="money-finance-financial-tool-network" transform="translate(-2 -2)">
        <path id="Path_2501" d="M61.16 26.01l-6.21-1.03a23.839 23.839 0 0 0-1.76-4.24l3.67-5.13a1.015 1.015 0 0 0-.11-1.29l-7.07-7.07a1 1 0 0 0-1.29-.11l-5.13 3.67a23.839 23.839 0 0 0-4.24-1.76l-1.03-6.21A1 1 0 0 0 37 2H27a1 1 0 0 0-.99.84l-1.03 6.21a23.839 23.839 0 0 0-4.24 1.76l-5.13-3.67a1 1 0 0 0-1.29.11l-7.07 7.07a1.015 1.015 0 0 0-.11 1.29l3.67 5.13a23.839 23.839 0 0 0-1.76 4.24l-6.21 1.03A1 1 0 0 0 2 27v10a1 1 0 0 0 .84.99l6.21 1.03a23.839 23.839 0 0 0 1.76 4.24l-3.67 5.13a1.015 1.015 0 0 0 .11 1.29l7.07 7.07a1.015 1.015 0 0 0 1.29.11l5.13-3.67a23.839 23.839 0 0 0 4.24 1.76l1.03 6.21A1 1 0 0 0 27 62h10a1 1 0 0 0 .99-.84l1.03-6.21a23.839 23.839 0 0 0 4.24-1.76l5.13 3.67a1.015 1.015 0 0 0 1.29-.11l7.07-7.07a1.015 1.015 0 0 0 .11-1.29l-3.67-5.13a23.838 23.838 0 0 0 1.76-4.24l6.21-1.03A1 1 0 0 0 62 37V27a1 1 0 0 0-.84-.99zM60 36.15l-6 1a1.018 1.018 0 0 0-.8.72 21.636 21.636 0 0 1-2.06 4.97.99.99 0 0 0 .06 1.07l3.54 4.95-5.88 5.88-4.95-3.54a.99.99 0 0 0-1.07-.06 22.009 22.009 0 0 1-4.97 2.06 1.032 1.032 0 0 0-.72.8l-1 6h-8.3l-1-6a1.032 1.032 0 0 0-.72-.8 22.009 22.009 0 0 1-4.97-2.06.99.99 0 0 0-1.07.06l-4.95 3.54-5.88-5.88 3.54-4.95a.99.99 0 0 0 .06-1.07 21.636 21.636 0 0 1-2.06-4.97 1.018 1.018 0 0 0-.8-.72l-6-1v-8.3l6-1a1.018 1.018 0 0 0 .8-.72 21.636 21.636 0 0 1 2.06-4.97.99.99 0 0 0-.06-1.07l-3.54-4.95 5.88-5.88 4.95 3.54a.99.99 0 0 0 1.07.06 22.009 22.009 0 0 1 4.97-2.06 1.032 1.032 0 0 0 .72-.8l1-6h8.3l1 6a1.032 1.032 0 0 0 .72.8 22.009 22.009 0 0 1 4.97 2.06.99.99 0 0 0 1.07-.06l4.95-3.54 5.88 5.88-3.54 4.95a.99.99 0 0 0-.06 1.07 21.636 21.636 0 0 1 2.06 4.97 1.018 1.018 0 0 0 .8.72l6 1z" class="cls-1"/>
        <path id="Path_2502" d="M55 29a3.01 3.01 0 0 0-2.82 2h-5.23a14.971 14.971 0 0 0-3.67-8.86l3.43-3.44a3.023 3.023 0 1 0-1.41-1.41l-3.44 3.43A14.971 14.971 0 0 0 33 17.05v-5.23a3 3 0 1 0-2 0v5.23a14.971 14.971 0 0 0-8.86 3.67l-3.44-3.43a3.023 3.023 0 1 0-1.41 1.41l3.43 3.44A14.971 14.971 0 0 0 17.05 31h-5.23a3 3 0 1 0 0 2h5.23a14.971 14.971 0 0 0 3.67 8.86l-3.43 3.44a3.023 3.023 0 1 0 1.41 1.41l3.44-3.43A14.971 14.971 0 0 0 31 46.95v5.23a3 3 0 1 0 2 0v-5.23a14.971 14.971 0 0 0 8.86-3.67l3.44 3.43a3.023 3.023 0 1 0 1.41-1.41l-3.43-3.44A14.971 14.971 0 0 0 46.95 33h5.23A3 3 0 1 0 55 29zm-7-14a1 1 0 1 1-1 1 1 1 0 0 1 1-1zm-32 2a1 1 0 1 1 1-1 1 1 0 0 1-1 1zM9 33a1 1 0 1 1 1-1 1 1 0 0 1-1 1zm7 16a1 1 0 1 1 1-1 1 1 0 0 1-1 1zm32-2a1 1 0 1 1-1 1 1 1 0 0 1 1-1zM32 8a1 1 0 1 1-1 1 1 1 0 0 1 1-1zm0 48a1 1 0 1 1 1-1 1 1 0 0 1-1 1zm0-11a13 13 0 1 1 13-13 13 13 0 0 1-13 13zm23-12a1 1 0 1 1 1-1 1 1 0 0 1-1 1z" class="cls-1"/>
        <path id="Path_2503" d="M32 25a3 3 0 0 1 3 3 1 1 0 0 0 2 0 5.009 5.009 0 0 0-4-4.9V22a1 1 0 0 0-2 0v1.1a5 5 0 0 0 1 9.9 3 3 0 1 1-3 3 1 1 0 0 0-2 0 5.009 5.009 0 0 0 4 4.9V42a1 1 0 0 0 2 0v-1.1a5 5 0 0 0-1-9.9 3 3 0 0 1 0-6z" class="cls-1"/>
        <path id="Path_2504" d="M4 8h2V6h2V4H6V2H4v2H2v2h2z" class="cls-1"/>
        <path id="Path_2505" d="M60 4V2h-2v2h-2v2h2v2h2V6h2V4z" class="cls-1"/>
        <path id="Path_2506" d="M6 56H4v2H2v2h2v2h2v-2h2v-2H6z" class="cls-1"/>
        <path id="Path_2507" d="M60 56h-2v2h-2v2h2v2h2v-2h2v-2h-2z" class="cls-1"/>
    </g>
</svg>
