<?xml version="1.0" encoding="UTF-8" standalone="no"?>
<!DOCTYPE svg PUBLIC "-//W3C//DTD SVG 1.1//EN" "http://www.w3.org/Graphics/SVG/1.1/DTD/svg11.dtd">
<svg version="1.1" xmlns="http://www.w3.org/2000/svg" xmlns:xlink="http://www.w3.org/1999/xlink" preserveAspectRatio="xMidYMid meet" viewBox="0 0 640 640" width="640" height="640"><defs><path d="M189.64 366.69C189.73 366.69 189.8 366.77 189.8 366.86C189.8 366.86 189.8 366.86 189.8 366.86C189.8 366.96 189.73 367.03 189.64 367.03C189.55 367.03 189.47 366.96 189.47 366.86C189.47 366.77 189.54 366.69 189.64 366.69ZM164.1 365.8C164.1 365.8 164.1 365.8 164.1 365.8C164.2 365.8 164.27 365.87 164.27 365.97C164.27 365.97 164.27 365.97 164.27 365.97C164.27 366.06 164.2 366.14 164.1 366.14C164.02 366.14 163.94 366.06 163.94 365.97C163.93 365.88 164.01 365.8 164.1 365.8ZM215.03 364.02C215.04 364.02 215.04 364.02 215.04 364.02C215.13 364.03 215.21 364.1 215.21 364.19C215.21 364.29 215.13 364.36 215.04 364.36C214.95 364.36 214.87 364.29 214.87 364.19C214.87 364.19 214.87 364.19 214.87 364.19C214.87 364.1 214.94 364.02 215.03 364.02ZM138.94 361.37C138.95 361.37 138.95 361.37 138.95 361.37C139.04 361.37 139.12 361.44 139.12 361.53C139.12 361.53 139.12 361.54 139.12 361.54C139.12 361.63 139.04 361.71 138.95 361.71C138.95 361.71 138.95 361.71 138.95 361.71C138.86 361.7 138.79 361.63 138.79 361.54C138.78 361.45 138.85 361.37 138.94 361.37ZM239.82 357.85C239.82 357.85 239.82 357.85 239.82 357.85C239.91 357.85 239.99 357.92 239.99 358.01C239.99 358.11 239.91 358.18 239.82 358.19C239.73 358.18 239.66 358.11 239.66 358.01C239.65 357.92 239.73 357.85 239.82 357.85ZM114.66 353.48C114.75 353.48 114.83 353.55 114.83 353.65C114.83 353.74 114.75 353.82 114.66 353.82C114.57 353.81 114.5 353.74 114.49 353.65C114.49 353.55 114.57 353.48 114.66 353.48ZM263.5 348.29C263.5 348.29 263.5 348.29 263.5 348.29C263.6 348.29 263.67 348.36 263.67 348.45C263.67 348.55 263.6 348.62 263.5 348.62C263.41 348.62 263.34 348.55 263.34 348.45C263.33 348.36 263.41 348.29 263.5 348.29ZM183.25 345.4C183.93 345.4 184.49 345.95 184.49 346.64C184.49 346.64 184.49 346.64 184.49 346.64C184.49 347.32 183.94 347.88 183.25 347.88C183.25 347.88 183.25 347.88 183.25 347.88C182.56 347.88 182.01 347.33 182.01 346.64C182.01 345.96 182.56 345.4 183.25 345.4ZM208.7 343.4C208.7 343.4 208.7 343.4 208.71 343.4C209.39 343.4 209.95 343.96 209.95 344.64C209.95 344.64 209.95 344.64 209.95 344.65C209.95 345.33 209.39 345.88 208.71 345.88C208.02 345.88 207.47 345.33 207.47 344.65C207.47 344.64 207.47 344.64 207.47 344.64C207.46 343.96 208.02 343.41 208.7 343.4ZM157.79 343.46C158.44 343.46 158.97 343.99 158.97 344.65C158.97 344.65 158.97 344.65 158.97 344.65C158.97 345.3 158.45 345.83 157.79 345.83C157.79 345.83 157.79 345.83 157.79 345.83C157.14 345.83 156.6 345.3 156.6 344.64C156.6 344.64 156.6 344.64 156.6 344.64C156.6 343.99 157.13 343.46 157.79 343.46ZM91.71 342.35C91.71 342.35 91.71 342.35 91.71 342.35C91.77 342.35 91.82 342.4 91.82 342.46C91.82 342.52 91.77 342.57 91.71 342.57C91.64 342.57 91.59 342.52 91.59 342.46C91.59 342.46 91.59 342.46 91.59 342.46C91.59 342.4 91.64 342.35 91.71 342.35ZM233.54 337.5C234.19 337.5 234.72 338.03 234.72 338.68C234.72 338.68 234.72 338.68 234.72 338.68C234.72 339.33 234.19 339.87 233.54 339.87C233.54 339.87 233.54 339.87 233.54 339.87C232.88 339.87 232.35 339.33 232.35 338.68C232.35 338.68 232.35 338.68 232.35 338.68C232.35 338.03 232.88 337.5 233.54 337.5ZM132.95 337.5C132.96 337.5 132.96 337.5 132.96 337.5C133.61 337.5 134.14 338.03 134.14 338.68C134.14 338.68 134.14 338.68 134.14 338.68C134.14 339.33 133.61 339.87 132.96 339.87C132.96 339.87 132.96 339.87 132.96 339.87C132.31 339.87 131.78 339.34 131.78 338.68C131.78 338.68 131.78 338.68 131.78 338.68C131.78 338.03 132.3 337.5 132.95 337.5ZM285.63 335.52C285.63 335.52 285.63 335.52 285.63 335.52C285.72 335.52 285.79 335.59 285.79 335.69C285.79 335.78 285.72 335.86 285.63 335.86C285.53 335.86 285.46 335.78 285.46 335.69C285.46 335.69 285.46 335.69 285.46 335.69C285.46 335.59 285.53 335.52 285.63 335.52ZM257.13 327.67C257.13 327.67 257.13 327.67 257.13 327.67C257.81 327.66 258.37 328.22 258.37 328.9C258.37 328.9 258.37 328.91 258.37 328.91C258.37 329.59 257.82 330.15 257.13 330.15C257.13 330.15 257.13 330.15 257.13 330.15C256.44 330.15 255.89 329.59 255.89 328.91C255.89 328.91 255.89 328.91 255.89 328.91C255.89 328.22 256.44 327.67 257.13 327.67ZM109.36 327.73C109.36 327.73 109.36 327.73 109.37 327.73C110.02 327.72 110.55 328.25 110.55 328.9C110.55 328.9 110.55 328.9 110.55 328.91C110.55 329.56 110.02 330.09 109.37 330.09C109.37 330.09 109.37 330.09 109.37 330.09C108.71 330.09 108.18 329.56 108.18 328.91C108.18 328.91 108.18 328.91 108.18 328.91C108.18 328.26 108.71 327.73 109.36 327.73ZM176.86 323.79C176.86 323.79 176.86 323.79 176.86 323.79C178.17 323.8 179.23 324.85 179.23 326.16C179.23 327.47 178.17 328.53 176.86 328.53C175.56 328.53 174.49 327.47 174.49 326.16C174.49 326.16 174.49 326.16 174.49 326.16C174.49 324.85 175.55 323.79 176.86 323.79ZM70.53 328.06C70.59 328.06 70.64 328.11 70.64 328.17C70.64 328.17 70.64 328.18 70.64 328.18C70.64 328.24 70.6 328.29 70.54 328.29C70.54 328.29 70.53 328.29 70.53 328.29C70.47 328.29 70.42 328.24 70.42 328.18C70.42 328.18 70.42 328.18 70.42 328.18C70.42 328.11 70.47 328.06 70.53 328.06ZM202.37 322.64C203.67 322.65 204.73 323.71 204.73 325.02C204.73 325.02 204.73 325.02 204.73 325.02C204.73 326.32 203.67 327.38 202.37 327.38C201.06 327.38 200 326.33 199.99 325.02C199.99 323.71 201.06 322.65 202.37 322.64ZM151.56 320.37C151.56 320.37 151.56 320.37 151.56 320.37C152.87 320.37 153.93 321.43 153.93 322.73C153.93 324.04 152.87 325.1 151.56 325.1C150.25 325.1 149.19 324.04 149.19 322.74C149.19 321.43 150.25 320.37 151.56 320.37ZM227.25 316.97C228.56 316.97 229.62 318.03 229.62 319.34C229.62 319.34 229.62 319.34 229.62 319.34C229.62 320.65 228.56 321.71 227.25 321.71C227.25 321.71 227.25 321.71 227.25 321.71C225.94 321.71 224.88 320.65 224.88 319.34C224.88 318.03 225.94 316.97 227.25 316.97ZM305.75 319.8C305.85 319.8 305.92 319.87 305.92 319.97C305.92 320.06 305.85 320.14 305.75 320.14C305.66 320.14 305.59 320.06 305.59 319.97C305.58 319.87 305.66 319.8 305.75 319.8ZM127.28 312.54C127.28 312.54 127.28 312.54 127.28 312.54C128.56 312.54 129.59 313.58 129.6 314.85C129.59 316.13 128.56 317.16 127.28 317.17C126.01 317.17 124.97 316.13 124.97 314.85C124.97 313.58 126 312.54 127.28 312.54ZM278.9 314.39C279.56 314.39 280.09 314.92 280.09 315.57C280.09 316.23 279.56 316.76 278.9 316.76C278.25 316.76 277.72 316.23 277.72 315.57C277.72 314.92 278.25 314.39 278.9 314.39ZM87.59 314.45C87.59 314.45 87.59 314.45 87.59 314.45C88.21 314.45 88.72 314.95 88.72 315.57C88.72 316.2 88.21 316.7 87.59 316.7C86.97 316.7 86.46 316.2 86.46 315.57C86.46 315.57 86.46 315.57 86.46 315.57C86.46 314.95 86.97 314.45 87.59 314.45ZM250.72 306.95C250.73 306.95 250.73 306.95 250.73 306.95C252.04 306.95 253.1 308.01 253.1 309.31C253.1 310.62 252.04 311.68 250.73 311.68C249.42 311.68 248.36 310.62 248.35 309.32C248.35 309.31 248.35 309.31 248.35 309.31C248.36 308 249.42 306.95 250.72 306.95ZM51.55 310.98C51.55 310.98 51.55 310.98 51.55 310.98C51.61 310.98 51.66 311.03 51.66 311.09C51.66 311.15 51.62 311.21 51.55 311.21C51.55 311.21 51.55 311.21 51.55 311.21C51.49 311.21 51.44 311.16 51.44 311.1C51.44 311.1 51.44 311.1 51.44 311.09C51.44 311.03 51.49 310.98 51.55 310.98ZM196.01 301.76C197.97 301.76 199.56 303.35 199.56 305.31C199.56 307.27 197.97 308.86 196.01 308.86C194.05 308.86 192.45 307.27 192.45 305.3C192.45 305.3 192.45 305.3 192.45 305.3C192.46 303.35 194.05 301.76 196.01 301.76ZM170.49 301.82C172.42 301.82 173.98 303.38 173.98 305.31C173.99 307.24 172.43 308.8 170.5 308.81C170.5 308.81 170.49 308.81 170.49 308.81C168.56 308.81 166.99 307.24 166.99 305.31C166.99 305.31 166.99 305.31 166.99 305.3C166.99 303.38 168.56 301.81 170.49 301.82ZM104.8 300.46C104.8 300.46 104.8 300.46 104.8 300.46C106.07 300.45 107.11 301.48 107.11 302.76C107.11 302.76 107.11 302.76 107.11 302.76C107.11 304.04 106.09 305.07 104.81 305.08C104.81 305.08 104.81 305.08 104.8 305.08C103.53 305.08 102.49 304.05 102.49 302.77C102.49 302.77 102.49 302.76 102.49 302.76C102.49 301.49 103.52 300.46 104.8 300.46ZM220.97 296.45C222.93 296.45 224.52 298.04 224.52 300.01C224.52 301.97 222.93 303.56 220.97 303.56C219 303.56 217.41 301.97 217.41 300C217.41 298.04 219 296.45 220.97 296.45ZM145.53 296.51C147.46 296.51 149.03 298.07 149.03 300.01C149.03 300.01 149.03 300.01 149.03 300.01C149.03 301.94 147.46 303.5 145.53 303.5C143.6 303.5 142.04 301.94 142.04 300.01C142.04 300.01 142.04 300 142.04 300C142.04 298.08 143.6 296.51 145.53 296.51ZM323.49 301.44C323.5 301.44 323.5 301.44 323.5 301.44C323.59 301.44 323.66 301.51 323.67 301.6C323.67 301.7 323.59 301.77 323.5 301.77C323.4 301.77 323.33 301.7 323.33 301.6C323.33 301.6 323.33 301.6 323.33 301.6C323.33 301.51 323.4 301.44 323.49 301.44ZM298.32 297.76C298.32 297.76 298.32 297.76 298.32 297.76C299.01 297.76 299.56 298.31 299.57 299C299.57 299 299.57 299 299.57 299C299.56 299.68 299.01 300.24 298.32 300.24C298.32 300.24 298.32 300.24 298.32 300.24C297.64 300.24 297.08 299.68 297.08 299C297.08 299 297.08 299 297.08 299C297.08 298.32 297.64 297.76 298.32 297.76ZM68.17 297.87C68.17 297.87 68.17 297.87 68.17 297.87C68.8 297.87 69.3 298.37 69.3 298.99C69.3 299 69.3 299 69.3 299C69.3 299.62 68.8 300.12 68.18 300.13C68.18 300.13 68.18 300.13 68.17 300.13C67.55 300.13 67.05 299.62 67.05 299C67.05 299 67.05 299 67.05 299C67.05 298.38 67.55 297.87 68.17 297.87ZM272.03 292.89C272.03 292.89 272.03 292.89 272.03 292.89C273.34 292.89 274.4 293.95 274.4 295.26C274.4 295.26 274.4 295.26 274.4 295.26C274.4 296.56 273.34 297.62 272.03 297.62C272.03 297.62 272.03 297.62 272.03 297.62C270.73 297.62 269.66 296.57 269.66 295.26C269.66 295.26 269.66 295.26 269.66 295.26C269.66 293.95 270.72 292.89 272.03 292.89ZM244.28 286.08C246.24 286.08 247.83 287.67 247.83 289.63C247.83 291.59 246.24 293.18 244.28 293.18C242.31 293.18 240.72 291.59 240.72 289.63C240.72 287.67 242.31 286.08 244.28 286.08ZM122.22 286.14C124.15 286.14 125.71 287.7 125.71 289.63C125.71 291.56 124.15 293.12 122.22 293.13C120.29 293.12 118.72 291.56 118.73 289.63C118.73 287.7 120.29 286.14 122.22 286.14ZM35.13 291.43C35.19 291.43 35.24 291.48 35.24 291.54C35.24 291.6 35.2 291.65 35.14 291.65C35.14 291.65 35.13 291.65 35.13 291.65C35.07 291.65 35.02 291.61 35.02 291.55C35.02 291.54 35.02 291.54 35.02 291.54C35.02 291.48 35.07 291.43 35.13 291.43ZM189.64 280.76C192.22 280.76 194.32 282.86 194.32 285.44C194.32 285.44 194.32 285.44 194.32 285.44C194.32 288.03 192.22 290.12 189.64 290.12C189.64 290.12 189.64 290.12 189.64 290.12C187.05 290.12 184.96 288.03 184.95 285.45C184.95 285.44 184.95 285.44 184.95 285.44C184.95 282.86 187.05 280.76 189.64 280.76ZM84.84 284.54C84.84 284.54 84.84 284.54 84.84 284.54C86.11 284.54 87.15 285.57 87.15 286.85C87.15 286.85 87.15 286.85 87.15 286.85C87.15 288.13 86.12 289.16 84.85 289.16C84.84 289.16 84.84 289.16 84.84 289.16C83.56 289.16 82.53 288.13 82.53 286.85C82.53 286.85 82.53 286.85 82.53 286.85C82.53 285.58 83.56 284.54 84.84 284.54ZM164.19 279.16C166.77 279.16 168.87 281.25 168.87 283.84C168.87 286.42 166.78 288.52 164.19 288.52C164.19 288.52 164.19 288.52 164.19 288.52C161.6 288.52 159.51 286.42 159.51 283.84C159.51 283.84 159.51 283.84 159.51 283.84C159.51 281.26 161.6 279.16 164.19 279.16ZM214.68 275.99C217.26 275.99 219.36 278.08 219.36 280.67C219.36 283.25 217.26 285.34 214.68 285.35C212.1 285.35 210 283.25 210 280.67C210 280.67 210 280.66 210 280.66C210 278.08 212.1 275.99 214.68 275.99ZM338.51 280.78C338.6 280.78 338.68 280.86 338.68 280.95C338.68 281.04 338.6 281.12 338.51 281.12C338.41 281.12 338.34 281.04 338.34 280.95C338.34 280.86 338.42 280.78 338.51 280.78ZM314.91 278.4C315.56 278.4 316.09 278.93 316.09 279.59C316.09 280.24 315.56 280.77 314.91 280.78C314.91 280.78 314.91 280.78 314.91 280.78C314.25 280.77 313.72 280.24 313.72 279.59C313.72 278.93 314.25 278.4 314.91 278.4ZM51.59 278.46C51.59 278.46 51.59 278.46 51.59 278.46C52.21 278.46 52.72 278.97 52.72 279.59C52.72 280.21 52.21 280.71 51.59 280.71C50.97 280.72 50.46 280.21 50.46 279.59C50.46 279.59 50.46 279.59 50.46 279.59C50.46 278.97 50.97 278.46 51.59 278.46ZM139.94 271.29C139.94 271.29 139.94 271.29 139.94 271.29C142.52 271.29 144.62 273.38 144.62 275.96C144.62 275.96 144.62 275.96 144.62 275.96C144.62 278.55 142.53 280.64 139.94 280.64C139.94 280.64 139.94 280.64 139.94 280.64C137.36 280.64 135.26 278.55 135.26 275.97C135.26 275.97 135.26 275.96 135.26 275.96C135.26 273.38 137.36 271.29 139.94 271.29ZM290.48 275.25C291.79 275.25 292.85 276.31 292.85 277.62C292.85 278.93 291.79 279.99 290.48 279.99C290.48 279.99 290.48 279.99 290.48 279.99C289.18 279.99 288.11 278.93 288.11 277.62C288.11 277.62 288.11 277.62 288.11 277.62C288.11 276.31 289.17 275.25 290.48 275.25ZM264.92 271.09C266.88 271.08 268.47 272.68 268.48 274.64C268.47 276.6 266.88 278.19 264.92 278.19C264.92 278.19 264.92 278.19 264.92 278.19C262.96 278.19 261.37 276.6 261.36 274.64C261.37 272.68 262.95 271.09 264.92 271.09ZM101.57 271.14C101.57 271.14 101.57 271.14 101.57 271.14C103.51 271.14 105.07 272.7 105.07 274.64C105.07 274.64 105.07 274.64 105.07 274.64C105.07 276.57 103.5 278.13 101.57 278.13C99.65 278.13 98.08 276.57 98.08 274.64C98.08 274.64 98.08 274.64 98.08 274.64C98.08 272.71 99.64 271.14 101.57 271.14ZM237.75 265.14C240.33 265.13 242.43 267.23 242.43 269.81C242.43 272.4 240.33 274.5 237.75 274.5C235.16 274.49 233.07 272.4 233.07 269.81C233.07 267.23 235.16 265.13 237.75 265.14ZM183.24 259.44C183.24 259.44 183.25 259.44 183.25 259.44C186.49 259.44 189.11 262.07 189.11 265.31C189.11 268.55 186.49 271.17 183.25 271.17C180.01 271.17 177.39 268.55 177.39 265.31C177.38 262.07 180.01 259.44 183.24 259.44ZM21.6 269.77C21.66 269.77 21.71 269.83 21.71 269.89C21.71 269.95 21.66 270 21.6 270C21.54 270 21.48 269.95 21.48 269.89C21.48 269.89 21.48 269.89 21.48 269.89C21.48 269.82 21.53 269.77 21.6 269.77ZM68.04 265.32C68.04 265.32 68.05 265.32 68.05 265.32C69.33 265.32 70.36 266.36 70.36 267.64C70.36 267.64 70.36 267.64 70.36 267.64C70.36 268.91 69.32 269.95 68.05 269.95C66.77 269.95 65.73 268.91 65.73 267.64C65.73 267.64 65.73 267.64 65.73 267.64C65.73 266.36 66.77 265.32 68.04 265.32ZM208.39 255.46C208.39 255.46 208.39 255.46 208.39 255.46C211.63 255.46 214.26 258.08 214.26 261.32C214.26 261.32 214.26 261.32 214.26 261.32C214.26 264.56 211.64 267.19 208.4 267.19C208.4 267.19 208.39 267.19 208.39 267.19C205.15 267.19 202.53 264.57 202.52 261.33C202.52 261.33 202.52 261.32 202.52 261.32C202.53 258.09 205.15 255.46 208.39 255.46ZM158.1 255.52C158.1 255.52 158.1 255.52 158.1 255.52C161.31 255.52 163.91 258.11 163.91 261.32C163.91 261.32 163.91 261.32 163.91 261.32C163.91 264.53 161.31 267.14 158.1 267.14C158.1 267.14 158.1 267.14 158.1 267.14C154.9 267.13 152.3 264.53 152.3 261.32C152.3 258.12 154.89 255.52 158.1 255.52ZM118.41 257.68C120.97 257.68 123.04 259.75 123.04 262.31C123.04 262.31 123.04 262.31 123.04 262.31C123.04 264.86 120.97 266.93 118.41 266.93C118.41 266.93 118.41 266.93 118.41 266.93C115.86 266.93 113.79 264.86 113.78 262.31C113.78 262.31 113.78 262.31 113.78 262.31C113.79 259.75 115.86 257.68 118.41 257.68ZM305.49 254.61C306.8 254.61 307.86 255.66 307.86 256.97C307.86 256.97 307.86 256.97 307.86 256.97C307.86 258.28 306.8 259.34 305.49 259.34C305.49 259.34 305.49 259.34 305.49 259.34C304.18 259.34 303.12 258.28 303.12 256.98C303.12 256.97 303.12 256.97 303.12 256.97C303.12 255.67 304.18 254.61 305.49 254.61ZM281.99 252.13C283.95 252.13 285.55 253.72 285.55 255.68C285.55 257.65 283.95 259.23 281.99 259.23C280.03 259.23 278.44 257.64 278.44 255.68C278.44 255.68 278.44 255.68 278.44 255.68C278.44 253.72 280.03 252.13 281.99 252.13ZM84.5 252.25C84.5 252.25 84.5 252.25 84.5 252.25C86.4 252.24 87.94 253.78 87.94 255.68C87.94 255.68 87.94 255.68 87.94 255.68C87.94 257.58 86.4 259.12 84.5 259.12C84.5 259.12 84.5 259.12 84.5 259.12C82.61 259.12 81.07 257.58 81.07 255.68C81.06 253.79 82.6 252.25 84.5 252.25ZM328.25 256.58C328.94 256.58 329.49 257.14 329.49 257.82C329.49 258.51 328.94 259.06 328.25 259.06C328.25 259.06 328.25 259.06 328.25 259.06C327.56 259.06 327.01 258.51 327.01 257.82C327.01 257.82 327.01 257.82 327.01 257.82C327.01 257.14 327.56 256.58 328.25 256.58ZM38.25 256.7C38.87 256.7 39.37 257.2 39.37 257.82C39.38 258.45 38.87 258.95 38.25 258.95C38.25 258.95 38.25 258.95 38.25 258.95C37.62 258.95 37.12 258.45 37.12 257.82C37.12 257.2 37.62 256.7 38.25 256.7ZM350.5 258.24C350.59 258.24 350.67 258.31 350.67 258.4C350.67 258.4 350.67 258.4 350.67 258.4C350.67 258.49 350.6 258.57 350.51 258.57C350.51 258.57 350.5 258.57 350.5 258.57C350.41 258.57 350.33 258.5 350.33 258.41C350.33 258.4 350.33 258.4 350.33 258.4C350.33 258.31 350.41 258.24 350.5 258.24ZM257.39 248.89C257.39 248.89 257.39 248.89 257.39 248.89C259.98 248.89 262.07 250.98 262.07 253.57C262.07 253.57 262.07 253.57 262.07 253.57C262.07 256.15 259.98 258.25 257.4 258.25C257.4 258.25 257.39 258.25 257.39 258.25C254.81 258.25 252.71 256.16 252.71 253.58C252.71 253.57 252.71 253.57 252.71 253.57C252.71 250.99 254.8 248.89 257.39 248.89ZM231.08 243.91C234.31 243.91 236.94 246.54 236.94 249.78C236.94 253.01 234.32 255.64 231.08 255.64C231.08 255.64 231.08 255.64 231.08 255.64C227.84 255.64 225.21 253.02 225.21 249.79C225.21 249.78 225.21 249.78 225.21 249.77C225.21 246.54 227.84 243.91 231.08 243.91ZM135.42 243.96C138.63 243.97 141.23 246.57 141.23 249.78C141.23 252.98 138.63 255.58 135.42 255.58C132.21 255.58 129.61 252.98 129.61 249.77C129.61 246.57 132.21 243.97 135.42 243.96ZM176.87 237.71C180.7 237.71 183.8 240.81 183.81 244.64C183.81 244.64 183.81 244.64 183.81 244.64C183.81 248.47 180.7 251.57 176.87 251.57C176.87 251.57 176.87 251.57 176.87 251.57C173.04 251.57 169.94 248.47 169.94 244.64C169.93 240.81 173.04 237.71 176.87 237.71ZM202.1 235.06C202.11 235.06 202.11 235.06 202.11 235.06C205.94 235.05 209.04 238.16 209.04 241.99C209.04 241.99 209.04 241.99 209.04 241.99C209.05 245.82 205.94 248.92 202.11 248.92C202.11 248.92 202.11 248.92 202.11 248.92C198.28 248.93 195.17 245.82 195.17 241.99C195.17 241.99 195.17 241.99 195.17 241.98C195.17 238.16 198.27 235.05 202.1 235.06ZM100.96 239.11C103.52 239.11 105.59 241.18 105.59 243.73C105.59 243.73 105.59 243.73 105.59 243.73C105.59 246.29 103.52 248.36 100.97 248.35C100.96 248.35 100.96 248.35 100.96 248.35C98.41 248.36 96.34 246.29 96.33 243.74C96.33 243.73 96.33 243.73 96.33 243.73C96.34 241.18 98.41 239.11 100.96 239.11ZM54.95 243.42C54.95 243.42 54.95 243.42 54.95 243.42C56.23 243.42 57.27 244.45 57.27 245.72C57.27 245.73 57.27 245.73 57.27 245.73C57.27 247.01 56.23 248.04 54.95 248.04C53.68 248.04 52.64 247.01 52.64 245.73C52.64 244.45 53.67 243.42 54.95 243.42ZM11.21 246.45C11.27 246.45 11.32 246.5 11.32 246.56C11.32 246.63 11.27 246.67 11.21 246.67C11.15 246.68 11.09 246.63 11.09 246.56C11.09 246.5 11.15 246.45 11.21 246.45ZM152.72 229.92C152.73 229.92 152.73 229.92 152.74 229.92C156.54 229.91 159.62 232.99 159.62 236.78C159.62 236.79 159.62 236.79 159.62 236.8C159.62 240.6 156.54 243.68 152.74 243.68C148.94 243.68 145.86 240.6 145.86 236.8C145.86 236.8 145.86 236.8 145.86 236.8C145.85 233 148.93 229.92 152.72 229.92ZM249.07 225.91C249.07 225.91 249.07 225.91 249.07 225.91C252.31 225.91 254.94 228.54 254.94 231.78C254.94 231.78 254.94 231.78 254.94 231.78C254.94 235.02 252.31 237.64 249.07 237.64C245.84 237.64 243.21 235.02 243.21 231.78C243.21 228.54 245.83 225.91 249.07 225.91ZM272.37 228.27C274.96 228.27 277.06 230.36 277.06 232.95C277.06 235.53 274.96 237.63 272.38 237.63C272.38 237.63 272.38 237.63 272.37 237.63C269.79 237.63 267.7 235.53 267.7 232.95C267.7 230.36 269.79 228.27 272.37 228.27ZM117.42 226.03C120.59 226.03 123.17 228.6 123.17 231.78C123.17 234.96 120.59 237.53 117.42 237.53C114.24 237.53 111.67 234.95 111.67 231.78C111.66 228.6 114.24 226.03 117.42 226.03ZM294.74 230.04C294.74 230.04 294.74 230.04 294.74 230.04C296.71 230.04 298.3 231.62 298.31 233.59C298.31 233.59 298.31 233.59 298.31 233.59C298.3 235.56 296.71 237.15 294.75 237.14C294.75 237.14 294.74 237.14 294.74 237.14C292.79 237.14 291.2 235.55 291.2 233.6C291.2 231.63 292.78 230.04 294.74 230.04ZM71.74 230.15C73.64 230.15 75.18 231.69 75.18 233.59C75.18 233.59 75.18 233.59 75.18 233.59C75.18 235.49 73.65 237.03 71.75 237.03C71.75 237.03 71.75 237.03 71.74 237.03C69.85 237.03 68.31 235.49 68.3 233.6C68.31 231.69 69.85 230.15 71.74 230.15ZM316.56 231.62C317.87 231.62 318.93 232.67 318.93 233.97C318.93 233.98 318.93 233.98 318.93 233.98C318.93 235.29 317.87 236.35 316.56 236.35C315.26 236.35 314.2 235.29 314.19 233.98C314.19 232.67 315.26 231.62 316.56 231.62ZM224.08 222.37C224.08 222.37 224.08 222.37 224.08 222.37C227.91 222.37 231.01 225.47 231.02 229.29C231.02 229.3 231.02 229.3 231.02 229.3C231.02 233.13 227.91 236.24 224.08 236.24C224.08 236.24 224.08 236.24 224.08 236.24C220.25 236.23 217.15 233.13 217.15 229.31C217.14 225.47 220.25 222.37 224.08 222.37ZM338.02 233.05C338.02 233.05 338.02 233.05 338.02 233.05C338.67 233.05 339.2 233.58 339.2 234.24C339.2 234.89 338.67 235.42 338.02 235.42C337.37 235.42 336.84 234.89 336.84 234.24C336.83 233.58 337.36 233.05 338.02 233.05ZM28.47 233.11C29.09 233.11 29.59 233.61 29.6 234.23C29.6 234.86 29.09 235.36 28.47 235.36C28.47 235.36 28.47 235.36 28.47 235.36C27.85 235.36 27.35 234.85 27.35 234.24C27.34 233.61 27.85 233.11 28.47 233.11ZM359.23 234.24C359.32 234.24 359.4 234.32 359.4 234.41C359.4 234.51 359.32 234.58 359.23 234.58C359.23 234.58 359.23 234.58 359.23 234.58C359.14 234.58 359.07 234.51 359.07 234.42C359.06 234.32 359.13 234.25 359.23 234.24ZM170.67 218.36C173.04 218.36 174.96 220.28 174.96 222.65C174.96 225.01 173.04 226.93 170.67 226.93C170.67 226.93 170.67 226.93 170.67 226.93C168.31 226.93 166.39 225.01 166.39 222.64C166.39 220.28 168.31 218.36 170.67 218.36ZM195.81 218.48C195.81 218.48 195.81 218.48 195.82 218.48C198.12 218.48 199.99 220.35 199.99 222.65C199.99 224.95 198.12 226.82 195.82 226.82C193.51 226.82 191.65 224.95 191.65 222.65C191.64 220.35 193.51 218.48 195.81 218.48ZM133.87 212.95C137.67 212.95 140.76 216.03 140.76 219.83C140.76 223.63 137.67 226.71 133.87 226.71C130.08 226.71 127 223.63 127 219.83C126.99 216.03 130.07 212.95 133.87 212.95ZM88.68 216.77C88.68 216.77 88.68 216.77 88.68 216.77C91.23 216.77 93.3 218.84 93.3 221.4C93.3 223.95 91.23 226.02 88.68 226.02C88.68 226.02 88.68 226.02 88.68 226.02C86.12 226.02 84.05 223.95 84.05 221.4C84.05 218.84 86.12 216.77 88.68 216.77ZM45.97 219.59C47.22 219.58 48.23 220.58 48.23 221.83C48.23 221.83 48.23 221.83 48.23 221.84C48.23 223.08 47.22 224.09 45.98 224.1C45.98 224.1 45.97 224.1 45.97 224.1C44.73 224.09 43.73 223.08 43.73 221.84C43.72 220.59 44.73 219.59 45.97 219.59ZM4.15 221.91C4.16 221.91 4.16 221.91 4.16 221.91C4.22 221.91 4.27 221.96 4.27 222.01C4.27 222.02 4.27 222.02 4.27 222.02C4.27 222.08 4.22 222.13 4.16 222.13C4.1 222.13 4.05 222.08 4.05 222.02C4.05 221.96 4.09 221.91 4.15 221.91ZM238.99 201.85C238.99 201.85 238.99 201.85 238.99 201.85C242.82 201.85 245.93 204.95 245.93 208.78C245.93 208.78 245.93 208.78 245.93 208.78C245.93 212.61 242.82 215.72 238.99 215.72C235.16 215.72 232.06 212.61 232.06 208.78C232.06 204.95 235.16 201.85 238.99 201.85ZM260.63 203.24C263.87 203.24 266.49 205.87 266.5 209.11C266.5 212.34 263.87 214.97 260.64 214.97C260.63 214.97 260.63 214.97 260.63 214.97C257.39 214.97 254.77 212.34 254.77 209.11C254.77 209.11 254.77 209.11 254.77 209.11C254.76 205.87 257.39 203.24 260.63 203.24ZM105.85 203.36C109.03 203.35 111.61 205.93 111.61 209.1C111.61 209.1 111.61 209.11 111.61 209.11C111.61 212.28 109.03 214.86 105.86 214.86C105.85 214.86 105.85 214.86 105.85 214.86C102.68 214.85 100.11 212.28 100.1 209.11C100.1 205.93 102.68 203.36 105.85 203.36ZM281.76 204.58C284.34 204.58 286.44 206.67 286.44 209.25C286.44 211.84 284.34 213.93 281.76 213.93C281.76 213.93 281.76 213.93 281.76 213.93C279.18 213.93 277.08 211.84 277.08 209.26C277.08 206.67 279.17 204.58 281.76 204.58ZM302.63 205.78C302.63 205.78 302.63 205.78 302.63 205.78C304.59 205.78 306.18 207.37 306.18 209.33C306.18 209.34 306.18 209.34 306.18 209.34C306.18 211.3 304.59 212.89 302.63 212.89C302.63 212.89 302.63 212.89 302.63 212.89C300.67 212.89 299.08 211.3 299.08 209.34C299.08 207.38 300.67 205.78 302.63 205.78ZM63.85 205.9C63.85 205.9 63.85 205.9 63.86 205.9C65.75 205.9 67.29 207.43 67.29 209.33C67.29 209.33 67.29 209.34 67.29 209.34C67.3 211.23 65.76 212.77 63.86 212.78C63.86 212.78 63.86 212.78 63.86 212.78C61.96 212.77 60.42 211.23 60.42 209.34C60.42 209.34 60.42 209.34 60.42 209.34C60.41 207.44 61.95 205.9 63.85 205.9ZM150.33 203.42C150.33 203.42 150.33 203.42 150.33 203.42C152.79 203.42 154.79 205.42 154.79 207.88C154.79 207.88 154.79 207.88 154.79 207.88C154.79 210.34 152.79 212.33 150.33 212.33C150.33 212.33 150.33 212.33 150.33 212.33C147.87 212.33 145.88 210.33 145.88 207.88C145.87 205.42 147.87 203.42 150.33 203.42ZM216.16 203.76C216.16 203.76 216.16 203.76 216.16 203.76C218.43 203.76 220.28 205.6 220.27 207.88C220.27 207.88 220.27 207.88 220.27 207.88C220.28 210.15 218.43 211.99 216.16 211.99C216.16 211.99 216.16 211.99 216.16 211.99C213.89 211.99 212.05 210.15 212.05 207.88C212.05 207.88 212.05 207.88 212.05 207.88C212.04 205.6 213.88 203.76 216.16 203.76ZM323.35 207.02C323.35 207.02 323.35 207.02 323.35 207.02C324.66 207.02 325.72 208.08 325.72 209.39C325.72 209.39 325.72 209.39 325.72 209.39C325.72 210.69 324.66 211.75 323.36 211.75C323.36 211.75 323.35 211.75 323.35 211.75C322.05 211.75 320.99 210.69 320.99 209.39C320.98 208.08 322.04 207.02 323.35 207.02ZM343.98 208.18C343.98 208.18 343.98 208.18 343.98 208.18C344.67 208.18 345.22 208.73 345.22 209.42C345.22 209.42 345.22 209.42 345.22 209.42C345.22 210.1 344.67 210.66 343.98 210.66C343.98 210.66 343.98 210.66 343.98 210.66C343.3 210.66 342.74 210.1 342.74 209.42C342.74 208.73 343.29 208.18 343.98 208.18ZM22.51 208.29C23.13 208.29 23.64 208.8 23.64 209.42C23.64 210.04 23.13 210.55 22.51 210.55C21.89 210.54 21.39 210.04 21.38 209.42C21.38 208.8 21.89 208.29 22.51 208.29ZM364.54 209.27C364.63 209.27 364.71 209.34 364.71 209.44C364.71 209.44 364.71 209.44 364.71 209.44C364.71 209.53 364.64 209.61 364.55 209.61C364.55 209.61 364.54 209.61 364.54 209.61C364.45 209.61 364.38 209.53 364.38 209.44C364.37 209.35 364.45 209.27 364.54 209.27ZM189.52 203.03C189.52 203.03 189.53 203.03 189.53 203.03C189.68 203.03 189.81 203.15 189.81 203.31C189.81 203.31 189.81 203.31 189.81 203.31C189.81 203.47 189.68 203.59 189.53 203.59C189.38 203.59 189.26 203.46 189.25 203.31C189.25 203.16 189.37 203.03 189.52 203.03ZM123.55 189.77C127.35 189.77 130.43 192.85 130.43 196.65C130.43 200.45 127.35 203.53 123.55 203.53C119.75 203.53 116.68 200.45 116.68 196.65C116.67 192.85 119.75 189.77 123.55 189.77ZM82.33 192.15C82.33 192.15 82.33 192.15 82.33 192.15C84.86 192.14 86.9 194.19 86.9 196.71C86.9 196.71 86.9 196.71 86.9 196.72C86.9 199.24 84.86 201.28 82.34 201.28C82.34 201.28 82.34 201.28 82.33 201.28C79.81 201.28 77.77 199.24 77.77 196.72C77.76 194.19 79.81 192.14 82.33 192.15ZM41.42 194.47C42.67 194.47 43.67 195.48 43.67 196.73C43.68 197.97 42.68 198.98 41.43 198.98C41.43 198.98 41.43 198.98 41.42 198.98C40.18 198.98 39.17 197.98 39.17 196.73C39.17 196.73 39.17 196.73 39.17 196.73C39.16 195.48 40.18 194.47 41.42 194.47ZM0.61 196.62C0.67 196.62 0.72 196.67 0.72 196.74C0.72 196.8 0.67 196.85 0.61 196.85C0.55 196.85 0.5 196.8 0.5 196.74C0.5 196.67 0.55 196.62 0.61 196.62ZM166.78 195.52C166.78 195.52 166.79 195.52 166.79 195.52C167.01 195.52 167.19 195.7 167.19 195.92C167.19 196.14 167.01 196.32 166.79 196.32C166.57 196.32 166.4 196.14 166.4 195.92C166.39 195.71 166.56 195.53 166.78 195.52ZM244.27 177.03C244.27 177.03 244.27 177.03 244.27 177.03C248.1 177.03 251.21 180.14 251.21 183.97C251.21 183.97 251.21 183.97 251.21 183.97C251.21 187.8 248.1 190.9 244.27 190.9C244.27 190.9 244.27 190.9 244.27 190.9C240.44 190.9 237.34 187.8 237.34 183.97C237.33 180.14 240.44 177.03 244.27 177.03ZM264.61 178.11C264.61 178.11 264.61 178.11 264.61 178.11C267.85 178.11 270.48 180.73 270.48 183.97C270.48 187.21 267.85 189.83 264.61 189.83C261.38 189.83 258.75 187.21 258.75 183.97C258.75 180.73 261.37 178.11 264.61 178.11ZM101.87 178.22C101.87 178.22 101.87 178.22 101.88 178.22C105.05 178.22 107.63 180.79 107.63 183.97C107.63 183.97 107.63 183.97 107.63 183.97C107.63 187.15 105.05 189.72 101.88 189.72C98.7 189.72 96.13 187.15 96.13 183.97C96.12 180.8 98.69 178.22 101.87 178.22ZM284.95 179.29C284.95 179.29 284.95 179.29 284.96 179.29C287.54 179.29 289.64 181.38 289.64 183.97C289.64 183.97 289.64 183.97 289.64 183.97C289.64 186.56 287.54 188.65 284.96 188.65C284.96 188.65 284.96 188.65 284.96 188.65C282.37 188.65 280.28 186.56 280.28 183.97C280.27 181.39 282.37 179.29 284.95 179.29ZM142.56 179.35C145.11 179.35 147.18 181.42 147.19 183.97C147.18 186.53 145.11 188.59 142.56 188.6C140.01 188.59 137.94 186.52 137.94 183.97C137.93 181.42 140.01 179.35 142.56 179.35ZM223.93 179.8C223.93 179.8 223.93 179.8 223.93 179.8C226.23 179.8 228.1 181.67 228.1 183.97C228.1 183.97 228.1 183.97 228.1 183.97C228.1 186.27 226.23 188.14 223.93 188.14C221.63 188.14 219.76 186.27 219.76 183.97C219.75 181.67 221.62 179.8 223.93 179.8ZM305.3 180.42C307.26 180.42 308.85 182.01 308.85 183.97C308.85 185.93 307.26 187.52 305.3 187.53C303.34 187.52 301.75 185.93 301.75 183.97C301.75 182.01 303.34 180.42 305.3 180.42ZM61.19 180.53C61.19 180.53 61.19 180.53 61.19 180.53C63.09 180.53 64.63 182.07 64.63 183.97C64.63 183.97 64.63 183.97 64.63 183.97C64.63 185.87 63.1 187.41 61.2 187.41C61.2 187.41 61.19 187.41 61.19 187.41C59.29 187.41 57.76 185.87 57.76 183.97C57.76 183.97 57.76 183.97 57.76 183.97C57.75 182.07 59.29 180.53 61.19 180.53ZM325.64 181.6C325.64 181.6 325.64 181.6 325.64 181.6C326.95 181.6 328.01 182.66 328.01 183.97C328.01 183.97 328.01 183.97 328.01 183.97C328.01 185.28 326.95 186.34 325.64 186.34C325.64 186.34 325.64 186.34 325.64 186.34C324.34 186.34 323.28 185.28 323.28 183.97C323.27 182.66 324.33 181.6 325.64 181.6ZM345.98 182.73C346.67 182.73 347.22 183.28 347.23 183.97C347.23 183.97 347.23 183.97 347.23 183.97C347.23 184.66 346.67 185.21 345.99 185.21C345.99 185.21 345.98 185.21 345.98 185.21C345.3 185.21 344.75 184.66 344.75 183.97C344.74 183.29 345.3 182.73 345.98 182.73ZM20.5 182.85C20.51 182.85 20.51 182.85 20.51 182.85C21.13 182.85 21.63 183.35 21.63 183.97C21.63 184.59 21.13 185.1 20.51 185.1C19.88 185.1 19.38 184.59 19.38 183.97C19.38 183.35 19.88 182.85 20.5 182.85ZM203.59 183.69C203.74 183.69 203.87 183.82 203.87 183.97C203.87 184.13 203.74 184.25 203.59 184.25C203.43 184.25 203.31 184.12 203.31 183.97C203.31 183.82 203.43 183.69 203.59 183.69ZM366.33 183.8C366.42 183.8 366.5 183.88 366.5 183.97C366.5 184.07 366.42 184.14 366.33 184.14C366.23 184.14 366.16 184.06 366.16 183.97C366.16 183.88 366.23 183.8 366.33 183.8ZM123.56 164.41C127.36 164.41 130.44 167.49 130.44 171.29C130.44 175.09 127.36 178.17 123.56 178.17C119.76 178.17 116.68 175.09 116.68 171.3C116.68 171.29 116.68 171.29 116.68 171.29C116.68 167.49 119.76 164.41 123.56 164.41ZM82.34 166.66C84.87 166.66 86.91 168.71 86.91 171.23C86.91 173.75 84.87 175.79 82.35 175.79C82.34 175.79 82.34 175.79 82.34 175.79C79.82 175.8 77.77 173.75 77.77 171.23C77.77 171.23 77.77 171.23 77.77 171.23C77.77 168.71 79.82 166.66 82.34 166.66ZM41.43 168.96C41.43 168.96 41.43 168.96 41.43 168.96C42.67 168.96 43.68 169.96 43.68 171.21C43.68 171.21 43.68 171.21 43.68 171.21C43.68 172.46 42.68 173.46 41.44 173.47C41.44 173.47 41.43 173.47 41.43 173.47C40.19 173.47 39.17 172.47 39.17 171.23C39.17 171.22 39.17 171.22 39.17 171.21C39.17 169.97 40.18 168.96 41.43 168.96ZM166.79 171.51C167.07 171.51 167.3 171.74 167.3 172.02C167.3 172.02 167.3 172.02 167.3 172.02C167.3 172.3 167.07 172.53 166.79 172.53C166.79 172.53 166.79 172.53 166.79 172.53C166.52 172.53 166.29 172.31 166.29 172.03C166.29 172.03 166.29 172.02 166.29 172.02C166.29 171.74 166.51 171.52 166.79 171.51ZM0.62 171.09C0.68 171.09 0.73 171.15 0.73 171.21C0.73 171.27 0.68 171.32 0.62 171.32C0.55 171.32 0.5 171.27 0.5 171.21C0.5 171.21 0.5 171.21 0.5 171.21C0.5 171.15 0.55 171.09 0.62 171.09ZM239 152.23C239 152.23 239 152.23 239 152.23C242.83 152.22 245.94 155.33 245.94 159.15C245.94 159.16 245.94 159.16 245.94 159.16C245.94 162.99 242.84 166.09 239.01 166.1C239.01 166.1 239.01 166.1 239 166.1C235.17 166.1 232.06 163 232.06 159.17C232.06 159.16 232.06 159.16 232.06 159.16C232.07 155.33 235.17 152.23 239 152.23ZM189.54 164.18C189.54 164.18 189.54 164.18 189.54 164.18C189.79 164.18 189.99 164.39 189.99 164.63C189.99 164.88 189.79 165.08 189.54 165.08C189.29 165.09 189.09 164.89 189.09 164.64C189.09 164.64 189.09 164.63 189.09 164.63C189.09 164.39 189.29 164.19 189.54 164.18ZM150.33 155.39C150.34 155.39 150.34 155.39 150.34 155.39C152.92 155.39 155.02 157.49 155.02 160.07C155.02 162.66 152.92 164.75 150.34 164.75C150.34 164.75 150.34 164.75 150.34 164.75C147.76 164.76 145.66 162.67 145.65 160.08C145.65 160.08 145.65 160.07 145.65 160.07C145.66 157.49 147.75 155.39 150.33 155.39ZM260.64 153.03C260.64 153.03 260.64 153.03 260.64 153.03C263.85 153.03 266.45 155.63 266.45 158.84C266.45 158.84 266.45 158.84 266.45 158.84C266.45 162.05 263.85 164.65 260.64 164.65C260.64 164.65 260.64 164.65 260.64 164.65C257.43 164.65 254.83 162.05 254.83 158.85C254.83 158.84 254.83 158.84 254.83 158.84C254.83 155.63 257.43 153.03 260.64 153.03ZM105.86 153.14C105.87 153.14 105.87 153.14 105.87 153.14C109.01 153.14 111.56 155.69 111.56 158.84C111.56 158.84 111.56 158.84 111.56 158.84C111.56 161.98 109.01 164.53 105.87 164.54C102.72 164.54 100.17 161.99 100.17 158.84C100.17 158.84 100.17 158.84 100.17 158.84C100.17 155.69 102.72 153.14 105.86 153.14ZM216.16 155.73C216.17 155.73 216.17 155.73 216.17 155.73C218.57 155.73 220.51 157.67 220.51 160.07C220.51 162.47 218.56 164.41 216.17 164.41C213.77 164.41 211.82 162.47 211.82 160.08C211.82 160.07 211.82 160.07 211.82 160.07C211.82 157.67 213.76 155.73 216.16 155.73ZM281.77 154.01C284.35 154.01 286.45 156.1 286.45 158.69C286.45 158.69 286.45 158.69 286.45 158.69C286.45 161.28 284.35 163.37 281.77 163.37C279.18 163.37 277.08 161.28 277.08 158.69C277.09 156.11 279.18 154.01 281.77 154.01ZM302.63 155.11C304.56 155.11 306.13 156.68 306.13 158.61C306.13 158.61 306.13 158.61 306.13 158.61C306.13 160.54 304.56 162.1 302.63 162.1C300.71 162.1 299.14 160.54 299.14 158.61C299.14 158.61 299.14 158.61 299.14 158.61C299.14 156.68 300.7 155.11 302.63 155.11ZM63.86 155.17C63.86 155.17 63.86 155.17 63.86 155.17C65.76 155.17 67.3 156.71 67.3 158.61C67.3 158.61 67.3 158.61 67.3 158.61C67.3 160.51 65.76 162.05 63.86 162.05C61.96 162.05 60.42 160.51 60.42 158.61C60.42 158.61 60.42 158.61 60.42 158.61C60.42 156.71 61.96 155.17 63.86 155.17ZM323.36 156.19C323.36 156.19 323.36 156.19 323.36 156.19C324.67 156.19 325.73 157.25 325.73 158.56C325.73 158.56 325.73 158.56 325.73 158.56C325.73 159.87 324.67 160.93 323.36 160.93C323.36 160.93 323.36 160.93 323.36 160.93C322.06 160.93 320.99 159.88 320.99 158.57C320.99 158.56 320.99 158.56 320.99 158.56C320.99 157.25 322.05 156.19 323.36 156.19ZM343.99 157.34C343.99 157.34 343.99 157.34 343.99 157.34C344.64 157.34 345.17 157.87 345.17 158.53C345.17 159.18 344.64 159.71 343.99 159.71C343.99 159.71 343.99 159.71 343.99 159.71C343.34 159.71 342.81 159.19 342.8 158.54C342.8 158.53 342.8 158.53 342.8 158.52C342.8 157.87 343.33 157.34 343.99 157.34ZM22.52 157.4C23.14 157.4 23.65 157.91 23.65 158.53C23.65 159.15 23.15 159.65 22.52 159.65C22.52 159.65 22.52 159.65 22.52 159.65C21.9 159.66 21.39 159.16 21.38 158.54C21.38 158.53 21.38 158.53 21.38 158.52C21.39 157.9 21.9 157.4 22.52 157.4ZM364.55 158.34C364.64 158.34 364.72 158.41 364.72 158.5C364.72 158.5 364.72 158.5 364.72 158.51C364.72 158.6 364.65 158.67 364.56 158.68C364.56 158.68 364.55 158.68 364.55 158.68C364.46 158.68 364.38 158.6 364.38 158.51C364.38 158.51 364.38 158.5 364.38 158.5C364.38 158.41 364.46 158.34 364.55 158.34ZM133.88 141.24C137.68 141.24 140.76 144.32 140.76 148.11C140.76 148.12 140.76 148.12 140.76 148.12C140.76 151.92 137.68 155 133.89 155C133.89 155 133.88 155 133.88 155C130.08 155 127 151.92 127 148.12C127 144.32 130.08 141.24 133.88 141.24ZM88.68 141.98C88.68 141.98 88.68 141.98 88.68 141.98C91.21 141.98 93.25 144.03 93.25 146.55C93.25 149.07 91.21 151.12 88.68 151.12C86.16 151.12 84.11 149.07 84.11 146.55C84.11 146.55 84.11 146.55 84.11 146.55C84.11 144.02 86.16 141.98 88.68 141.98ZM170.68 140.62C173.27 140.62 175.36 142.71 175.36 145.3C175.36 147.88 173.27 149.97 170.69 149.98C170.68 149.98 170.68 149.98 170.68 149.98C168.1 149.98 166 147.89 165.99 145.3C165.99 145.3 165.99 145.3 165.99 145.29C166 142.71 168.1 140.62 170.68 140.62ZM195.83 140.73C198.35 140.73 200.39 142.78 200.39 145.3C200.39 147.82 198.35 149.86 195.83 149.87C193.3 149.87 191.25 147.82 191.25 145.29C191.26 142.77 193.3 140.73 195.83 140.73ZM45.98 143.85C47.23 143.85 48.24 144.86 48.24 146.1C48.24 146.1 48.24 146.11 48.24 146.11C48.24 147.36 47.23 148.37 45.99 148.37C45.98 148.37 45.98 148.37 45.98 148.37C44.74 148.37 43.73 147.35 43.73 146.11C43.73 146.11 43.73 146.11 43.73 146.11C43.73 144.87 44.74 143.85 45.98 143.85ZM4.17 145.81C4.17 145.81 4.17 145.81 4.17 145.81C4.23 145.81 4.28 145.86 4.28 145.93C4.28 145.93 4.28 145.93 4.28 145.93C4.28 145.99 4.23 146.04 4.17 146.04C4.11 146.04 4.06 146 4.05 145.93C4.05 145.93 4.05 145.93 4.05 145.92C4.05 145.87 4.1 145.81 4.17 145.81ZM224.08 131.71C224.08 131.71 224.08 131.71 224.09 131.71C227.91 131.7 231.02 134.81 231.03 138.63C231.03 138.64 231.03 138.64 231.03 138.64C231.03 142.47 227.92 145.58 224.09 145.58C224.09 145.58 224.09 145.58 224.09 145.58C220.26 145.58 217.15 142.48 217.15 138.65C217.15 138.64 217.15 138.64 217.15 138.64C217.15 134.81 220.26 131.71 224.08 131.71ZM249.08 130.36C252.29 130.36 254.89 132.96 254.89 136.17C254.89 139.38 252.29 141.98 249.08 141.98C245.87 141.98 243.26 139.38 243.26 136.16C243.27 132.96 245.87 130.36 249.08 130.36ZM117.42 130.47C120.57 130.47 123.12 133.02 123.12 136.17C123.12 139.31 120.57 141.86 117.42 141.86C117.42 141.86 117.42 141.86 117.42 141.86C114.28 141.87 111.72 139.32 111.72 136.17C111.72 136.17 111.72 136.17 111.72 136.16C111.72 133.02 114.28 130.47 117.42 130.47ZM272.38 130.37C274.93 130.37 277 132.44 277.01 134.99C277.01 134.99 277.01 135 277.01 135C277.01 137.55 274.94 139.62 272.39 139.62C272.39 139.62 272.38 139.62 272.38 139.62C269.83 139.62 267.76 137.55 267.76 135C267.76 135 267.76 135 267.76 134.99C267.76 132.45 269.83 130.38 272.38 130.37ZM152.74 124.27C156.54 124.27 159.62 127.35 159.62 131.15C159.62 134.95 156.54 138.02 152.74 138.02C148.94 138.03 145.86 134.96 145.86 131.16C145.86 131.15 145.86 131.15 145.86 131.14C145.86 127.35 148.94 124.27 152.74 124.27ZM294.74 130.86C296.67 130.86 298.24 132.42 298.25 134.35C298.25 136.28 296.68 137.85 294.75 137.85C294.75 137.85 294.75 137.85 294.74 137.85C292.81 137.85 291.25 136.28 291.25 134.35C291.25 134.35 291.25 134.35 291.25 134.35C291.25 132.42 292.82 130.86 294.74 130.86ZM71.75 130.97C73.62 130.97 75.13 132.48 75.13 134.35C75.13 136.22 73.62 137.73 71.75 137.73C71.75 137.73 71.75 137.73 71.75 137.73C69.88 137.74 68.36 136.23 68.36 134.36C68.36 134.35 68.36 134.35 68.36 134.35C68.37 132.48 69.88 130.97 71.75 130.97ZM316.57 131.59C317.88 131.59 318.93 132.65 318.93 133.96C318.93 133.96 318.93 133.96 318.93 133.96C318.94 135.27 317.88 136.33 316.57 136.33C315.26 136.33 314.19 135.27 314.19 133.95C314.2 132.65 315.26 131.59 316.57 131.59ZM338.02 132.52C338.02 132.52 338.02 132.52 338.02 132.52C338.67 132.52 339.2 133.05 339.21 133.7C339.21 133.71 339.21 133.71 339.21 133.71C339.21 134.36 338.68 134.89 338.02 134.89C338.02 134.89 338.02 134.89 338.02 134.89C337.37 134.89 336.84 134.36 336.84 133.71C336.84 133.71 336.84 133.71 336.84 133.7C336.84 133.05 337.36 132.52 338.02 132.52ZM28.47 132.64C28.47 132.64 28.47 132.64 28.47 132.64C29.06 132.64 29.54 133.11 29.54 133.71C29.54 133.71 29.54 133.71 29.54 133.71C29.54 134.3 29.06 134.78 28.47 134.78C27.88 134.78 27.4 134.3 27.4 133.7C27.4 133.12 27.88 132.64 28.47 132.64ZM359.23 133.36C359.33 133.36 359.4 133.44 359.4 133.53C359.4 133.63 359.33 133.7 359.23 133.7C359.14 133.7 359.06 133.62 359.07 133.53C359.07 133.53 359.07 133.53 359.07 133.53C359.06 133.44 359.14 133.36 359.23 133.36ZM202.1 119.08C205.9 119.08 208.98 122.16 208.98 125.96C208.98 129.76 205.9 132.84 202.1 132.84C198.3 132.84 195.22 129.76 195.22 125.96C195.22 125.96 195.22 125.95 195.22 125.95C195.22 122.16 198.3 119.08 202.1 119.08ZM176.87 116.43C180.67 116.43 183.75 119.51 183.75 123.31C183.75 123.31 183.75 123.31 183.75 123.31C183.75 127.11 180.67 130.19 176.87 130.19C173.07 130.19 169.99 127.11 169.99 123.31C169.99 119.51 173.07 116.43 176.87 116.43ZM100.96 119.65C103.48 119.65 105.52 121.69 105.52 124.22C105.52 126.74 103.48 128.78 100.96 128.79C98.44 128.78 96.39 126.73 96.4 124.21C96.39 121.69 98.44 119.65 100.96 119.65ZM54.94 119.96C54.94 119.96 54.94 119.96 54.95 119.96C56.19 119.96 57.2 120.97 57.21 122.22C57.21 122.22 57.21 122.22 57.21 122.22C57.2 123.47 56.19 124.47 54.95 124.47C53.71 124.47 52.7 123.47 52.7 122.22C52.7 122.22 52.7 122.22 52.7 122.22C52.69 120.98 53.69 119.97 54.94 119.96ZM231.07 112.42C231.07 112.42 231.07 112.42 231.07 112.42C234.25 112.42 236.82 115 236.83 118.17C236.82 121.35 234.25 123.93 231.07 123.93C227.9 123.92 225.32 121.35 225.32 118.17C225.32 118.17 225.32 118.17 225.32 118.17C225.32 115 227.89 112.42 231.07 112.42ZM135.42 112.48C138.56 112.48 141.11 115.02 141.11 118.17C141.11 118.17 141.11 118.17 141.11 118.17C141.11 121.32 138.56 123.87 135.42 123.87C132.27 123.86 129.73 121.32 129.72 118.17C129.72 115.03 132.27 112.48 135.42 112.48ZM11.2 121.27C11.27 121.27 11.32 121.32 11.32 121.39C11.32 121.45 11.27 121.5 11.2 121.5C11.14 121.5 11.09 121.45 11.09 121.39C11.09 121.32 11.14 121.27 11.2 121.27ZM257.39 109.75C257.39 109.75 257.39 109.75 257.39 109.75C259.94 109.75 262.02 111.82 262.02 114.38C262.02 114.38 262.02 114.38 262.02 114.38C262.02 116.93 259.94 119 257.39 119C254.84 119 252.77 116.93 252.77 114.38C252.77 114.38 252.77 114.38 252.77 114.38C252.77 111.83 254.83 109.76 257.39 109.75ZM281.99 108.77C281.99 108.77 281.99 108.77 281.99 108.77C283.92 108.77 285.49 110.33 285.49 112.26C285.49 112.26 285.49 112.26 285.49 112.26C285.48 114.19 283.92 115.76 281.99 115.76C280.06 115.76 278.49 114.19 278.49 112.26C278.49 110.33 280.05 108.77 281.99 108.77ZM84.5 108.88C86.37 108.88 87.88 110.4 87.89 112.26C87.88 114.13 86.37 115.65 84.5 115.65C82.63 115.65 81.12 114.13 81.12 112.26C81.12 112.26 81.12 112.26 81.12 112.26C81.12 110.4 82.63 108.88 84.5 108.88ZM305.49 108.66C306.76 108.66 307.8 109.7 307.8 110.97C307.8 112.25 306.76 113.28 305.49 113.28C304.21 113.28 303.18 112.25 303.17 110.97C303.17 109.7 304.21 108.66 305.49 108.66ZM208.39 100.87C211.57 100.87 214.14 103.44 214.14 106.62C214.14 109.79 211.57 112.37 208.39 112.37C208.39 112.37 208.39 112.37 208.39 112.37C205.22 112.37 202.64 109.8 202.64 106.62C202.64 106.62 202.64 106.62 202.64 106.61C202.64 103.44 205.22 100.87 208.39 100.87ZM158.1 100.93C161.25 100.93 163.8 103.47 163.8 106.62C163.8 106.62 163.8 106.62 163.8 106.62C163.8 109.77 161.25 112.32 158.1 112.31C158.1 112.31 158.1 112.31 158.1 112.31C154.96 112.31 152.41 109.76 152.41 106.62C152.4 103.48 154.95 100.93 158.1 100.93ZM328.24 108.94C328.24 108.94 328.25 108.94 328.25 108.94C328.9 108.94 329.43 109.47 329.43 110.12C329.43 110.12 329.43 110.12 329.43 110.12C329.43 110.78 328.9 111.31 328.25 111.31C328.25 111.31 328.25 111.31 328.25 111.31C327.6 111.31 327.07 110.78 327.07 110.13C327.07 110.12 327.07 110.12 327.07 110.12C327.06 109.47 327.59 108.94 328.24 108.94ZM38.24 109.05C38.84 109.05 39.32 109.53 39.32 110.12C39.32 110.72 38.84 111.19 38.24 111.19C37.65 111.19 37.17 110.71 37.17 110.12C37.17 110.12 37.17 110.12 37.17 110.12C37.17 109.53 37.65 109.05 38.24 109.05ZM118.41 101.07C120.93 101.07 122.98 103.11 122.98 105.63C122.98 108.16 120.94 110.21 118.41 110.21C118.41 110.21 118.41 110.21 118.41 110.21C115.89 110.2 113.84 108.16 113.84 105.63C113.84 105.63 113.84 105.63 113.84 105.63C113.84 103.11 115.89 101.07 118.41 101.07ZM350.49 109.37C350.59 109.37 350.66 109.44 350.66 109.54C350.66 109.54 350.66 109.54 350.66 109.54C350.66 109.63 350.59 109.71 350.5 109.71C350.5 109.71 350.49 109.71 350.49 109.71C350.4 109.71 350.33 109.63 350.33 109.54C350.33 109.45 350.4 109.37 350.49 109.37ZM183.23 96.89C183.23 96.89 183.24 96.89 183.24 96.89C186.42 96.89 188.99 99.46 189 102.64C189 102.64 189 102.64 189 102.64C188.99 105.82 186.42 108.39 183.24 108.39C180.07 108.39 177.5 105.82 177.5 102.64C177.5 102.64 177.5 102.64 177.5 102.64C177.49 99.47 180.06 96.89 183.23 96.89ZM237.74 93.51C237.74 93.51 237.74 93.51 237.74 93.51C240.3 93.51 242.37 95.58 242.37 98.13C242.37 100.69 240.3 102.76 237.74 102.76C235.19 102.75 233.12 100.68 233.12 98.13C233.12 95.58 235.19 93.51 237.74 93.51ZM68.04 98.06C68.04 98.06 68.04 98.06 68.04 98.06C69.29 98.06 70.3 99.07 70.3 100.31C70.3 101.56 69.29 102.57 68.05 102.56C68.04 102.56 68.04 102.56 68.04 102.56C66.8 102.57 65.79 101.56 65.79 100.31C65.79 100.31 65.79 100.31 65.79 100.31C65.78 99.07 66.79 98.06 68.04 98.06ZM21.59 97.95C21.65 97.95 21.7 98 21.7 98.06C21.7 98.12 21.66 98.17 21.6 98.17C21.6 98.17 21.6 98.17 21.59 98.17C21.53 98.17 21.48 98.12 21.48 98.06C21.48 98.06 21.48 98.06 21.48 98.06C21.48 98 21.53 97.95 21.59 97.95ZM264.91 89.82C266.84 89.82 268.41 91.38 268.41 93.31C268.41 95.24 266.84 96.8 264.91 96.8C262.98 96.8 261.42 95.24 261.42 93.31C261.42 91.38 262.98 89.82 264.91 89.82ZM101.57 89.93C103.44 89.93 104.95 91.44 104.96 93.31C104.95 95.18 103.44 96.69 101.57 96.69C99.7 96.69 98.19 95.17 98.19 93.31C98.19 91.44 99.7 89.93 101.57 89.93ZM139.94 87.42C142.46 87.41 144.5 89.46 144.5 91.98C144.5 91.98 144.5 91.98 144.5 91.98C144.51 94.5 142.46 96.55 139.94 96.55C139.94 96.55 139.94 96.55 139.94 96.55C137.41 96.55 135.37 94.5 135.37 91.98C135.37 89.46 137.41 87.42 139.94 87.42ZM290.48 88.01C290.48 88.01 290.48 88.01 290.48 88.01C291.76 88.02 292.79 89.05 292.79 90.33C292.79 91.6 291.76 92.64 290.48 92.64C289.2 92.64 288.17 91.6 288.17 90.33C288.17 90.33 288.17 90.32 288.17 90.32C288.17 89.05 289.2 88.01 290.48 88.01ZM214.68 82.66C217.23 82.66 219.3 84.73 219.31 87.29C219.31 87.29 219.31 87.29 219.31 87.29C219.3 89.84 217.23 91.91 214.68 91.91C214.68 91.91 214.68 91.91 214.68 91.91C212.13 91.91 210.06 89.84 210.05 87.29C210.05 87.28 210.05 87.28 210.05 87.28C210.05 84.73 212.12 82.66 214.68 82.66ZM314.9 87.24C314.9 87.24 314.91 87.24 314.91 87.24C315.53 87.24 316.03 87.74 316.03 88.36C316.03 88.36 316.03 88.36 316.03 88.36C316.03 88.98 315.53 89.49 314.91 89.49C314.29 89.49 313.78 88.99 313.78 88.37C313.78 88.37 313.78 88.36 313.78 88.36C313.78 87.74 314.28 87.24 314.9 87.24ZM51.59 87.29C51.59 87.29 51.59 87.29 51.59 87.29C52.18 87.29 52.66 87.77 52.66 88.36C52.66 88.36 52.66 88.36 52.66 88.36C52.67 88.95 52.19 89.43 51.6 89.43C51.6 89.43 51.59 89.43 51.59 89.43C51 89.44 50.52 88.96 50.52 88.37C50.52 88.37 50.52 88.36 50.52 88.36C50.52 87.77 51 87.29 51.59 87.29ZM164.19 79.54C166.71 79.54 168.76 81.59 168.76 84.11C168.76 86.63 166.71 88.67 164.19 88.67C164.19 88.67 164.19 88.67 164.19 88.67C161.67 88.68 159.62 86.63 159.62 84.11C159.62 84.11 159.62 84.11 159.62 84.11C159.62 81.59 161.67 79.54 164.19 79.54ZM338.51 86.89C338.57 86.89 338.62 86.94 338.63 87C338.63 87 338.63 87 338.63 87C338.63 87.06 338.58 87.11 338.51 87.11C338.51 87.11 338.51 87.11 338.51 87.11C338.45 87.11 338.4 87.06 338.4 87C338.4 87 338.4 87 338.4 87C338.4 86.94 338.45 86.89 338.51 86.89ZM189.64 77.95C189.64 77.95 189.64 77.95 189.64 77.95C192.16 77.95 194.2 79.99 194.2 82.51C194.2 85.04 192.16 87.08 189.64 87.08C187.12 87.09 185.07 85.04 185.07 82.52C185.07 82.51 185.07 82.51 185.07 82.5C185.07 79.99 187.12 77.95 189.64 77.95ZM84.84 78.84C86.09 78.84 87.1 79.84 87.1 81.09C87.1 81.09 87.1 81.09 87.1 81.09C87.1 82.34 86.09 83.35 84.85 83.35C84.84 83.35 84.84 83.35 84.84 83.35C83.59 83.35 82.59 82.34 82.59 81.09C82.59 79.85 83.6 78.84 84.84 78.84ZM244.28 74.87C246.18 74.88 247.72 76.42 247.72 78.32C247.72 80.22 246.18 81.76 244.28 81.76C242.38 81.76 240.84 80.22 240.84 78.32C240.84 76.42 242.38 74.87 244.28 74.87ZM122.21 74.93C122.21 74.93 122.22 74.93 122.22 74.93C124.09 74.93 125.61 76.45 125.61 78.31C125.61 78.32 125.61 78.32 125.61 78.32C125.6 80.19 124.09 81.7 122.22 81.7C120.35 81.7 118.84 80.19 118.84 78.32C118.84 78.32 118.84 78.32 118.84 78.32C118.83 76.45 120.34 74.94 122.21 74.93ZM35.13 76.29C35.19 76.29 35.24 76.34 35.24 76.41C35.25 76.47 35.2 76.52 35.14 76.52C35.13 76.52 35.13 76.52 35.13 76.52C35.07 76.52 35.02 76.47 35.02 76.41C35.02 76.41 35.02 76.41 35.02 76.4C35.02 76.35 35.07 76.29 35.13 76.29ZM272.03 70.38C273.3 70.38 274.34 71.42 274.34 72.69C274.34 73.97 273.3 75 272.03 75C270.75 75 269.72 73.97 269.72 72.69C269.71 71.42 270.75 70.38 272.03 70.38ZM220.96 64.5C220.96 64.5 220.96 64.5 220.96 64.5C222.86 64.5 224.4 66.04 224.4 67.94C224.4 67.94 224.4 67.94 224.4 67.94C224.4 69.84 222.87 71.38 220.97 71.38C220.97 71.38 220.96 71.38 220.96 71.38C219.06 71.38 217.52 69.84 217.52 67.94C217.52 67.94 217.52 67.94 217.52 67.94C217.52 66.04 219.06 64.5 220.96 64.5ZM145.53 64.56C145.53 64.56 145.53 64.56 145.53 64.56C147.4 64.56 148.92 66.07 148.92 67.94C148.91 69.81 147.4 71.32 145.53 71.33C143.66 71.33 142.15 69.81 142.15 67.94C142.14 66.07 143.66 64.56 145.53 64.56ZM298.32 67.82C298.94 67.82 299.45 68.33 299.45 68.95C299.45 69.57 298.94 70.07 298.32 70.07C297.7 70.07 297.19 69.57 297.19 68.95C297.19 68.33 297.7 67.82 298.32 67.82ZM68.17 67.88C68.17 67.88 68.17 67.88 68.17 67.88C68.76 67.88 69.24 68.36 69.24 68.95C69.24 68.95 69.24 68.95 69.24 68.95C69.24 69.54 68.76 70.02 68.17 70.02C68.17 70.02 68.17 70.02 68.17 70.02C67.58 70.02 67.1 69.54 67.1 68.95C67.1 68.95 67.1 68.95 67.1 68.95C67.1 68.36 67.58 67.88 68.17 67.88ZM104.8 62.93C104.8 62.93 104.8 62.93 104.8 62.93C106.05 62.93 107.06 63.94 107.06 65.18C107.06 65.18 107.06 65.19 107.06 65.19C107.06 66.43 106.04 67.44 104.8 67.44C104.8 67.44 104.8 67.44 104.8 67.44C103.56 67.44 102.55 66.43 102.55 65.18C102.55 65.18 102.55 65.18 102.55 65.18C102.54 63.94 103.55 62.93 104.8 62.93ZM323.49 66.23C323.49 66.23 323.49 66.23 323.49 66.23C323.55 66.23 323.6 66.28 323.61 66.34C323.61 66.4 323.56 66.45 323.49 66.45C323.43 66.45 323.39 66.4 323.39 66.34C323.39 66.34 323.39 66.34 323.39 66.34C323.38 66.28 323.43 66.23 323.49 66.23ZM196.01 59.2C197.91 59.2 199.45 60.74 199.45 62.64C199.45 64.54 197.91 66.08 196.01 66.08C194.11 66.08 192.57 64.54 192.57 62.64C192.57 62.64 192.57 62.64 192.57 62.64C192.57 60.74 194.11 59.2 196.01 59.2ZM170.49 59.2C172.39 59.2 173.93 60.74 173.93 62.64C173.93 64.54 172.39 66.08 170.49 66.08C168.59 66.09 167.05 64.55 167.05 62.64C167.05 62.64 167.05 62.64 167.05 62.64C167.05 60.74 168.59 59.2 170.49 59.2ZM250.73 56.32C250.73 56.32 250.73 56.32 250.73 56.32C252 56.33 253.04 57.36 253.03 58.64C253.03 59.91 252 60.95 250.73 60.95C249.45 60.95 248.41 59.91 248.41 58.64C248.41 58.64 248.41 58.63 248.41 58.63C248.41 57.36 249.45 56.32 250.73 56.32ZM51.55 56.74C51.55 56.74 51.55 56.74 51.55 56.74C51.61 56.74 51.66 56.79 51.66 56.85C51.66 56.91 51.61 56.96 51.55 56.96C51.49 56.96 51.44 56.92 51.44 56.85C51.44 56.85 51.44 56.85 51.44 56.85C51.44 56.79 51.49 56.74 51.55 56.74ZM127.28 50.84C127.28 50.84 127.28 50.84 127.28 50.84C128.53 50.84 129.54 51.85 129.54 53.09C129.54 53.09 129.54 53.09 129.54 53.09C129.54 54.34 128.53 55.35 127.28 55.35C127.28 55.35 127.28 55.35 127.28 55.35C126.04 55.35 125.02 54.34 125.02 53.09C125.02 53.09 125.02 53.09 125.02 53.09C125.02 51.85 126.04 50.84 127.28 50.84ZM278.9 51.25C278.9 51.25 278.9 51.25 278.91 51.25C279.53 51.25 280.03 51.75 280.03 52.37C280.03 52.37 280.03 52.37 280.03 52.37C280.03 53 279.53 53.5 278.91 53.5C278.28 53.5 277.78 53 277.78 52.38C277.78 52.37 277.78 52.37 277.78 52.37C277.78 51.76 278.28 51.25 278.9 51.25ZM87.59 51.3C87.59 51.3 87.59 51.3 87.59 51.3C88.18 51.3 88.66 51.78 88.67 52.37C88.67 52.37 88.67 52.37 88.67 52.37C88.66 52.97 88.18 53.44 87.59 53.44C87 53.44 86.52 52.96 86.52 52.37C86.52 52.37 86.52 52.37 86.52 52.37C86.52 51.78 87 51.3 87.59 51.3ZM227.25 46.35C227.25 46.35 227.25 46.35 227.25 46.35C228.5 46.35 229.51 47.36 229.51 48.61C229.51 48.61 229.51 48.61 229.51 48.61C229.51 49.85 228.5 50.86 227.25 50.86C227.25 50.86 227.25 50.86 227.25 50.86C226.01 50.86 225 49.85 224.99 48.61C224.99 48.61 224.99 48.6 224.99 48.6C224.99 47.36 226.01 46.35 227.25 46.35ZM305.75 47.87C305.75 47.87 305.75 47.87 305.75 47.87C305.81 47.86 305.86 47.91 305.86 47.97C305.86 47.98 305.86 47.98 305.86 47.98C305.86 48.04 305.82 48.09 305.76 48.09C305.76 48.09 305.76 48.09 305.75 48.09C305.69 48.09 305.64 48.04 305.64 47.98C305.64 47.98 305.64 47.98 305.64 47.98C305.64 47.92 305.69 47.87 305.75 47.87ZM151.56 42.95C151.56 42.95 151.56 42.95 151.56 42.95C152.81 42.96 153.82 43.97 153.82 45.21C153.82 46.46 152.81 47.46 151.56 47.46C150.32 47.47 149.31 46.46 149.31 45.22C149.31 45.21 149.31 45.21 149.31 45.21C149.3 43.97 150.31 42.96 151.56 42.95ZM202.36 40.68C202.36 40.68 202.36 40.68 202.36 40.68C203.61 40.67 204.62 41.68 204.62 42.92C204.62 42.93 204.62 42.93 204.62 42.93C204.62 44.17 203.61 45.18 202.36 45.18C202.36 45.18 202.36 45.18 202.36 45.18C201.12 45.18 200.11 44.17 200.11 42.93C200.11 42.93 200.11 42.92 200.11 42.92C200.11 41.68 201.12 40.68 202.36 40.68ZM176.85 39.53C176.86 39.53 176.86 39.53 176.86 39.53C178.11 39.53 179.12 40.54 179.12 41.78C179.12 43.03 178.11 44.04 176.86 44.04C175.62 44.04 174.61 43.04 174.61 41.8C174.61 41.79 174.61 41.79 174.61 41.78C174.6 40.54 175.61 39.53 176.85 39.53ZM257.13 37.91C257.75 37.91 258.26 38.41 258.26 39.03C258.26 39.66 257.76 40.16 257.13 40.16C257.13 40.16 257.13 40.16 257.13 40.16C256.51 40.16 256 39.66 256 39.03C256 39.03 256 39.03 256 39.03C256.01 38.41 256.51 37.91 257.13 37.91ZM109.37 37.97C109.95 37.96 110.44 38.44 110.44 39.03C110.44 39.03 110.44 39.03 110.44 39.03C110.44 39.63 109.96 40.11 109.37 40.11C109.37 40.11 109.37 40.11 109.37 40.11C108.77 40.1 108.3 39.62 108.3 39.03C108.3 38.44 108.78 37.97 109.37 37.97ZM70.53 39.65C70.59 39.65 70.64 39.7 70.64 39.76C70.64 39.77 70.64 39.77 70.64 39.77C70.64 39.83 70.6 39.88 70.54 39.88C70.54 39.88 70.53 39.88 70.53 39.88C70.47 39.88 70.42 39.83 70.42 39.77C70.42 39.77 70.42 39.77 70.42 39.76C70.42 39.71 70.47 39.66 70.53 39.65ZM285.62 32.14C285.62 32.14 285.63 32.14 285.63 32.14C285.69 32.14 285.74 32.19 285.74 32.25C285.74 32.26 285.74 32.26 285.74 32.26C285.74 32.32 285.69 32.37 285.63 32.37C285.63 32.37 285.63 32.37 285.63 32.37C285.57 32.37 285.52 32.32 285.51 32.26C285.51 32.26 285.51 32.26 285.51 32.26C285.51 32.2 285.56 32.15 285.62 32.14ZM233.54 28.14C233.54 28.14 233.54 28.14 233.54 28.14C234.16 28.14 234.67 28.65 234.67 29.27C234.67 29.89 234.16 30.4 233.54 30.4C232.91 30.4 232.41 29.9 232.41 29.27C232.41 29.27 232.41 29.27 232.41 29.26C232.41 28.64 232.91 28.14 233.54 28.14ZM132.96 28.2C133.55 28.2 134.03 28.68 134.03 29.27C134.03 29.86 133.55 30.34 132.96 30.34C132.96 30.34 132.96 30.34 132.96 30.34C132.37 30.34 131.89 29.86 131.89 29.27C131.89 29.27 131.89 29.27 131.89 29.26C131.89 28.68 132.37 28.2 132.96 28.2ZM91.7 25.38C91.71 25.38 91.71 25.38 91.71 25.38C91.77 25.38 91.82 25.43 91.82 25.49C91.82 25.55 91.77 25.6 91.71 25.6C91.71 25.6 91.71 25.6 91.71 25.6C91.65 25.61 91.59 25.56 91.59 25.49C91.59 25.49 91.59 25.49 91.59 25.48C91.59 25.43 91.64 25.38 91.7 25.38ZM208.71 22.18C208.71 22.18 208.71 22.18 208.71 22.18C209.33 22.18 209.83 22.69 209.83 23.31C209.83 23.93 209.33 24.44 208.71 24.44C208.71 24.44 208.71 24.44 208.71 24.44C208.08 24.44 207.58 23.94 207.58 23.31C207.58 23.31 207.58 23.31 207.58 23.3C207.58 22.69 208.08 22.18 208.71 22.18ZM157.78 22.18C157.79 22.18 157.79 22.18 157.79 22.18C158.41 22.18 158.92 22.68 158.92 23.3C158.92 23.31 158.92 23.31 158.92 23.31C158.92 23.93 158.41 24.43 157.79 24.43C157.79 24.43 157.79 24.43 157.79 24.43C157.17 24.43 156.67 23.93 156.66 23.31C156.66 23.31 156.66 23.31 156.66 23.31C156.66 22.69 157.16 22.18 157.78 22.18ZM183.25 20.17C183.25 20.17 183.25 20.17 183.25 20.17C183.87 20.17 184.37 20.68 184.38 21.3C184.38 21.3 184.38 21.3 184.38 21.3C184.38 21.92 183.88 22.43 183.26 22.43C183.25 22.43 183.25 22.43 183.25 22.43C182.62 22.43 182.12 21.93 182.12 21.3C182.12 21.3 182.12 21.3 182.12 21.3C182.12 20.68 182.62 20.17 183.25 20.17ZM263.5 19.38C263.5 19.38 263.51 19.38 263.51 19.38C263.57 19.38 263.62 19.43 263.62 19.49C263.62 19.49 263.62 19.49 263.62 19.49C263.62 19.55 263.57 19.6 263.51 19.6C263.51 19.6 263.51 19.6 263.51 19.6C263.45 19.6 263.4 19.55 263.4 19.49C263.4 19.49 263.4 19.49 263.4 19.49C263.39 19.43 263.44 19.38 263.5 19.38ZM114.66 14.19C114.66 14.19 114.66 14.19 114.66 14.19C114.72 14.18 114.77 14.23 114.77 14.29C114.78 14.29 114.78 14.29 114.77 14.3C114.77 14.36 114.72 14.41 114.66 14.4C114.66 14.4 114.66 14.4 114.66 14.4C114.6 14.41 114.55 14.36 114.55 14.3C114.55 14.3 114.55 14.3 114.55 14.3C114.55 14.24 114.6 14.19 114.66 14.19ZM239.82 9.81C239.82 9.81 239.82 9.81 239.82 9.81C239.89 9.82 239.93 9.87 239.93 9.93C239.93 9.93 239.93 9.93 239.93 9.93C239.93 9.99 239.88 10.04 239.82 10.04C239.76 10.04 239.71 9.99 239.71 9.93C239.71 9.93 239.71 9.93 239.71 9.93C239.71 9.87 239.76 9.82 239.82 9.81ZM138.95 6.29C138.95 6.29 138.95 6.29 138.95 6.29C139.02 6.29 139.07 6.34 139.07 6.4C139.07 6.41 139.07 6.41 139.07 6.41C139.07 6.47 139.02 6.52 138.96 6.52C138.95 6.52 138.95 6.52 138.95 6.52C138.89 6.52 138.85 6.47 138.84 6.41C138.84 6.35 138.89 6.3 138.95 6.29ZM215.04 3.64C215.04 3.64 215.04 3.64 215.04 3.64C215.1 3.64 215.15 3.69 215.15 3.75C215.15 3.81 215.1 3.86 215.04 3.86C214.98 3.86 214.93 3.81 214.93 3.75C214.93 3.75 214.93 3.75 214.93 3.75C214.93 3.69 214.98 3.64 215.04 3.64ZM164.11 1.86C164.17 1.86 164.22 1.91 164.23 1.97C164.23 1.97 164.23 1.97 164.23 1.97C164.23 2.03 164.18 2.08 164.12 2.09C164.11 2.09 164.11 2.09 164.11 2.09C164.05 2.08 164 2.03 164 1.97C164 1.97 164 1.97 164 1.97C164 1.91 164.05 1.86 164.11 1.86ZM189.64 0.96C189.7 0.97 189.75 1.02 189.75 1.08C189.75 1.14 189.7 1.19 189.64 1.2C189.57 1.19 189.52 1.14 189.52 1.08C189.52 1.02 189.57 0.97 189.64 0.96Z" id="afXoO1kkV"></path></defs><g><g><g><use xlink:href="#afXoO1kkV" opacity="1" fill="#ffffff" fill-opacity="1"></use><g><use xlink:href="#afXoO1kkV" opacity="1" fill-opacity="0" stroke="#000000" stroke-width="1" stroke-opacity="0"></use></g></g></g></g></svg>