<svg xmlns="http://www.w3.org/2000/svg" width="524.871" height="615.889" viewBox="0 0 524.871 615.889">
    <path fill="#eaf7ff" d="M392.053 896.533a14.669 14.669 0 1 1-14.669 14.667 14.668 14.668 0 0 1 14.669-14.667zM344.8 877.7a13.747 13.747 0 1 0 13.75-13.75 13.745 13.745 0 0 0-13.75 13.75zm-32.586-33.51a12.826 12.826 0 1 0 12.826-12.826 12.826 12.826 0 0 0-12.828 12.823zm-32.586-33.5a11.9 11.9 0 1 0 11.907-11.907 11.9 11.9 0 0 0-11.909 11.9zm-32.586-33.51a10.985 10.985 0 1 0 10.983-10.983 10.981 10.981 0 0 0-10.984 10.975zm-32.586-33.505a10.064 10.064 0 1 0 10.062-10.075 10.066 10.066 0 0 0-10.063 10.067zm-32.586-33.51a9.142 9.142 0 1 0 9.14-9.14 9.143 9.143 0 0 0-9.141 9.133zm-32.586-33.505a8.221 8.221 0 1 0 8.221-8.221 8.221 8.221 0 0 0-8.222 8.214zM116.7 643.142a7.3 7.3 0 1 0 7.3-7.3 7.3 7.3 0 0 0-7.3 7.3zm-32.586-33.5a6.378 6.378 0 1 0 6.378-6.378 6.376 6.376 0 0 0-6.381 6.374zM444.8 911.2a14.669 14.669 0 1 0 14.669-14.668A14.668 14.668 0 0 0 444.8 911.2zm-32.586-33.5a13.747 13.747 0 1 0 13.75-13.75 13.745 13.745 0 0 0-13.746 13.75zm-32.586-33.51a12.826 12.826 0 1 0 12.826-12.826 12.826 12.826 0 0 0-12.821 12.823zm-32.586-33.5a11.9 11.9 0 1 0 11.907-11.907 11.9 11.9 0 0 0-11.902 11.9zm-32.586-33.51a10.983 10.983 0 1 0 10.983-10.983 10.981 10.981 0 0 0-10.978 10.975zm-32.586-33.505a10.064 10.064 0 1 0 10.069-10.075 10.066 10.066 0 0 0-10.064 10.067zm-32.586-33.51a9.142 9.142 0 1 0 9.14-9.14 9.143 9.143 0 0 0-9.135 9.133zM216.7 676.653a8.221 8.221 0 1 0 8.221-8.221 8.221 8.221 0 0 0-8.221 8.221zm-32.586-33.51a7.3 7.3 0 1 0 7.3-7.3 7.3 7.3 0 0 0-7.297 7.299zm-32.586-33.5a6.378 6.378 0 1 0 6.378-6.378 6.376 6.376 0 0 0-6.375 6.373zM512.225 911.2a14.669 14.669 0 1 0 14.669-14.668 14.668 14.668 0 0 0-14.669 14.668zm-32.586-33.5a13.747 13.747 0 1 0 13.75-13.75 13.745 13.745 0 0 0-13.75 13.75zm-32.586-33.51a12.826 12.826 0 1 0 12.826-12.826 12.826 12.826 0 0 0-12.826 12.823zm-32.586-33.5a11.9 11.9 0 1 0 11.907-11.907 11.9 11.9 0 0 0-11.907 11.9zm-32.586-33.51a10.983 10.983 0 1 0 10.983-10.983 10.981 10.981 0 0 0-10.983 10.975zM349.3 743.667a10.061 10.061 0 1 0 10.059-10.067 10.063 10.063 0 0 0-10.059 10.067zm-32.586-33.51a9.142 9.142 0 1 0 9.14-9.14 9.143 9.143 0 0 0-9.145 9.141zm-32.586-33.505a8.221 8.221 0 1 0 8.221-8.221 8.221 8.221 0 0 0-8.226 8.222zm-32.586-33.51a7.3 7.3 0 1 0 7.3-7.3 7.3 7.3 0 0 0-7.305 7.3zm-32.586-33.5a6.378 6.378 0 1 0 6.378-6.378 6.376 6.376 0 0 0-6.383 6.374zM579.645 911.2a14.669 14.669 0 1 0 14.669-14.668 14.668 14.668 0 0 0-14.669 14.668zm-32.586-33.5a13.747 13.747 0 1 0 13.745-13.75 13.744 13.744 0 0 0-13.745 13.75zm-32.586-33.51a12.826 12.826 0 1 0 12.827-12.828 12.823 12.823 0 0 0-12.827 12.825zm-32.586-33.5a11.9 11.9 0 1 0 11.9-11.907 11.9 11.9 0 0 0-11.9 11.9zM449.3 777.172a10.983 10.983 0 1 0 10.983-10.983 10.981 10.981 0 0 0-10.983 10.983zm-32.586-33.505a10.061 10.061 0 1 0 10.065-10.067 10.063 10.063 0 0 0-10.064 10.067zm-32.586-33.51a9.14 9.14 0 1 0 9.14-9.14 9.143 9.143 0 0 0-9.139 9.141zm-32.586-33.505a8.218 8.218 0 1 0 8.221-8.221 8.221 8.221 0 0 0-8.219 8.222zm-32.586-33.51a7.3 7.3 0 1 0 7.3-7.3 7.3 7.3 0 0 0-7.298 7.3zm-32.586-33.5a6.378 6.378 0 1 0 6.378-6.378 6.376 6.376 0 0 0-6.376 6.374zm72.176 348.819a13.747 13.747 0 1 0-13.75-13.745 13.741 13.741 0 0 0 13.752 13.741zm-33.51 32.586a12.826 12.826 0 1 0-12.826-12.826 12.823 12.823 0 0 0 12.828 12.822zm-33.5 32.586a11.9 11.9 0 1 0-11.907-11.9 11.9 11.9 0 0 0 11.904 11.896zm-33.51 32.586a10.983 10.983 0 1 0-10.983-10.983 10.982 10.982 0 0 0 10.98 10.978zm-33.5 32.586a10.061 10.061 0 1 0-10.064-10.059 10.062 10.062 0 0 0 10.056 10.054zm-33.51 32.591a9.142 9.142 0 1 0-9.14-9.145 9.145 9.145 0 0 0 9.132 9.141zm-33.5 32.586a8.221 8.221 0 1 0-8.221-8.221 8.221 8.221 0 0 0 8.205 8.217zm-33.51 32.586a7.3 7.3 0 1 0-7.3-7.3 7.3 7.3 0 0 0 7.287 7.295zm-33.5 32.586a6.378 6.378 0 1 0-6.378-6.378 6.379 6.379 0 0 0 6.361 6.373zm335.48-260.693a13.747 13.747 0 1 0-13.75-13.745 13.744 13.744 0 0 0 13.732 13.741zm-33.51 32.586a12.826 12.826 0 1 0-12.826-12.826 12.823 12.823 0 0 0 12.808 12.822zm-33.5 32.586a11.9 11.9 0 1 0-11.907-11.9 11.9 11.9 0 0 0 11.885 11.896zm-33.51 32.586a10.983 10.983 0 1 0-10.983-10.983 10.977 10.977 0 0 0 10.96 10.978zm-33.5 32.586a10.061 10.061 0 1 0-10.064-10.059 10.062 10.062 0 0 0 10.037 10.054zm-33.51 32.591a9.142 9.142 0 1 0-9.14-9.145 9.148 9.148 0 0 0 9.113 9.141zm-33.5 32.586a8.221 8.221 0 1 0-8.221-8.221 8.221 8.221 0 0 0 8.189 8.217zm-33.51 32.586a7.3 7.3 0 1 0-7.3-7.3 7.3 7.3 0 0 0 7.268 7.295zm-33.5 32.586a6.378 6.378 0 1 0-6.378-6.378 6.379 6.379 0 0 0 6.341 6.373zm335.48-260.693a13.747 13.747 0 1 0-13.75-13.745 13.744 13.744 0 0 0 13.713 13.741zm-33.51 32.586a12.826 12.826 0 1 0-12.826-12.826 12.823 12.823 0 0 0 12.788 12.822zm-33.5 32.586a11.9 11.9 0 1 0-11.907-11.9 11.9 11.9 0 0 0 11.865 11.896zm-33.51 32.586a10.983 10.983 0 1 0-10.983-10.983 10.981 10.981 0 0 0 10.941 10.978zm-33.5 32.586a10.061 10.061 0 1 0-10.064-10.059 10.057 10.057 0 0 0 10.017 10.054zm-33.51 32.591a9.142 9.142 0 1 0-9.14-9.145 9.148 9.148 0 0 0 9.093 9.141zm-33.5 32.586a8.221 8.221 0 1 0-8.221-8.221 8.221 8.221 0 0 0 8.169 8.217zm-33.51 32.586a7.3 7.3 0 1 0-7.3-7.3 7.3 7.3 0 0 0 7.248 7.295zm-33.5 32.586a6.378 6.378 0 1 0-6.378-6.378 6.383 6.383 0 0 0 6.321 6.373zM560.8 958.457a13.747 13.747 0 1 0-13.745-13.745 13.746 13.746 0 0 0 13.745 13.745zm-33.5 32.586a12.826 12.826 0 1 0-12.826-12.826 12.823 12.823 0 0 0 12.826 12.826zm-33.51 32.586a11.9 11.9 0 1 0-11.9-11.9 11.9 11.9 0 0 0 11.899 11.9zm-33.5 32.586a10.983 10.983 0 1 0-10.983-10.983 10.981 10.981 0 0 0 10.977 10.982zm-33.5 32.586a10.061 10.061 0 1 0-10.064-10.059 10.057 10.057 0 0 0 10.053 10.058zm-33.51 32.591a9.142 9.142 0 1 0-9.14-9.145 9.144 9.144 0 0 0 9.129 9.145zm-33.5 32.586a8.221 8.221 0 1 0-8.221-8.221 8.22 8.22 0 0 0 8.205 8.221zm-33.51 32.586a7.3 7.3 0 1 0-7.3-7.3 7.3 7.3 0 0 0 7.284 7.299zm-33.5 32.586a6.378 6.378 0 1 0-6.378-6.378 6.383 6.383 0 0 0 6.357 6.377z" transform="translate(-84.111 -603.26)"/>
</svg>
