<svg xmlns="http://www.w3.org/2000/svg" width="497.484" height="583.752" viewBox="0 0 497.484 583.752">
    <path fill="#eaf7ff" d="M375.984 881.23a13.9 13.9 0 1 1-13.9 13.9 13.9 13.9 0 0 1 13.9-13.9zM331.2 863.377a13.03 13.03 0 1 0 13.032-13.032 13.028 13.028 0 0 0-13.032 13.032zm-30.89-31.761a12.156 12.156 0 1 0 12.156-12.156 12.157 12.157 0 0 0-12.156 12.156zm-30.886-31.756a11.283 11.283 0 1 0 11.286-11.286 11.282 11.282 0 0 0-11.286 11.285zm-30.885-31.76a10.412 10.412 0 1 0 10.41-10.41 10.408 10.408 0 0 0-10.41 10.41zm-30.886-31.757a9.539 9.539 0 1 0 9.539-9.539 9.541 9.541 0 0 0-9.539 9.537zm-30.885-31.763a8.665 8.665 0 1 0 8.663-8.663 8.666 8.666 0 0 0-8.663 8.663zm-30.886-31.757a7.792 7.792 0 1 0 7.792-7.792 7.792 7.792 0 0 0-7.792 7.792zM115 641.061a6.918 6.918 0 1 0 6.916-6.916 6.921 6.921 0 0 0-6.916 6.916zM84.111 609.3a6.045 6.045 0 1 0 6.045-6.045 6.043 6.043 0 0 0-6.045 6.045zm341.872 285.833a13.9 13.9 0 1 0 13.9-13.9 13.9 13.9 0 0 0-13.9 13.9zM395.1 863.377a13.03 13.03 0 1 0 13.032-13.032 13.028 13.028 0 0 0-13.032 13.032zm-30.886-31.761a12.156 12.156 0 1 0 12.156-12.156 12.157 12.157 0 0 0-12.158 12.156zm-30.886-31.756a11.283 11.283 0 1 0 11.286-11.286 11.282 11.282 0 0 0-11.287 11.285zm-30.887-31.76a10.41 10.41 0 1 0 10.41-10.41 10.408 10.408 0 0 0-10.41 10.41zm-30.886-31.757a9.539 9.539 0 1 0 9.539-9.539 9.541 9.541 0 0 0-9.539 9.537zM240.67 704.58a8.665 8.665 0 1 0 8.663-8.663 8.666 8.666 0 0 0-8.663 8.663zm-30.886-31.757a7.792 7.792 0 1 0 7.792-7.792 7.792 7.792 0 0 0-7.792 7.792zM178.9 641.061a6.918 6.918 0 1 0 6.916-6.916 6.921 6.921 0 0 0-6.916 6.916zM148.013 609.3a6.045 6.045 0 1 0 6.045-6.045 6.043 6.043 0 0 0-6.045 6.045zm341.873 285.833a13.9 13.9 0 1 0 13.9-13.9 13.9 13.9 0 0 0-13.9 13.9zM459 863.377a13.03 13.03 0 1 0 13.033-13.032A13.028 13.028 0 0 0 459 863.377zm-30.886-31.761a12.156 12.156 0 1 0 12.156-12.156 12.157 12.157 0 0 0-12.156 12.156zm-30.885-31.756a11.283 11.283 0 1 0 11.286-11.286 11.282 11.282 0 0 0-11.286 11.285zm-30.886-31.76a10.41 10.41 0 1 0 10.41-10.41 10.408 10.408 0 0 0-10.41 10.41zm-30.886-31.757A9.536 9.536 0 1 0 345 726.8a9.538 9.538 0 0 0-9.542 9.541zm-30.885-31.763a8.665 8.665 0 1 0 8.663-8.663 8.666 8.666 0 0 0-8.663 8.663zm-30.886-31.757a7.792 7.792 0 1 0 7.792-7.792 7.792 7.792 0 0 0-7.791 7.792zM242.8 641.061a6.918 6.918 0 1 0 6.916-6.916 6.917 6.917 0 0 0-6.916 6.916zM211.915 609.3a6.045 6.045 0 1 0 6.045-6.045 6.043 6.043 0 0 0-6.045 6.045zm341.873 285.833a13.9 13.9 0 1 0 13.9-13.9 13.9 13.9 0 0 0-13.9 13.9zM522.9 863.377a13.03 13.03 0 1 0 13.027-13.032 13.027 13.027 0 0 0-13.027 13.032zm-30.886-31.761a12.156 12.156 0 1 0 12.156-12.156 12.154 12.154 0 0 0-12.153 12.156zm-30.886-31.756a11.283 11.283 0 1 0 11.28-11.286 11.281 11.281 0 0 0-11.277 11.285zm-30.883-31.76a10.41 10.41 0 1 0 10.41-10.41 10.408 10.408 0 0 0-10.41 10.41zm-30.885-31.759a9.536 9.536 0 1 0 9.54-9.541 9.538 9.538 0 0 0-9.54 9.541zm-30.886-31.761a8.663 8.663 0 1 0 8.663-8.663 8.666 8.666 0 0 0-8.663 8.663zm-30.886-31.757a7.789 7.789 0 1 0 7.792-7.792 7.792 7.792 0 0 0-7.791 7.792zM306.7 641.061a6.918 6.918 0 1 0 6.916-6.916 6.917 6.917 0 0 0-6.916 6.916zM275.818 609.3a6.045 6.045 0 1 0 6.045-6.045 6.043 6.043 0 0 0-6.045 6.045zm68.41 330.618A13.03 13.03 0 1 0 331.2 926.9a13.024 13.024 0 0 0 13.028 13.023zm-31.762 30.885a12.157 12.157 0 1 0-12.156-12.157 12.154 12.154 0 0 0 12.156 12.162zm-31.756 30.886a11.283 11.283 0 1 0-11.286-11.281 11.282 11.282 0 0 0 11.286 11.286zm-31.762 30.885a10.41 10.41 0 1 0-10.41-10.41 10.409 10.409 0 0 0 10.41 10.415zm-31.756 30.886a9.536 9.536 0 1 0-9.539-9.534 9.537 9.537 0 0 0 9.539 9.539zm-31.762 30.891a8.665 8.665 0 1 0-8.663-8.668 8.668 8.668 0 0 0 8.663 8.672zm-31.756 30.886a7.792 7.792 0 1 0-7.792-7.792 7.792 7.792 0 0 0 7.792 7.796zm-31.762 30.885a6.918 6.918 0 1 0-6.916-6.921 6.922 6.922 0 0 0 6.916 6.925zm-31.756 30.886a6.045 6.045 0 1 0-6.045-6.045 6.046 6.046 0 0 0 6.045 6.049zM408.13 939.923A13.03 13.03 0 1 0 395.1 926.9a13.027 13.027 0 0 0 13.03 13.023zm-31.762 30.885a12.157 12.157 0 1 0-12.156-12.157 12.154 12.154 0 0 0 12.157 12.157zm-31.756 30.886a11.283 11.283 0 1 0-11.286-11.281 11.282 11.282 0 0 0 11.286 11.281zm-31.762 30.885a10.41 10.41 0 1 0-10.41-10.41 10.4 10.4 0 0 0 10.411 10.41zm-31.756 30.886a9.536 9.536 0 1 0-9.539-9.534 9.537 9.537 0 0 0 9.539 9.534zm-31.762 30.891a8.665 8.665 0 1 0-8.663-8.668 8.671 8.671 0 0 0 8.664 8.667zm-31.756 30.886a7.792 7.792 0 1 0-7.792-7.792 7.792 7.792 0 0 0 7.792 7.791zm-31.762 30.885a6.918 6.918 0 1 0-6.916-6.921 6.922 6.922 0 0 0 6.917 6.92zm-31.756 30.886a6.045 6.045 0 1 0-6.045-6.045 6.046 6.046 0 0 0 6.045 6.044zm317.975-247.09A13.03 13.03 0 1 0 459 926.9a13.027 13.027 0 0 0 13.033 13.023zm-31.762 30.885a12.157 12.157 0 1 0-12.156-12.157 12.154 12.154 0 0 0 12.156 12.157zm-31.756 30.886a11.283 11.283 0 1 0-11.286-11.281 11.282 11.282 0 0 0 11.285 11.281zm-31.762 30.885a10.41 10.41 0 1 0-10.41-10.41 10.408 10.408 0 0 0 10.41 10.41zM345 1063.465a9.536 9.536 0 1 0-9.539-9.534 9.532 9.532 0 0 0 9.539 9.534zm-31.762 30.891a8.665 8.665 0 1 0-8.663-8.668 8.671 8.671 0 0 0 8.66 8.667zm-31.757 30.886a7.792 7.792 0 1 0-7.792-7.792 7.792 7.792 0 0 0 7.789 7.791zm-31.761 30.885a6.918 6.918 0 1 0-6.916-6.921 6.922 6.922 0 0 0 6.913 6.92zm-31.757 30.886a6.045 6.045 0 1 0-6.045-6.045 6.05 6.05 0 0 0 6.042 6.044zm317.967-247.09A13.03 13.03 0 1 0 522.9 926.9a13.028 13.028 0 0 0 13.03 13.023zm-31.757 30.885a12.157 12.157 0 1 0-12.156-12.157 12.154 12.154 0 0 0 12.156 12.157zm-31.762 30.886a11.283 11.283 0 1 0-11.28-11.281 11.283 11.283 0 0 0 11.281 11.281zm-31.756 30.885a10.41 10.41 0 1 0-10.41-10.41 10.408 10.408 0 0 0 10.41 10.41zm-31.755 30.886a9.536 9.536 0 1 0-9.539-9.534 9.532 9.532 0 0 0 9.539 9.534zm-31.762 30.891a8.665 8.665 0 1 0-8.663-8.668 8.667 8.667 0 0 0 8.662 8.667zm-31.756 30.886a7.792 7.792 0 1 0-7.792-7.792 7.791 7.791 0 0 0 7.791 7.791zm-31.762 30.885a6.918 6.918 0 1 0-6.916-6.921 6.922 6.922 0 0 0 6.915 6.92zm-31.756 30.886a6.045 6.045 0 1 0-6.045-6.045 6.049 6.049 0 0 0 6.044 6.044z" transform="translate(-84.111 -603.26)"/>
</svg>
