<svg xmlns="http://www.w3.org/2000/svg" width="60" height="60.003" viewBox="0 0 60 60.003">
    <path fill="#fd7831" d="M56.457 28.859h-1.834v-.565a2.087 2.087 0 0 0-2.086-2.083h-1.273a2.087 2.087 0 0 0-2.086 2.083v.565h-4.77v-.565a2.087 2.087 0 0 0-1.854-2.069V.94a.937.937 0 0 0-.937-.94H.955a.937.937 0 0 0-.937.94v58.13a.937.937 0 0 0 .937.937h55.5a3.458 3.458 0 0 0 3.561-3.335V32.191a3.456 3.456 0 0 0-3.559-3.332zm-5.4-.565a.214.214 0 0 1 .212-.209h1.272a.214.214 0 0 1 .213.209v3.7a.214.214 0 0 1-.213.209h-1.277a.214.214 0 0 1-.212-.209zm-1.874 2.438v1.259a2.087 2.087 0 0 0 2.086 2.083h1.272a2.087 2.087 0 0 0 2.086-2.083v-1.259h1.834a1.587 1.587 0 0 1 1.687 1.458v3.432h-32.4v-3.431a1.587 1.587 0 0 1 1.688-1.458h1.312v1.259a2.087 2.087 0 0 0 2.086 2.083h1.272a2.087 2.087 0 0 0 2.086-2.083v-1.26h4.77v1.259a2.087 2.087 0 0 0 2.086 2.083h1.272a2.087 2.087 0 0 0 2.086-2.083v-1.259zm-18.562 1.259v-3.7a.214.214 0 0 1 .212-.209h1.272a.214.214 0 0 1 .212.209v3.7a.214.214 0 0 1-.212.209h-1.271a.214.214 0 0 1-.213-.209zm11.7-3.907a.214.214 0 0 1 .213.209v3.7a.214.214 0 0 1-.213.209h-1.272a.214.214 0 0 1-.213-.209v-3.7a.214.214 0 0 1 .213-.209zM1.892 1.877H40.68v24.369a2.086 2.086 0 0 0-1.717 2.048v.565h-4.77v-.565a2.087 2.087 0 0 0-2.086-2.083h-1.273a2.087 2.087 0 0 0-2.086 2.083v.565h-1.313a3.456 3.456 0 0 0-3.561 3.332v24.48a3.144 3.144 0 0 0 .361 1.462H1.892zm54.565 56.256H27.435a1.608 1.608 0 0 1-1.688-1.462V37.5h32.4v19.171a1.589 1.589 0 0 1-1.69 1.462zM35.4 40.369h-4.81a.937.937 0 0 0-.937.937v4.807a.937.937 0 0 0 .937.937h4.81a.937.937 0 0 0 .937-.937v-4.807a.937.937 0 0 0-.937-.937zm-.937 4.807h-2.938v-2.933h2.937zm9.807-4.807h-4.809a.937.937 0 0 0-.937.937v4.807a.937.937 0 0 0 .937.937h4.807a.937.937 0 0 0 .937-.937v-4.807a.937.937 0 0 0-.937-.937zm-.937 4.807H40.4v-2.933h2.933zm-7.933 3.4h-4.81a.937.937 0 0 0-.937.937v4.807a.937.937 0 0 0 .937.937h4.81a.937.937 0 0 0 .937-.937v-4.805a.937.937 0 0 0-.937-.937zm-.937 4.807h-2.938v-2.931h2.937zm9.807-4.807h-4.809a.937.937 0 0 0-.937.937v4.807a.937.937 0 0 0 .937.937h4.807a.937.937 0 0 0 .937-.937v-4.805a.937.937 0 0 0-.937-.937zm-.937 4.807H40.4v-2.931h2.933zm9.976-13.016H48.5a.937.937 0 0 0-.937.937v4.807a.937.937 0 0 0 .937.937h4.81a.937.937 0 0 0 .937-.937v-4.805a.937.937 0 0 0-.94-.937zm-.937 4.807h-2.938v-2.931h2.937zm.937 3.4H48.5a.937.937 0 0 0-.937.937v4.807a.937.937 0 0 0 .937.937h4.81a.937.937 0 0 0 .937-.937v-4.803a.937.937 0 0 0-.94-.937zm-.937 4.807h-2.938v-2.929h2.937zM5.768 16.759V6.69a.937.937 0 0 1 .937-.937h10.887a.937.937 0 0 1 0 1.874h-9.95v8.2h9.013v-2.855l-1.742 1.582a.937.937 0 0 1-1.292-.031l-2.136-2.133a.937.937 0 0 1 1.324-1.326l1.5 1.5 4.522-4.1A.937.937 0 0 1 20.1 9.849l-1.566 1.422v5.489a.937.937 0 0 1-.937.937H6.705a.937.937 0 0 1-.937-.937zm0 18.278V24.972a.937.937 0 0 1 .937-.937h10.887a.937.937 0 0 1 0 1.874h-9.95V34.1h9.013v-2.847l-1.742 1.582a.937.937 0 0 1-1.293-.035l-2.136-2.136a.937.937 0 0 1 1.325-1.325l1.5 1.5 4.522-4.1A.937.937 0 0 1 20.1 28.13l-1.566 1.422v5.486a.937.937 0 0 1-.937.937H6.705a.937.937 0 0 1-.937-.937zm14.391 10.052a.937.937 0 0 1-.065 1.323l-1.566 1.42v5.487a.937.937 0 0 1-.937.937H6.705a.937.937 0 0 1-.937-.937V43.253a.937.937 0 0 1 .937-.937h10.887a.937.937 0 1 1 0 1.874h-9.95v8.192h9.013v-2.85l-1.743 1.581a.937.937 0 0 1-1.291-.031l-2.136-2.133a.937.937 0 0 1 1.324-1.326l1.505 1.5 4.522-4.1a.937.937 0 0 1 1.323.065zm3.714-38.4a.937.937 0 0 1 .937-.937h12.183a.937.937 0 0 1 0 1.874H24.81a.937.937 0 0 1-.937-.937zm0 5.033a.937.937 0 0 1 .937-.937h12.183a.937.937 0 0 1 0 1.874H24.81a.937.937 0 0 1-.937-.937z" transform="translate(-.018 -.003)"/>
</svg>
