<svg xmlns="http://www.w3.org/2000/svg" width="474" height="474.463" viewBox="0 0 474 474.463">
    <path fill="rgba(93,198,253,0.15)" stroke="rgba(0,0,0,0)" stroke-miterlimit="10" d="M5720.814-1054.092a1.088 1.088 0 0 1 1.087-1.092 1.093 1.093 0 0 1 1.092 1.092 1.089 1.089 0 0 1-1.093 1.092 1.084 1.084 0 0 1-1.086-1.092zm-32.824-1.149a1.017 1.017 0 0 1 1.019-1.018 1.017 1.017 0 0 1 1.017 1.018 1.019 1.019 0 0 1-1.017 1.018 1.02 1.02 0 0 1-1.019-1.018zm65.555-2.294a1.088 1.088 0 0 1 1.088-1.088 1.09 1.09 0 0 1 1.092 1.088 1.092 1.092 0 0 1-1.092 1.092 1.091 1.091 0 0 1-1.089-1.092zm-97.968-3.421a1.018 1.018 0 0 1 1.019-1.018 1.019 1.019 0 0 1 1.018 1.018 1.022 1.022 0 0 1-1.018 1.019 1.021 1.021 0 0 1-1.019-1.02zm129.83-4.541a1.164 1.164 0 0 1 1.164-1.163 1.163 1.163 0 0 1 1.163 1.163 1.163 1.163 0 0 1-1.163 1.163 1.164 1.164 0 0 1-1.164-1.166zm-161.13-5.634a1.016 1.016 0 0 1 1.016-1.017 1.018 1.018 0 0 1 1.018 1.017 1.018 1.018 0 0 1-1.018 1.018 1.016 1.016 0 0 1-1.017-1.019zm81.394-9.034a8 8 0 0 1 8-8 8 8 0 0 1 8 8 8 8 0 0 1-8 8 8 8 0 0 1-8.001-8.001zm32.806-2.583a8 8 0 0 1 8-8 7.994 7.994 0 0 1 8 8 7.994 7.994 0 0 1-8 8 8 8 0 0 1-8-8.001zm-65.537 0a7.924 7.924 0 0 1 7.923-7.925 7.924 7.924 0 0 1 7.923 7.925 7.925 7.925 0 0 1-7.923 7.925 7.924 7.924 0 0 1-7.923-7.927zm142.984 4.92a1.165 1.165 0 0 1 1.164-1.164 1.162 1.162 0 0 1 1.162 1.164 1.162 1.162 0 0 1-1.162 1.163 1.164 1.164 0 0 1-1.164-1.165zm-45.45-12.606a8 8 0 0 1 7.995-8 8 8 0 0 1 7.994 8 8 8 0 0 1-7.994 8 8 8 0 0 1-7.995-8.001zm-129.532 0a7.924 7.924 0 0 1 7.924-7.923 7.924 7.924 0 0 1 7.921 7.923 7.925 7.925 0 0 1-7.921 7.927 7.925 7.925 0 0 1-7.924-7.928zm-46.179 4.873a.946.946 0 0 1 .944-.944.946.946 0 0 1 .948.944.946.946 0 0 1-.948.943.945.945 0 0 1-.944-.944zm249.665-8.729a1.163 1.163 0 0 1 1.162-1.163 1.164 1.164 0 0 1 1.164 1.163 1.165 1.165 0 0 1-1.164 1.164 1.163 1.163 0 0 1-1.162-1.165zm-43.553-8.738a8 8 0 0 1 8-8 8 8 0 0 1 8 8 8 8 0 0 1-8 8 8 8 0 0 1-8-8.001zm-190.262 0a7.851 7.851 0 0 1 7.851-7.852 7.852 7.852 0 0 1 7.852 7.852 7.853 7.853 0 0 1-7.852 7.852 7.852 7.852 0 0 1-7.851-7.853zm86.971-3.544a7.851 7.851 0 0 1 7.851-7.849 7.847 7.847 0 0 1 7.85 7.849 7.847 7.847 0 0 1-7.85 7.852 7.851 7.851 0 0 1-7.851-7.852zm32.863-1.473a7.851 7.851 0 0 1 7.85-7.853 7.85 7.85 0 0 1 7.852 7.853 7.848 7.848 0 0 1-7.852 7.848 7.85 7.85 0 0 1-7.85-7.848zm-162.97 4.074a.945.945 0 0 1 .944-.946.945.945 0 0 1 .945.946.944.944 0 0 1-.945.944.945.945 0 0 1-.943-.944zm97.437-7.015a7.925 7.925 0 0 1 7.925-7.927 7.924 7.924 0 0 1 7.92 7.927 7.923 7.923 0 0 1-7.92 7.923 7.925 7.925 0 0 1-7.924-7.923zm97.6-4.383a7.854 7.854 0 0 1 7.851-7.852 7.851 7.851 0 0 1 7.851 7.852 7.848 7.848 0 0 1-7.851 7.853 7.851 7.851 0 0 1-7.847-7.854zm66.34-4.859a8.069 8.069 0 0 1 8.069-8.066 8.07 8.07 0 0 1 8.071 8.066 8.071 8.071 0 0 1-8.071 8.071 8.07 8.07 0 0 1-8.065-8.071zm-246.227 0a7.776 7.776 0 0 1 7.776-7.778 7.777 7.777 0 0 1 7.776 7.778 7.778 7.778 0 0 1-7.776 7.782 7.777 7.777 0 0 1-7.771-7.782zm51-.927a7.924 7.924 0 0 1 7.92-7.927 7.925 7.925 0 0 1 7.925 7.927 7.924 7.924 0 0 1-7.925 7.923 7.923 7.923 0 0 1-7.918-7.923zm236.735 6.6a1.163 1.163 0 0 1 1.164-1.163 1.162 1.162 0 0 1 1.162 1.163 1.162 1.162 0 0 1-1.162 1.163 1.163 1.163 0 0 1-1.162-1.167zm-77.6-13.74a7.852 7.852 0 0 1 7.851-7.853 7.852 7.852 0 0 1 7.851 7.853 7.855 7.855 0 0 1-7.851 7.852 7.855 7.855 0 0 1-7.845-7.857zm-249.679 2.3a.873.873 0 0 1 .873-.871.874.874 0 0 1 .875.871.877.877 0 0 1-.875.873.876.876 0 0 1-.867-.878zm148.541-7.466a5.6 5.6 0 0 1 5.6-5.6 5.6 5.6 0 0 1 5.6 5.6 5.6 5.6 0 0 1-5.6 5.6 5.6 5.6 0 0 1-5.594-5.605zm32.954 0a5.524 5.524 0 0 1 5.522-5.528 5.525 5.525 0 0 1 5.526 5.528 5.525 5.525 0 0 1-5.526 5.524 5.524 5.524 0 0 1-5.517-5.527zm-119.925-3.282a7.926 7.926 0 0 1 7.925-7.927 7.925 7.925 0 0 1 7.922 7.927 7.924 7.924 0 0 1-7.922 7.923 7.925 7.925 0 0 1-7.919-7.926zm249.223-4.855a8.07 8.07 0 0 1 8.07-8.071 8.07 8.07 0 0 1 8.069 8.071 8.069 8.069 0 0 1-8.069 8.069 8.069 8.069 0 0 1-8.064-8.071zm-296.275 0a7.779 7.779 0 0 1 7.778-7.779 7.779 7.779 0 0 1 7.781 7.779 7.779 7.779 0 0 1-7.781 7.778 7.778 7.778 0 0 1-7.773-7.78zm101.864 1.3a5.594 5.594 0 0 1 5.6-5.6 5.6 5.6 0 0 1 5.6 5.6 5.6 5.6 0 0 1-5.6 5.6 5.6 5.6 0 0 1-5.594-5.602zm97.277 0a5.523 5.523 0 0 1 5.521-5.528 5.525 5.525 0 0 1 5.523 5.528 5.525 5.525 0 0 1-5.523 5.524 5.523 5.523 0 0 1-5.515-5.526zm136.48 2.063a1.162 1.162 0 0 1 1.162-1.163 1.163 1.163 0 0 1 1.163 1.163 1.163 1.163 0 0 1-1.163 1.163 1.162 1.162 0 0 1-1.156-1.168zm-73.006-8.188a7.852 7.852 0 0 1 7.851-7.852 7.851 7.851 0 0 1 7.85 7.852 7.851 7.851 0 0 1-7.85 7.853 7.852 7.852 0 0 1-7.845-7.857zm-190.79-7.251a5.6 5.6 0 0 1 5.6-5.6 5.6 5.6 0 0 1 5.6 5.6 5.6 5.6 0 0 1-5.6 5.6 5.6 5.6 0 0 1-5.594-5.604zm157.351 0a5.524 5.524 0 0 1 5.522-5.528 5.524 5.524 0 0 1 5.526 5.528 5.523 5.523 0 0 1-5.526 5.523 5.523 5.523 0 0 1-5.517-5.527zm-207.913-3.583a7.994 7.994 0 0 1 8-8 8 8 0 0 1 8 8 8 8 0 0 1-8 8 7.994 7.994 0 0 1-7.995-8.005zm-56.934 6.043a.873.873 0 0 1 .869-.874.874.874 0 0 1 .875.874.874.874 0 0 1-.875.875.873.873 0 0 1-.863-.88zm196.691-7.863a3.271 3.271 0 0 1 3.271-3.271 3.272 3.272 0 0 1 3.271 3.271 3.272 3.272 0 0 1-3.271 3.271 3.271 3.271 0 0 1-3.265-3.276zm-32.789-2.063a3.271 3.271 0 0 1 3.271-3.271 3.271 3.271 0 0 1 3.271 3.271 3.271 3.271 0 0 1-3.271 3.271 3.271 3.271 0 0 1-3.265-3.276zm189.416-5.484a8.069 8.069 0 0 1 8.069-8.071 8.069 8.069 0 0 1 8.067 8.071 8.069 8.069 0 0 1-8.067 8.071 8.069 8.069 0 0 1-8.063-8.076zm-338.944 0a7.7 7.7 0 0 1 7.706-7.7 7.7 7.7 0 0 1 7.7 7.7 7.706 7.706 0 0 1-7.7 7.708 7.708 7.708 0 0 1-7.7-7.715zm307.696-2.542a7.851 7.851 0 0 1 7.848-7.852 7.851 7.851 0 0 1 7.85 7.852 7.852 7.852 0 0 1-7.85 7.853 7.851 7.851 0 0 1-7.848-7.853zm-93.029 3.925a3.2 3.2 0 0 1 3.2-3.2 3.2 3.2 0 0 1 3.2 3.2 3.2 3.2 0 0 1-3.2 3.2 3.2 3.2 0 0 1-3.199-3.2zm161.6.368a1.164 1.164 0 0 1 1.164-1.163 1.162 1.162 0 0 1 1.163 1.163 1.162 1.162 0 0 1-1.163 1.163 1.164 1.164 0 0 1-1.162-1.163zm-309.814-8.138a5.67 5.67 0 0 1 5.67-5.672 5.67 5.67 0 0 1 5.667 5.672 5.67 5.67 0 0 1-5.667 5.673 5.67 5.67 0 0 1-5.668-5.673zm210.626 0a5.526 5.526 0 0 1 5.521-5.528 5.528 5.528 0 0 1 5.527 5.528 5.524 5.524 0 0 1-5.527 5.524 5.522 5.522 0 0 1-5.519-5.524zm-158.792 1.711a3.271 3.271 0 0 1 3.271-3.272 3.272 3.272 0 0 1 3.271 3.272 3.272 3.272 0 0 1-3.271 3.271 3.271 3.271 0 0 1-3.27-3.271zm-97.366-10.739a7.994 7.994 0 0 1 8-8 8 8 0 0 1 7.994 8 8 8 0 0 1-7.994 8 8 8 0 0 1-7.998-7.999zm223.47 2.81a3.2 3.2 0 0 1 3.2-3.2 3.194 3.194 0 0 1 3.2 3.2 3.2 3.2 0 0 1-3.2 3.2 3.2 3.2 0 0 1-3.195-3.2zm-276.131.091a.8.8 0 0 1 .8-.8.8.8 0 0 1 .8.8.8.8 0 0 1-.8.8.8.8 0 0 1-.799-.799zm208.158-5.9a.945.945 0 0 1 .945-.946.945.945 0 0 1 .944.946.946.946 0 0 1-.944.946.946.946 0 0 1-.944-.95zm-85.944-3.866a3.343 3.343 0 0 1 3.347-3.343 3.342 3.342 0 0 1 3.342 3.343 3.342 3.342 0 0 1-3.342 3.342 3.342 3.342 0 0 1-3.346-3.346zm265.743-5.785a8 8 0 0 1 8-8 8 8 0 0 1 7.994 8 8 8 0 0 1-7.994 8 7.993 7.993 0 0 1-8-8.004zm-373.335 0a7.633 7.633 0 0 1 7.633-7.634 7.631 7.631 0 0 1 7.631 7.634 7.631 7.631 0 0 1-7.631 7.634 7.633 7.633 0 0 1-7.632-7.638zm344.148-1.092a7.85 7.85 0 0 1 7.849-7.849 7.849 7.849 0 0 1 7.852 7.849 7.849 7.849 0 0 1-7.852 7.852 7.85 7.85 0 0 1-7.849-7.856zm-118.209 5.61a.943.943 0 0 1 .945-.943.946.946 0 0 1 .943.943.946.946 0 0 1-.943.944.944.944 0 0 1-.945-.949zm-64.8 0a.945.945 0 0 1 .944-.943.943.943 0 0 1 .943.943.943.943 0 0 1-.943.944.945.945 0 0 1-.946-.949zm-99.566-7.275a5.672 5.672 0 0 1 5.671-5.673 5.67 5.67 0 0 1 5.669 5.673 5.669 5.669 0 0 1-5.669 5.672 5.671 5.671 0 0 1-5.673-5.676zm254.629 0a5.524 5.524 0 0 1 5.522-5.524 5.524 5.524 0 0 1 5.522 5.524 5.523 5.523 0 0 1-5.522 5.523 5.523 5.523 0 0 1-5.524-5.527zm92.64 3.511a1.162 1.162 0 0 1 1.163-1.163 1.164 1.164 0 0 1 1.164 1.163 1.164 1.164 0 0 1-1.164 1.163 1.162 1.162 0 0 1-1.165-1.168zm-122.016-6.238a3.2 3.2 0 0 1 3.2-3.2 3.2 3.2 0 0 1 3.2 3.2 3.2 3.2 0 0 1-3.2 3.2 3.2 3.2 0 0 1-3.202-3.205zm-265.655-10.107a7.994 7.994 0 0 1 8-8 8 8 0 0 1 7.994 8 8 8 0 0 1-7.994 8 8 8 0 0 1-8.003-8.005zm110.666 5.214a1.017 1.017 0 0 1 1.016-1.017 1.018 1.018 0 0 1 1.019 1.017 1.018 1.018 0 0 1-1.019 1.018 1.018 1.018 0 0 1-1.018-1.023zm123.333 0a.944.944 0 0 1 .946-.944.946.946 0 0 1 .945.944.946.946 0 0 1-.945.945.945.945 0 0 1-.949-.95zm-283.173-4.139a.8.8 0 0 1 .8-.8.8.8 0 0 1 .8.8.8.8 0 0 1-.8.8.8.8 0 0 1-.803-.805zm113.113-3.653a3.341 3.341 0 0 1 3.342-3.344 3.342 3.342 0 0 1 3.341 3.344 3.344 3.344 0 0 1-3.341 3.347 3.343 3.343 0 0 1-3.345-3.352zm300.82-12.24a8 8 0 0 1 8-8 8 8 0 0 1 7.995 8 8 8 0 0 1-7.995 8 8 8 0 0 1-8.003-8.002zm-398.517 0a7.635 7.635 0 0 1 7.632-7.633 7.635 7.635 0 0 1 7.633 7.633 7.636 7.636 0 0 1-7.633 7.638 7.636 7.636 0 0 1-7.631-7.64zm371.013-.325a7.849 7.849 0 0 1 7.85-7.852 7.851 7.851 0 0 1 7.85 7.852 7.852 7.852 0 0 1-7.85 7.852 7.85 7.85 0 0 1-7.853-7.857zm-313.292-.5a5.671 5.671 0 0 1 5.671-5.673 5.671 5.671 0 0 1 5.67 5.673 5.67 5.67 0 0 1-5.67 5.672 5.671 5.671 0 0 1-5.674-5.681zm287.506 0a5.525 5.525 0 0 1 5.524-5.524 5.524 5.524 0 0 1 5.524 5.524 5.524 5.524 0 0 1-5.524 5.526 5.525 5.525 0 0 1-5.526-5.535zm-26.5-.83a3.2 3.2 0 0 1 3.2-3.2 3.2 3.2 0 0 1 3.2 3.2 3.2 3.2 0 0 1-3.2 3.2 3.193 3.193 0 0 1-3.2-3.21zm114.029 1.888a1.09 1.09 0 0 1 1.091-1.09 1.09 1.09 0 0 1 1.09 1.09 1.091 1.091 0 0 1-1.09 1.091 1.091 1.091 0 0 1-1.092-1.101zm-311.606-3.4a1.093 1.093 0 0 1 1.091-1.092 1.093 1.093 0 0 1 1.093 1.092 1.092 1.092 0 0 1-1.093 1.088 1.092 1.092 0 0 1-1.091-1.094zm169.8 0a.945.945 0 0 1 .944-.945.946.946 0 0 1 .945.945.945.945 0 0 1-.945.945.944.944 0 0 1-.942-.953zm-268.831-12.818a8.069 8.069 0 0 1 8.069-8.07 8.07 8.07 0 0 1 8.068 8.07 8.07 8.07 0 0 1-8.068 8.07 8.069 8.069 0 0 1-8.067-8.078zm59.669-.569a3.416 3.416 0 0 1 3.416-3.417 3.416 3.416 0 0 1 3.416 3.417 3.416 3.416 0 0 1-3.416 3.417 3.416 3.416 0 0 1-3.413-3.425zm-106.282.8a.8.8 0 0 1 .8-.8.8.8 0 0 1 .8.8.8.8 0 0 1-.8.8.8.8 0 0 1-.797-.804zm430.685-16.247a8 8 0 0 1 8-8 8 8 0 0 1 7.994 8 8 8 0 0 1-7.994 8 8 8 0 0 1-7.998-8.001zm-26.433-.043a7.852 7.852 0 0 1 7.85-7.852 7.851 7.851 0 0 1 7.85 7.852 7.85 7.85 0 0 1-7.85 7.852 7.851 7.851 0 0 1-7.848-7.856zm-387.374.043a7.563 7.563 0 0 1 7.559-7.563 7.564 7.564 0 0 1 7.562 7.563 7.563 7.563 0 0 1-7.562 7.56 7.562 7.562 0 0 1-7.557-7.561zm55.1-.109a5.744 5.744 0 0 1 5.742-5.742 5.742 5.742 0 0 1 5.74 5.742 5.743 5.743 0 0 1-5.74 5.746 5.745 5.745 0 0 1-5.74-5.749zm307.9 0a5.525 5.525 0 0 1 5.527-5.524 5.524 5.524 0 0 1 5.522 5.524 5.524 5.524 0 0 1-5.522 5.528 5.526 5.526 0 0 1-5.527-5.531zm-24.639-.1a3.271 3.271 0 0 1 3.27-3.273 3.272 3.272 0 0 1 3.271 3.273 3.271 3.271 0 0 1-3.271 3.271 3.271 3.271 0 0 1-3.269-3.277zm108.853.238a1.093 1.093 0 0 1 1.092-1.092 1.092 1.092 0 0 1 1.091 1.092 1.092 1.092 0 0 1-1.091 1.092 1.092 1.092 0 0 1-1.089-1.098zm-333.339-.432a1.09 1.09 0 0 1 1.09-1.091 1.091 1.091 0 0 1 1.091 1.091 1.09 1.09 0 0 1-1.091 1.09 1.089 1.089 0 0 1-1.09-1.096zm199.585 0a.945.945 0 0 1 .945-.946.946.946 0 0 1 .945.946.947.947 0 0 1-.945.945.946.946 0 0 1-.945-.951zm-289.6-15.956a8.07 8.07 0 0 1 8.069-8.071 8.069 8.069 0 0 1 8.067 8.071 8.068 8.068 0 0 1-8.067 8.069 8.069 8.069 0 0 1-8.065-8.075zm57.373-.022a3.417 3.417 0 0 1 3.417-3.417 3.417 3.417 0 0 1 3.416 3.417 3.416 3.416 0 0 1-3.416 3.417 3.416 3.416 0 0 1-3.413-3.423zm-102.619.032a.728.728 0 0 1 .726-.73.727.727 0 0 1 .724.73.726.726 0 0 1-.724.726.726.726 0 0 1-.723-.732zm437.774-16.46a8 8 0 0 1 8-8 8 8 0 0 1 8 8 8 8 0 0 1-8 8 8 8 0 0 1-7.996-8.006zm-26.063 0a7.847 7.847 0 0 1 7.845-7.853 7.849 7.849 0 0 1 7.851 7.853 7.852 7.852 0 0 1-7.851 7.852 7.85 7.85 0 0 1-7.841-7.858zm-392.835 0a7.489 7.489 0 0 1 7.488-7.489 7.488 7.488 0 0 1 7.487 7.489 7.488 7.488 0 0 1-7.487 7.489 7.489 7.489 0 0 1-7.485-7.498zm54.171 0a5.746 5.746 0 0 1 5.741-5.747 5.748 5.748 0 0 1 5.746 5.747 5.744 5.744 0 0 1-5.746 5.741 5.742 5.742 0 0 1-5.738-5.747zm314.774 0a5.525 5.525 0 0 1 5.523-5.528 5.525 5.525 0 0 1 5.526 5.528 5.524 5.524 0 0 1-5.526 5.522 5.523 5.523 0 0 1-5.52-5.528zm-23.959 0a3.27 3.27 0 0 1 3.27-3.271 3.271 3.271 0 0 1 3.271 3.271 3.27 3.27 0 0 1-3.271 3.271 3.27 3.27 0 0 1-3.267-3.28zm-233.736 0a1.092 1.092 0 0 1 1.088-1.093 1.093 1.093 0 0 1 1.092 1.093 1.089 1.089 0 0 1-1.092 1.088 1.089 1.089 0 0 1-1.085-1.094zm340.84 0a1.018 1.018 0 0 1 1.018-1.018 1.015 1.015 0 0 1 1.017 1.018 1.019 1.019 0 0 1-1.017 1.017 1.021 1.021 0 0 1-1.015-1.023zm-130.991 0a.944.944 0 0 1 .944-.944.945.945 0 0 1 .946.944.945.945 0 0 1-.946.945.944.944 0 0 1-.941-.954zm-294.728-16.451a8.07 8.07 0 0 1 8.069-8.071 8.069 8.069 0 0 1 8.067 8.071 8.068 8.068 0 0 1-8.067 8.07 8.069 8.069 0 0 1-8.066-8.078zm57.3.021a3.49 3.49 0 0 1 3.49-3.49 3.49 3.49 0 0 1 3.49 3.49 3.49 3.49 0 0 1-3.49 3.489 3.49 3.49 0 0 1-3.488-3.497zm-102.546-.03a.727.727 0 0 1 .726-.73.726.726 0 0 1 .724.73.723.723 0 0 1-.724.726.724.724 0 0 1-.724-.734zm408.687-16.31a7.924 7.924 0 0 1 7.922-7.925 7.924 7.924 0 0 1 7.924 7.925 7.924 7.924 0 0 1-7.924 7.924 7.924 7.924 0 0 1-7.92-7.932zm26.581-.041a7.924 7.924 0 0 1 7.924-7.927 7.924 7.924 0 0 1 7.92 7.927 7.923 7.923 0 0 1-7.92 7.923 7.924 7.924 0 0 1-7.922-7.931zm-413.809 0a7.488 7.488 0 0 1 7.486-7.489 7.487 7.487 0 0 1 7.487 7.489 7.487 7.487 0 0 1-7.487 7.489 7.488 7.488 0 0 1-7.484-7.498zm55.026.106a5.745 5.745 0 0 1 5.742-5.746 5.743 5.743 0 0 1 5.74 5.746 5.739 5.739 0 0 1-5.74 5.742 5.741 5.741 0 0 1-5.74-5.751zm307.827 0a5.6 5.6 0 0 1 5.6-5.6 5.6 5.6 0 0 1 5.6 5.6 5.6 5.6 0 0 1-5.6 5.6 5.6 5.6 0 0 1-5.598-5.609zm-24.567.1a3.271 3.271 0 0 1 3.27-3.272 3.271 3.271 0 0 1 3.271 3.272 3.271 3.271 0 0 1-3.271 3.272 3.27 3.27 0 0 1-3.268-3.277zm-224.56.194a1.162 1.162 0 0 1 1.163-1.163 1.164 1.164 0 0 1 1.164 1.163 1.164 1.164 0 0 1-1.164 1.163 1.162 1.162 0 0 1-1.161-1.168zm199.658 0a.945.945 0 0 1 .945-.945.946.946 0 0 1 .945.945.947.947 0 0 1-.945.945.946.946 0 0 1-.943-.95zm133.827-.434a1.02 1.02 0 0 1 1.019-1.018 1.019 1.019 0 0 1 1.018 1.018 1.016 1.016 0 0 1-1.018 1.018 1.017 1.017 0 0 1-1.017-1.023zm-417.55-15.984a8.069 8.069 0 0 1 8.069-8.071 8.07 8.07 0 0 1 8.068 8.071 8.069 8.069 0 0 1-8.068 8.069 8.068 8.068 0 0 1-8.067-8.074zm59.6.568a3.489 3.489 0 0 1 3.486-3.491 3.493 3.493 0 0 1 3.491 3.491 3.493 3.493 0 0 1-3.491 3.491 3.489 3.489 0 0 1-3.485-3.496zm-106.14-.8a.73.73 0 0 1 .73-.726.728.728 0 0 1 .724.726.73.73 0 0 1-.724.73.732.732 0 0 1-.729-.739zm395.358-15.426a7.924 7.924 0 0 1 7.92-7.927 7.925 7.925 0 0 1 7.924 7.927 7.924 7.924 0 0 1-7.924 7.923 7.923 7.923 0 0 1-7.918-7.928zm27.649-.327a7.924 7.924 0 0 1 7.921-7.927 7.925 7.925 0 0 1 7.924 7.927 7.921 7.921 0 0 1-7.924 7.922 7.92 7.92 0 0 1-7.919-7.931zm-398.372 0a7.416 7.416 0 0 1 7.414-7.416 7.417 7.417 0 0 1 7.415 7.416 7.417 7.417 0 0 1-7.415 7.416 7.416 7.416 0 0 1-7.412-7.425zm57.358.83a5.817 5.817 0 0 1 5.816-5.816 5.816 5.816 0 0 1 5.814 5.816 5.816 5.816 0 0 1-5.814 5.815 5.816 5.816 0 0 1-5.814-5.823zm287.578 0a5.6 5.6 0 0 1 5.6-5.6 5.6 5.6 0 0 1 5.6 5.6 5.6 5.6 0 0 1-5.6 5.6 5.6 5.6 0 0 1-5.598-5.608zm-26.574.829a3.343 3.343 0 0 1 3.346-3.342 3.343 3.343 0 0 1 3.343 3.342 3.344 3.344 0 0 1-3.343 3.343 3.343 3.343 0 0 1-3.344-3.351zm-197.5 1.512a1.161 1.161 0 0 1 1.161-1.162 1.162 1.162 0 0 1 1.163 1.162 1.161 1.161 0 0 1-1.163 1.162 1.161 1.161 0 0 1-1.157-1.17zm169.8 0a1.016 1.016 0 0 1 1.018-1.018 1.019 1.019 0 0 1 1.018 1.018 1.019 1.019 0 0 1-1.018 1.018 1.017 1.017 0 0 1-1.015-1.026zm141.952-3.4a1.019 1.019 0 0 1 1.019-1.018 1.022 1.022 0 0 1 1.018 1.018 1.02 1.02 0 0 1-1.018 1.018 1.017 1.017 0 0 1-1.016-1.026zm-399.149-14.588a8.068 8.068 0 0 1 8.067-8.07 8.069 8.069 0 0 1 8.068 8.07 8.069 8.069 0 0 1-8.068 8.071 8.069 8.069 0 0 1-8.065-8.079zm63.864 2.575a3.492 3.492 0 0 1 3.491-3.491 3.492 3.492 0 0 1 3.49 3.491 3.492 3.492 0 0 1-3.49 3.491 3.492 3.492 0 0 1-3.488-3.498zm-112.891-3.648a.727.727 0 0 1 .726-.73.726.726 0 0 1 .724.73.725.725 0 0 1-.724.725.726.726 0 0 1-.724-.733zm159.622-4.141a1.163 1.163 0 0 1 1.162-1.164 1.164 1.164 0 0 1 1.164 1.164 1.164 1.164 0 0 1-1.164 1.163 1.163 1.163 0 0 1-1.16-1.171zm123.333 0a1.086 1.086 0 0 1 1.089-1.088 1.089 1.089 0 0 1 1.092 1.088 1.093 1.093 0 0 1-1.092 1.093 1.09 1.09 0 0 1-1.087-1.103zm89.053-9.286a7.925 7.925 0 0 1 7.924-7.925 7.925 7.925 0 0 1 7.923 7.925 7.924 7.924 0 0 1-7.923 7.925 7.925 7.925 0 0 1-7.922-7.935zm-57.4 4.393a3.345 3.345 0 0 1 3.342-3.344 3.346 3.346 0 0 1 3.346 3.344 3.347 3.347 0 0 1-3.346 3.346 3.346 3.346 0 0 1-3.335-3.356zm-225.253-2.728a5.816 5.816 0 0 1 5.815-5.815 5.817 5.817 0 0 1 5.816 5.815 5.815 5.815 0 0 1-5.816 5.816 5.813 5.813 0 0 1-5.808-5.826zm254.624 0a5.67 5.67 0 0 1 5.671-5.667 5.669 5.669 0 0 1 5.669 5.667 5.67 5.67 0 0 1-5.669 5.673 5.671 5.671 0 0 1-5.664-5.683zm57.43-2.757a7.851 7.851 0 0 1 7.851-7.852 7.854 7.854 0 0 1 7.85 7.852 7.855 7.855 0 0 1-7.85 7.853 7.851 7.851 0 0 1-7.844-7.863zm-373.261 0a7.417 7.417 0 0 1 7.415-7.416 7.417 7.417 0 0 1 7.414 7.416 7.417 7.417 0 0 1-7.414 7.416 7.416 7.416 0 0 1-7.409-7.426zm408.838-.752a.945.945 0 0 1 .945-.945.945.945 0 0 1 .944.945.945.945 0 0 1-.944.944.945.945 0 0 1-.939-.953zm-301.609-5.034a3.489 3.489 0 0 1 3.492-3.487 3.486 3.486 0 0 1 3.486 3.487 3.489 3.489 0 0 1-3.486 3.491 3.493 3.493 0 0 1-3.486-3.5zm53.471 1.268a1.162 1.162 0 0 1 1.162-1.163 1.161 1.161 0 0 1 1.161 1.163 1.164 1.164 0 0 1-1.161 1.166 1.166 1.166 0 0 1-1.161-1.175zm64.872 0a1.09 1.09 0 0 1 1.093-1.088 1.085 1.085 0 0 1 1.087 1.088 1.088 1.088 0 0 1-1.087 1.092 1.094 1.094 0 0 1-1.087-1.101zm-187.9-8.132a8.147 8.147 0 0 1 8.144-8.146 8.143 8.143 0 0 1 8.139 8.146 8.139 8.139 0 0 1-8.139 8.14 8.143 8.143 0 0 1-8.137-8.15zm155.5 3a1.092 1.092 0 0 1 1.089-1.092 1.093 1.093 0 0 1 1.092 1.092 1.089 1.089 0 0 1-1.092 1.088 1.088 1.088 0 0 1-1.083-1.096zm67.9-5.812a3.416 3.416 0 0 1 3.417-3.416 3.416 3.416 0 0 1 3.415 3.416 3.416 3.416 0 0 1-3.415 3.417 3.417 3.417 0 0 1-3.41-3.424zm-275.764-.1a.652.652 0 0 1 .65-.651.653.653 0 0 1 .656.651.654.654 0 0 1-.656.655.653.653 0 0 1-.643-.662zm97.9-6.126a5.816 5.816 0 0 1 5.815-5.816 5.816 5.816 0 0 1 5.815 5.816 5.813 5.813 0 0 1-5.815 5.816 5.813 5.813 0 0 1-5.808-5.82zm210.622 0a5.67 5.67 0 0 1 5.67-5.667 5.669 5.669 0 0 1 5.67 5.667 5.669 5.669 0 0 1-5.67 5.671 5.67 5.67 0 0 1-5.663-5.675zm30.691-3.845a7.924 7.924 0 0 1 7.921-7.923 7.925 7.925 0 0 1 7.924 7.923 7.925 7.925 0 0 1-7.924 7.927 7.925 7.925 0 0 1-7.914-7.931zm-189.552 2.136a3.49 3.49 0 0 1 3.489-3.49 3.489 3.489 0 0 1 3.488 3.49 3.489 3.489 0 0 1-3.488 3.489 3.49 3.49 0 0 1-3.482-3.493zm221.171-4.671a7.776 7.776 0 0 1 7.775-7.778 7.78 7.78 0 0 1 7.781 7.778 7.781 7.781 0 0 1-7.781 7.778 7.777 7.777 0 0 1-7.769-7.779zm-338.944 0a7.413 7.413 0 0 1 7.414-7.416 7.415 7.415 0 0 1 7.414 7.416 7.416 7.416 0 0 1-7.414 7.416 7.413 7.413 0 0 1-7.409-7.417zm214.151-1.39a3.416 3.416 0 0 1 3.417-3.417 3.417 3.417 0 0 1 3.417 3.417 3.417 3.417 0 0 1-3.417 3.417 3.416 3.416 0 0 1-3.41-3.421zm162.04-.367a.945.945 0 0 1 .944-.944.945.945 0 0 1 .944.944.943.943 0 0 1-.944.944.943.943 0 0 1-.938-.948zm-334.072-7.612a8.144 8.144 0 0 1 8.145-8.14 8.139 8.139 0 0 1 8.139 8.14 8.144 8.144 0 0 1-8.139 8.146 8.148 8.148 0 0 1-8.139-8.15zm106.9 3.885a3.489 3.489 0 0 1 3.489-3.49 3.488 3.488 0 0 1 3.487 3.49 3.487 3.487 0 0 1-3.487 3.489 3.489 3.489 0 0 1-3.483-3.493zm32.861-2.063a3.417 3.417 0 0 1 3.417-3.417 3.416 3.416 0 0 1 3.416 3.417 3.417 3.417 0 0 1-3.416 3.417 3.417 3.417 0 0 1-3.411-3.421zm-89.269-5.4a5.816 5.816 0 0 1 5.815-5.816 5.814 5.814 0 0 1 5.815 5.816 5.815 5.815 0 0 1-5.815 5.816 5.817 5.817 0 0 1-5.809-5.82zm157.426 0a5.67 5.67 0 0 1 5.667-5.672 5.671 5.671 0 0 1 5.671 5.672 5.67 5.67 0 0 1-5.671 5.667 5.67 5.67 0 0 1-5.661-5.671zm33.439-7.254a8 8 0 0 1 8-8 8 8 0 0 1 8 8 8 8 0 0 1-8 8 8 8 0 0 1-7.994-8zm-297.922 4.79a.656.656 0 0 1 .65-.656.657.657 0 0 1 .655.656.654.654 0 0 1-.655.655.653.653 0 0 1-.644-.66zm332.017-9.614a7.78 7.78 0 0 1 7.781-7.783 7.779 7.779 0 0 1 7.777 7.783 7.778 7.778 0 0 1-7.777 7.778 7.779 7.779 0 0 1-7.776-7.783zm-296.2 0a7.417 7.417 0 0 1 7.414-7.421 7.416 7.416 0 0 1 7.415 7.421 7.415 7.415 0 0 1-7.415 7.416 7.416 7.416 0 0 1-7.411-7.421zm101.283-1.3a5.816 5.816 0 0 1 5.815-5.815 5.815 5.815 0 0 1 5.814 5.815 5.815 5.815 0 0 1-5.814 5.816 5.816 5.816 0 0 1-5.812-5.819zm97.276 0a5.743 5.743 0 0 1 5.741-5.745 5.746 5.746 0 0 1 5.745 5.745 5.743 5.743 0 0 1-5.745 5.742 5.74 5.74 0 0 1-5.738-5.745zm-152.085-3.558a8.143 8.143 0 0 1 8.141-8.143 8.142 8.142 0 0 1 8.14 8.143 8.142 8.142 0 0 1-8.14 8.142 8.142 8.142 0 0 1-8.139-8.145zm119.922-3.281a5.744 5.744 0 0 1 5.743-5.743 5.743 5.743 0 0 1 5.743 5.743 5.743 5.743 0 0 1-5.743 5.743 5.743 5.743 0 0 1-5.74-5.746zm-32.88 0a5.743 5.743 0 0 1 5.743-5.743 5.743 5.743 0 0 1 5.742 5.743 5.742 5.742 0 0 1-5.742 5.743 5.743 5.743 0 0 1-5.74-5.746zm201.962 4.772a.943.943 0 0 1 .943-.944.946.946 0 0 1 .945.944.942.942 0 0 1-.945.943.94.94 0 0 1-.94-.946zm-100.822-9.937a8 8 0 0 1 7.995-8 8 8 0 0 1 8 8 8 8 0 0 1-8 8 8 8 0 0 1-7.992-8.002zm-159.213-7.149a8.139 8.139 0 0 1 8.139-8.142 8.14 8.14 0 0 1 8.143 8.142 8.14 8.14 0 0 1-8.143 8.144 8.14 8.14 0 0 1-8.137-8.146zm195.81-.927a7.709 7.709 0 0 1 7.707-7.708 7.71 7.71 0 0 1 7.708 7.708 7.706 7.706 0 0 1-7.708 7.7 7.705 7.705 0 0 1-7.705-7.702zm-246.226 0a7.415 7.415 0 0 1 7.413-7.416 7.416 7.416 0 0 1 7.414 7.416 7.415 7.415 0 0 1-7.414 7.415 7.415 7.415 0 0 1-7.406-7.417zm-39.687 5.772a.653.653 0 0 1 .654-.655.654.654 0 0 1 .656.655.654.654 0 0 1-.656.656.653.653 0 0 1-.651-.658zm218.993-10.63a8.069 8.069 0 0 1 8.069-8.071 8.07 8.07 0 0 1 8.068 8.071 8.069 8.069 0 0 1-8.068 8.07 8.068 8.068 0 0 1-8.068-8.071zm-97.532-4.381a8.069 8.069 0 0 1 8.068-8.071 8.07 8.07 0 0 1 8.068 8.071 8.069 8.069 0 0 1-8.068 8.069 8.068 8.068 0 0 1-8.065-8.07zm65.46-2.941a8.07 8.07 0 0 1 8.069-8.069 8.07 8.07 0 0 1 8.069 8.069 8.071 8.071 0 0 1-8.069 8.071 8.07 8.07 0 0 1-8.066-8.073zm140.425 6.512a.873.873 0 0 1 .87-.873.873.873 0 0 1 .873.873.869.869 0 0 1-.873.87.87.87 0 0 1-.867-.871zm-173.288-7.988a8.07 8.07 0 0 1 8.068-8.07 8.068 8.068 0 0 1 8.068 8.07 8.069 8.069 0 0 1-8.068 8.07 8.07 8.07 0 0 1-8.065-8.071zm103.872-3.544a7.636 7.636 0 0 1 7.632-7.634 7.635 7.635 0 0 1 7.633 7.634 7.632 7.632 0 0 1-7.633 7.635 7.633 7.633 0 0 1-7.629-7.636zm-190.188 0a7.416 7.416 0 0 1 7.414-7.416 7.416 7.416 0 0 1 7.414 7.416 7.413 7.413 0 0 1-7.414 7.416 7.414 7.414 0 0 1-7.411-7.417zm-43.282.945a.655.655 0 0 1 .656-.656.653.653 0 0 1 .65.656.653.653 0 0 1-.65.655.654.654 0 0 1-.653-.657zm203.067-13.538a7.635 7.635 0 0 1 7.633-7.634 7.633 7.633 0 0 1 7.632 7.634 7.633 7.633 0 0 1-7.632 7.634 7.635 7.635 0 0 1-7.63-7.637zm-129.382 0a7.413 7.413 0 0 1 7.414-7.416 7.416 7.416 0 0 1 7.413 7.416 7.416 7.416 0 0 1-7.413 7.416 7.413 7.413 0 0 1-7.411-7.419zm203.264 3.858a.874.874 0 0 1 .874-.875.871.871 0 0 1 .871.875.869.869 0 0 1-.871.87.873.873 0 0 1-.871-.871zm-105.8-11.541a7.563 7.563 0 0 1 7.558-7.563 7.563 7.563 0 0 1 7.562 7.563 7.562 7.562 0 0 1-7.562 7.56 7.562 7.562 0 0 1-7.559-7.561zm-65.537 0a7.487 7.487 0 0 1 7.489-7.49 7.486 7.486 0 0 1 7.483 7.49 7.485 7.485 0 0 1-7.483 7.485 7.486 7.486 0 0 1-7.491-7.486zm32.805-2.584a7.487 7.487 0 0 1 7.487-7.489 7.488 7.488 0 0 1 7.486 7.489 7.488 7.488 0 0 1-7.486 7.489 7.487 7.487 0 0 1-7.488-7.49zm-111.124 5.395a.652.652 0 0 1 .649-.652.653.653 0 0 1 .656.652.654.654 0 0 1-.656.655.652.652 0 0 1-.65-.656zm221.23-7.732a.8.8 0 0 1 .8-.8.8.8 0 0 1 .8.8.8.8 0 0 1-.8.8.8.8 0 0 1-.801-.799zm-191.724-6.7a.731.731 0 0 1 .73-.729.726.726 0 0 1 .725.729.723.723 0 0 1-.725.726.727.727 0 0 1-.732-.725zm161.207-5.633a.8.8 0 0 1 .8-.8.8.8 0 0 1 .8.8.8.8 0 0 1-.8.8.8.8 0 0 1-.802-.799zm-129.9-4.541a.727.727 0 0 1 .728-.727.727.727 0 0 1 .727.727.727.727 0 0 1-.727.727.727.727 0 0 1-.732-.726zm97.966-3.425a.8.8 0 0 1 .8-.8.8.8 0 0 1 .8.8.8.8 0 0 1-.8.8.8.8 0 0 1-.805-.8zm-65.553-2.292a.728.728 0 0 1 .728-.727.728.728 0 0 1 .727.727.728.728 0 0 1-.727.728.728.728 0 0 1-.733-.727zm32.9-1.147a.727.727 0 0 1 .725-.73.727.727 0 0 1 .725.73.722.722 0 0 1-.725.725.723.723 0 0 1-.734-.724z" transform="translate(-5477.101 1526.967)"/>
</svg>
