<svg xmlns="http://www.w3.org/2000/svg" width="681.953" height="682.019" viewBox="0 0 681.953 682.019">
    <path fill="#eaf7ff" stroke="rgba(0,0,0,0)" stroke-miterlimit="10" d="M6701.6-1862.631a.319.319 0 0 1 .314-.318.31.31 0 0 1 .31.318.315.315 0 0 1-.31.315.325.325 0 0 1-.314-.315zm-47.5-1.656a.313.313 0 0 1 .316-.317.311.311 0 0 1 .316.317.314.314 0 0 1-.316.306.316.316 0 0 1-.316-.306zm94.763-3.311a.312.312 0 0 1 .314-.318.324.324 0 0 1 .316.318.323.323 0 0 1-.316.316.31.31 0 0 1-.309-.318zm-141.556-4.936a.3.3 0 0 1 .31-.316.306.306 0 0 1 .314.316.31.31 0 0 1-.314.307.31.31 0 0 1-.305-.306zm187.662-6.56a.31.31 0 0 1 .317-.306.316.316 0 0 1 .316.306.326.326 0 0 1-.316.318.32.32 0 0 1-.313-.317zm-232.86-8.124a.321.321 0 0 1 .316-.317.32.32 0 0 1 .319.317.32.32 0 0 1-.319.318.321.321 0 0 1-.312-.318zm276.924-9.666a.3.3 0 0 1 .315-.306.316.316 0 0 1 .319.306.325.325 0 0 1-.319.318.313.313 0 0 1-.311-.318zm-151.316-3.372a2.313 2.313 0 0 1 2.309-2.309 2.306 2.306 0 0 1 2.31 2.309 2.306 2.306 0 0 1-2.31 2.31 2.313 2.313 0 0 1-2.306-2.309zm47.364-3.72a2.305 2.305 0 0 1 2.31-2.308 2.309 2.309 0 0 1 2.314 2.308 2.308 2.308 0 0 1-2.314 2.3 2.3 2.3 0 0 1-2.307-2.299zm-94.627 0a2.211 2.211 0 0 1 2.207-2.207 2.2 2.2 0 0 1 2.2 2.207 2.194 2.194 0 0 1-2.2 2.2 2.2 2.2 0 0 1-2.203-2.199zm-120.954-4.066a.207.207 0 0 1 .214-.2.205.205 0 0 1 .2.2.214.214 0 0 1-.2.213.215.215 0 0 1-.214-.212zm261.884-7.03a2.2 2.2 0 0 1 2.207-2.2 2.2 2.2 0 0 1 2.2 2.2 2.2 2.2 0 0 1-2.2 2.206 2.209 2.209 0 0 1-2.204-2.205zm-187.118 0a2.192 2.192 0 0 1 2.195-2.2 2.2 2.2 0 0 1 2.2 2.2 2.2 2.2 0 0 1-2.2 2.206 2.2 2.2 0 0 1-2.192-2.205zm285.918-5.559a.318.318 0 0 1 .316-.318.317.317 0 0 1 .314.318.316.316 0 0 1-.314.316.316.316 0 0 1-.312-.315zm-55.012-12.61a2.306 2.306 0 0 1 2.31-2.308 2.306 2.306 0 0 1 2.31 2.308 2.307 2.307 0 0 1-2.31 2.31 2.307 2.307 0 0 1-2.307-2.309zm-274.807 0a2.193 2.193 0 0 1 2.2-2.2 2.195 2.195 0 0 1 2.207 2.2 2.2 2.2 0 0 1-2.207 2.2 2.194 2.194 0 0 1-2.197-2.199zm123.366-5.109a4.407 4.407 0 0 1 4.416-4.4 4.4 4.4 0 0 1 4.4 4.4 4.4 4.4 0 0 1-4.4 4.4 4.408 4.408 0 0 1-4.413-4.399zm-193.62 3.75a.21.21 0 0 1 .2-.214.206.206 0 0 1 .2.214.2.2 0 0 1-.2.215.2.2 0 0 1-.197-.215zm241.068-5.876a4.416 4.416 0 0 1 4.416-4.414 4.406 4.406 0 0 1 4.4 4.414 4.4 4.4 0 0 1-4.4 4.395 4.406 4.406 0 0 1-4.413-4.393zm-94.518-4.25a4.407 4.407 0 0 1 4.407-4.406 4.409 4.409 0 0 1 4.409 4.406 4.408 4.408 0 0 1-4.409 4.4 4.406 4.406 0 0 1-4.404-4.398zm140.828-6.315a4.414 4.414 0 0 1 4.4-4.414 4.414 4.414 0 0 1 4.412 4.414 4.4 4.4 0 0 1-4.412 4.4 4.4 4.4 0 0 1-4.397-4.398zm150.143 1.165a.319.319 0 0 1 .316-.317.319.319 0 0 1 .317.317.319.319 0 0 1-.317.317.318.318 0 0 1-.313-.316zm-336.033-9.514a4.3 4.3 0 0 1 4.3-4.3 4.305 4.305 0 0 1 4.3 4.3 4.312 4.312 0 0 1-4.3 4.3 4.308 4.308 0 0 1-4.299-4.299zm284.189 1.34a2.212 2.212 0 0 1 2.209-2.207 2.205 2.205 0 0 1 2.2 2.207 2.205 2.205 0 0 1-2.2 2.207 2.212 2.212 0 0 1-2.206-2.206zm-355.834 0a2.1 2.1 0 0 1 2.1-2.095 2.1 2.1 0 0 1 2.1 2.095 2.1 2.1 0 0 1-2.1 2.095 2.1 2.1 0 0 1-2.098-2.094zm301.2-11.649a4.407 4.407 0 0 1 4.417-4.4 4.4 4.4 0 0 1 4.405 4.4 4.406 4.406 0 0 1-4.405 4.4 4.408 4.408 0 0 1-4.413-4.401zm-366.367 3.311a.206.206 0 0 1 .214-.2.206.206 0 0 1 .205.2.209.209 0 0 1-.205.215.208.208 0 0 1-.209-.214zm262.363-10.77a6.609 6.609 0 0 1 6.616-6.6 6.609 6.609 0 0 1 6.612 6.6 6.617 6.617 0 0 1-6.612 6.611 6.617 6.617 0 0 1-6.611-6.61zm-47.377 0a6.506 6.506 0 0 1 6.515-6.5 6.5 6.5 0 0 1 6.5 6.5 6.5 6.5 0 0 1-6.5 6.509 6.509 6.509 0 0 1-6.51-6.508zm-120-4.731a4.294 4.294 0 0 1 4.3-4.292 4.285 4.285 0 0 1 4.295 4.292 4.287 4.287 0 0 1-4.295 4.3 4.3 4.3 0 0 1-4.297-4.299zm213.813-5.129a6.619 6.619 0 0 1 6.617-6.613 6.616 6.616 0 0 1 6.611 6.613 6.614 6.614 0 0 1-6.611 6.61 6.617 6.617 0 0 1-6.614-6.609zm-140.233 0a6.506 6.506 0 0 1 6.5-6.509 6.508 6.508 0 0 1 6.512 6.509 6.506 6.506 0 0 1-6.512 6.5 6.5 6.5 0 0 1-6.497-6.499zm337.29 2.972a.31.31 0 0 1 .317-.306.311.311 0 0 1 .316.306.318.318 0 0 1-.316.317.317.317 0 0 1-.314-.316zm-48.829-4.843a2.308 2.308 0 0 1 2.31-2.309 2.308 2.308 0 0 1 2.311 2.309 2.3 2.3 0 0 1-2.311 2.3 2.3 2.3 0 0 1-2.307-2.299zm-427.981 0a2.1 2.1 0 0 1 2.1-2.1 2.094 2.094 0 0 1 2.095 2.1 2.092 2.092 0 0 1-2.095 2.095 2.1 2.1 0 0 1-2.097-2.094zm376.968-6.959a4.409 4.409 0 0 1 4.406-4.414 4.406 4.406 0 0 1 4.405 4.414 4.395 4.395 0 0 1-4.405 4.394 4.4 4.4 0 0 1-4.407-4.392zm-53.848-10.473a6.618 6.618 0 0 1 6.616-6.612 6.617 6.617 0 0 1 6.614 6.612 6.618 6.618 0 0 1-6.614 6.612 6.618 6.618 0 0 1-6.613-6.611zm-226.97 0a6.5 6.5 0 0 1 6.5-6.5 6.5 6.5 0 0 1 6.5 6.5 6.506 6.506 0 0 1-6.5 6.509 6.506 6.506 0 0 1-6.497-6.508zm-155.733 3.556a.216.216 0 0 1 .2-.216.216.216 0 0 1 .207.216.2.2 0 0 1-.207.2.2.2 0 0 1-.198-.198zm278.946-11.342a8.72 8.72 0 0 1 8.719-8.718 8.708 8.708 0 0 1 8.7 8.718 8.7 8.7 0 0 1-8.7 8.694 8.707 8.707 0 0 1-8.715-8.692zm-190.555 2.615a4.293 4.293 0 0 1 4.294-4.291 4.294 4.294 0 0 1 4.305 4.291 4.3 4.3 0 0 1-4.305 4.3 4.3 4.3 0 0 1-4.292-4.298zm143.212-5.6a8.715 8.715 0 0 1 8.711-8.7 8.709 8.709 0 0 1 8.709 8.7 8.7 8.7 0 0 1-8.709 8.707 8.709 8.709 0 0 1-8.709-8.706zM6739.8-2023a8.716 8.716 0 0 1 8.711-8.706 8.715 8.715 0 0 1 8.708 8.706 8.708 8.708 0 0 1-8.708 8.705 8.708 8.708 0 0 1-8.711-8.705zm238.78.531a.319.319 0 0 1 .317-.317.317.317 0 0 1 .316.317.317.317 0 0 1-.316.316.319.319 0 0 1-.321-.311zm-45.8-2.535a2.211 2.211 0 0 1 2.209-2.207 2.2 2.2 0 0 1 2.2 2.207 2.2 2.2 0 0 1-2.2 2.208 2.212 2.212 0 0 1-2.214-2.204zm-489.8 0a2.1 2.1 0 0 1 2.1-2.094 2.1 2.1 0 0 1 2.1 2.094 2.1 2.1 0 0 1-2.1 2.095 2.1 2.1 0 0 1-2.109-2.091zm157.778-6.743a8.7 8.7 0 0 1 8.7-8.7 8.7 8.7 0 0 1 8.709 8.7 8.7 8.7 0 0 1-8.709 8.706 8.7 8.7 0 0 1-8.709-8.701zm284.383 3.086a4.416 4.416 0 0 1 4.409-4.414 4.414 4.414 0 0 1 4.4 4.414 4.4 4.4 0 0 1-4.4 4.4 4.407 4.407 0 0 1-4.418-4.395zm-49.767-5.549a6.616 6.616 0 0 1 6.6-6.61 6.62 6.62 0 0 1 6.626 6.61 6.612 6.612 0 0 1-6.626 6.6 6.608 6.608 0 0 1-6.608-6.595zm-303.79 0a6.5 6.5 0 0 1 6.5-6.509 6.508 6.508 0 0 1 6.511 6.509 6.506 6.506 0 0 1-6.511 6.5 6.5 6.5 0 0 1-6.508-6.495zm251.141-8.982a8.706 8.706 0 0 1 8.709-8.7 8.707 8.707 0 0 1 8.711 8.7 8.718 8.718 0 0 1-8.711 8.716 8.717 8.717 0 0 1-8.717-8.711zm-103.595-8.378a10.9 10.9 0 0 1 10.906-10.913 10.911 10.911 0 0 1 10.909 10.913 10.918 10.918 0 0 1-10.909 10.913 10.912 10.912 0 0 1-10.913-10.908zm-290.062 8.521a.216.216 0 0 1 .217-.214.211.211 0 0 1 .2.214.2.2 0 0 1-.2.2.209.209 0 0 1-.224-.195zm82.331-4.189a4.3 4.3 0 0 1 4.307-4.3 4.3 4.3 0 0 1 4.3 4.3 4.308 4.308 0 0 1-4.3 4.3 4.3 4.3 0 0 1-4.315-4.295zm254.5-11.74a10.906 10.906 0 0 1 10.919-10.9 10.9 10.9 0 0 1 10.919 10.9 10.911 10.911 0 0 1-10.919 10.912 10.915 10.915 0 0 1-10.925-10.907zm-93.45 0a10.8 10.8 0 0 1 10.8-10.8 10.8 10.8 0 0 1 10.809 10.8 10.81 10.81 0 0 1-10.809 10.811 10.809 10.809 0 0 1-10.807-10.806zm-71.647 1.828a8.607 8.607 0 0 1 8.609-8.6 8.605 8.605 0 0 1 8.609 8.6 8.606 8.606 0 0 1-8.609 8.6 8.608 8.608 0 0 1-8.616-8.595zm352.26-9.922a4.406 4.406 0 0 1 4.406-4.4 4.4 4.4 0 0 1 4.4 4.4 4.4 4.4 0 0 1-4.4 4.4 4.4 4.4 0 0 1-4.413-4.395zm-45.925-2.4a6.617 6.617 0 0 1 6.614-6.611 6.619 6.619 0 0 1 6.617 6.611 6.611 6.611 0 0 1-6.617 6.6 6.609 6.609 0 0 1-6.621-6.596zm-367.215 0a6.4 6.4 0 0 1 6.4-6.4 6.4 6.4 0 0 1 6.4 6.4 6.4 6.4 0 0 1-6.4 6.4 6.4 6.4 0 0 1-6.407-6.396zm457.582 3.976a2.312 2.312 0 0 1 2.31-2.311 2.312 2.312 0 0 1 2.31 2.311 2.307 2.307 0 0 1-2.31 2.308 2.306 2.306 0 0 1-2.314-2.304zm-539.349 0a2.106 2.106 0 0 1 2.1-2.095 2.1 2.1 0 0 1 2.1 2.095 2.1 2.1 0 0 1-2.1 2.1 2.108 2.108 0 0 1-2.108-2.096zm582.745 1.082a.315.315 0 0 1 .31-.306.31.31 0 0 1 .316.306.306.306 0 0 1-.316.317.31.31 0 0 1-.317-.313zm-181.629-8.991a8.7 8.7 0 0 1 8.711-8.707 8.7 8.7 0 0 1 8.709 8.707 8.7 8.7 0 0 1-8.709 8.7 8.7 8.7 0 0 1-8.719-8.695zm-51.168-7.061a10.921 10.921 0 0 1 10.919-10.914 10.919 10.919 0 0 1 10.909 10.914 10.9 10.9 0 0 1-10.909 10.9 10.9 10.9 0 0 1-10.922-10.896zm-177.868 0a10.817 10.817 0 0 1 10.816-10.81 10.816 10.816 0 0 1 10.809 10.81 10.809 10.809 0 0 1-10.809 10.8 10.81 10.81 0 0 1-10.823-10.796zm75.032-9.554a12.9 12.9 0 0 1 12.9-12.9 12.9 12.9 0 0 1 12.916 12.9 12.9 12.9 0 0 1-12.916 12.9 12.9 12.9 0 0 1-12.908-12.897zm46.946-4.935a12.9 12.9 0 0 1 12.911-12.9 12.9 12.9 0 0 1 12.9 12.9 12.9 12.9 0 0 1-12.9 12.905 12.9 12.9 0 0 1-12.919-12.901zm-183.881 3.249a8.608 8.608 0 0 1 8.609-8.6 8.607 8.607 0 0 1 8.609 8.6 8.6 8.6 0 0 1-8.609 8.594 8.6 8.6 0 0 1-8.617-8.588zm-81.3 3.719a4.3 4.3 0 0 1 4.307-4.3 4.3 4.3 0 0 1 4.3 4.3 4.3 4.3 0 0 1-4.3 4.3 4.3 4.3 0 0 1-4.312-4.297zm-77.3 1.553a.218.218 0 0 1 .217-.213.214.214 0 0 1 .214.213.213.213 0 0 1-.214.206.217.217 0 0 1-.221-.203zm250.734-18.167a12.787 12.787 0 0 1 12.8-12.794 12.791 12.791 0 0 1 12.8 12.794 12.8 12.8 0 0 1-12.8 12.8 12.8 12.8 0 0 1-12.804-12.799zm181.125-9.34a10.916 10.916 0 0 1 10.919-10.913 10.915 10.915 0 0 1 10.918 10.913 10.92 10.92 0 0 1-10.918 10.912 10.921 10.921 0 0 1-10.923-10.908zm45.557 2.177a8.716 8.716 0 0 1 8.712-8.706 8.708 8.708 0 0 1 8.708 8.706 8.7 8.7 0 0 1-8.708 8.705 8.708 8.708 0 0 1-8.716-8.702zm-290.3-2.177a10.7 10.7 0 0 1 10.7-10.7 10.706 10.706 0 0 1 10.707 10.7 10.707 10.707 0 0 1-10.707 10.7 10.706 10.706 0 0 1-10.699-10.696zm334.021 3.372a6.6 6.6 0 0 1 6.6-6.6 6.61 6.61 0 0 1 6.626 6.6 6.618 6.618 0 0 1-6.626 6.611 6.608 6.608 0 0 1-6.599-6.608zm-414.692 0a6.4 6.4 0 0 1 6.4-6.4 6.394 6.394 0 0 1 6.4 6.4 6.393 6.393 0 0 1-6.4 6.4 6.4 6.4 0 0 1-6.399-6.397zm457.474.726a4.407 4.407 0 0 1 4.417-4.393 4.39 4.39 0 0 1 4.4 4.393 4.409 4.409 0 0 1-4.4 4.414 4.425 4.425 0 0 1-4.417-4.411zm-180.552-8.706a12.9 12.9 0 0 1 12.9-12.9 12.9 12.9 0 0 1 12.912 12.9A12.908 12.908 0 0 1 6766-2105.64a12.908 12.908 0 0 1-12.9-12.906zm222.685 9.186a2.207 2.207 0 0 1 2.209-2.207 2.2 2.2 0 0 1 2.2 2.207 2.2 2.2 0 0 1-2.2 2.207 2.207 2.207 0 0 1-2.209-2.204zm-575.812-.01a2.094 2.094 0 0 1 2.095-2.085 2.1 2.1 0 0 1 2.1 2.085 2.1 2.1 0 0 1-2.1 2.1 2.1 2.1 0 0 1-2.095-2.097zm617.167.338a.317.317 0 0 1 .314-.317.318.318 0 0 1 .319.317.31.31 0 0 1-.319.307.309.309 0 0 1-.314-.304zm-358.475-21.9a7.978 7.978 0 0 1 7.977-7.969 7.977 7.977 0 0 1 7.973 7.969 7.972 7.972 0 0 1-7.973 7.982 7.974 7.974 0 0 1-7.977-7.978zm46.988.011a7.764 7.764 0 0 1 7.771-7.765 7.769 7.769 0 0 1 7.766 7.765 7.768 7.768 0 0 1-7.766 7.756 7.762 7.762 0 0 1-7.771-7.752zm-120.279-5.252a12.805 12.805 0 0 1 12.8-12.8 12.8 12.8 0 0 1 12.8 12.8 12.8 12.8 0 0 1-12.8 12.8 12.806 12.806 0 0 1-12.8-12.796zm-79.894 2.922a8.6 8.6 0 0 1 8.606-8.6 8.606 8.606 0 0 1 8.607 8.6 8.606 8.606 0 0 1-8.607 8.6 8.6 8.6 0 0 1-8.606-8.596zm-75.031.819a4.19 4.19 0 0 1 4.189-4.19 4.189 4.189 0 0 1 4.205 4.19 4.2 4.2 0 0 1-4.205 4.2 4.2 4.2 0 0 1-4.189-4.196zm-73.816.337a.2.2 0 0 1 .216-.2.2.2 0 0 1 .207.2.215.215 0 0 1-.207.214.216.216 0 0 1-.216-.21zm424.212-24.626a12.9 12.9 0 0 1 12.911-12.9 12.9 12.9 0 0 1 12.9 12.9 12.9 12.9 0 0 1-12.9 12.9 12.909 12.909 0 0 1-12.911-12.896zm42.254.6a10.911 10.911 0 0 1 10.902-10.907 10.919 10.919 0 0 1 10.919 10.913 10.9 10.9 0 0 1-10.919 10.9 10.9 10.9 0 0 1-10.9-10.9zm-287.76 0a10.705 10.705 0 0 1 10.707-10.7 10.7 10.7 0 0 1 10.7 10.7 10.7 10.7 0 0 1-10.7 10.7 10.706 10.706 0 0 1-10.707-10.694zm329.268.276a8.714 8.714 0 0 1 8.709-8.705 8.709 8.709 0 0 1 8.711 8.705 8.7 8.7 0 0 1-8.711 8.706 8.709 8.709 0 0 1-8.71-8.7zm40.934.152a6.608 6.608 0 0 1 6.606-6.61 6.608 6.608 0 0 1 6.612 6.61 6.609 6.609 0 0 1-6.612 6.612 6.609 6.609 0 0 1-6.606-6.605zm-444.032 0a6.393 6.393 0 0 1 6.4-6.4 6.394 6.394 0 0 1 6.4 6.4 6.393 6.393 0 0 1-6.4 6.4 6.393 6.393 0 0 1-6.4-6.393zm158.993-2.717a8.289 8.289 0 0 1 8.292-8.288 8.287 8.287 0 0 1 8.29 8.288 8.288 8.288 0 0 1-8.29 8.287 8.29 8.29 0 0 1-8.293-8.281zm123.107 0a7.661 7.661 0 0 1 7.661-7.664 7.66 7.66 0 0 1 7.657 7.664 7.651 7.651 0 0 1-7.657 7.654 7.652 7.652 0 0 1-7.661-7.648zm202.682 2.81a4.408 4.408 0 0 1 4.417-4.4 4.405 4.405 0 0 1 4.407 4.4 4.406 4.406 0 0 1-4.407 4.4 4.408 4.408 0 0 1-4.417-4.397zm40.483.062a2.31 2.31 0 0 1 2.312-2.31 2.3 2.3 0 0 1 2.3 2.31 2.3 2.3 0 0 1-2.3 2.308 2.308 2.308 0 0 1-2.312-2.302zm-597.9 0a2.1 2.1 0 0 1 2.1-2.095 2.1 2.1 0 0 1 2.1 2.095 2.1 2.1 0 0 1-2.1 2.095 2.1 2.1 0 0 1-2.095-2.089zm638.146.04a.317.317 0 0 1 .316-.315.307.307 0 0 1 .307.315.309.309 0 0 1-.307.317.319.319 0 0 1-.311-.311zM6701.2-2166.9a.516.516 0 0 1 .522-.521.52.52 0 0 1 .523.521.525.525 0 0 1-.523.52.522.522 0 0 1-.522-.52zm-135.039-12.385a12.8 12.8 0 0 1 12.8-12.8 12.808 12.808 0 0 1 12.812 12.8 12.8 12.8 0 0 1-12.812 12.793 12.794 12.794 0 0 1-12.796-12.79zm-72.384.113a8.5 8.5 0 0 1 8.507-8.5 8.492 8.492 0 0 1 8.495 8.5 8.49 8.49 0 0 1-8.495 8.49 8.5 8.5 0 0 1-8.503-8.487zm-71.818.019a4.2 4.2 0 0 1 4.2-4.19 4.189 4.189 0 0 1 4.189 4.19 4.185 4.185 0 0 1-4.189 4.2 4.193 4.193 0 0 1-4.196-4.197zm-71.943.02a.222.222 0 0 1 .214-.213.222.222 0 0 1 .215.213.223.223 0 0 1-.215.215.223.223 0 0 1-.21-.212zm308.654-1.511a.732.732 0 0 1 .736-.736.742.742 0 0 1 .738.736.743.743 0 0 1-.738.735.732.732 0 0 1-.732-.733zm131.985-22.235a12.908 12.908 0 0 1 12.913-12.9 12.9 12.9 0 0 1 12.9 12.9 12.9 12.9 0 0 1-12.9 12.9 12.906 12.906 0 0 1-12.909-12.898zm39.849 0a10.908 10.908 0 0 1 10.912-10.913 10.914 10.914 0 0 1 10.908 10.913 10.911 10.911 0 0 1-10.908 10.9 10.906 10.906 0 0 1-10.908-10.898zm-302.571 0a10.692 10.692 0 0 1 10.7-10.7 10.7 10.7 0 0 1 10.7 10.7 10.7 10.7 0 0 1-10.7 10.7 10.7 10.7 0 0 1-10.696-10.698zm342.618 0a8.7 8.7 0 0 1 8.712-8.706 8.7 8.7 0 0 1 8.709 8.706 8.707 8.707 0 0 1-8.709 8.705 8.706 8.706 0 0 1-8.708-8.703zm-264.829 0a8.607 8.607 0 0 1 8.609-8.6 8.613 8.613 0 0 1 8.609 8.6 8.614 8.614 0 0 1-8.609 8.6 8.608 8.608 0 0 1-8.605-8.598zm152.226 0a7.767 7.767 0 0 1 7.771-7.766 7.761 7.761 0 0 1 7.759 7.766 7.76 7.76 0 0 1-7.759 7.757 7.765 7.765 0 0 1-7.767-7.755zm152.557 0a6.609 6.609 0 0 1 6.6-6.611 6.615 6.615 0 0 1 6.612 6.611 6.616 6.616 0 0 1-6.612 6.613 6.61 6.61 0 0 1-6.596-6.611zm-453.962 0a6.394 6.394 0 0 1 6.4-6.4 6.393 6.393 0 0 1 6.4 6.4 6.394 6.394 0 0 1-6.4 6.4 6.4 6.4 0 0 1-6.396-6.398zm494.006 0a4.406 4.406 0 0 1 4.406-4.4 4.4 4.4 0 0 1 4.4 4.4 4.405 4.405 0 0 1-4.4 4.406 4.407 4.407 0 0 1-4.401-4.404zm39.944 0a2.313 2.313 0 0 1 2.309-2.309 2.306 2.306 0 0 1 2.309 2.309 2.306 2.306 0 0 1-2.309 2.311 2.313 2.313 0 0 1-2.302-2.309zm-605.349 0a2.1 2.1 0 0 1 2.1-2.094 2.1 2.1 0 0 1 2.1 2.094 2.1 2.1 0 0 1-2.1 2.095 2.1 2.1 0 0 1-2.095-2.093zm342.208 0a.532.532 0 0 1 .519-.531.532.532 0 0 1 .522.531.522.522 0 0 1-.522.521.522.522 0 0 1-.514-.519zm302.98 0a.317.317 0 0 1 .316-.315.32.32 0 0 1 .319.315.321.321 0 0 1-.319.317.317.317 0 0 1-.311-.315zm-464.173-23.593a12.8 12.8 0 0 1 12.8-12.8 12.808 12.808 0 0 1 12.812 12.8 12.8 12.8 0 0 1-12.812 12.792 12.793 12.793 0 0 1-12.794-12.789zm-72.384-.113a8.511 8.511 0 0 1 8.507-8.5 8.5 8.5 0 0 1 8.495 8.5 8.491 8.491 0 0 1-8.495 8.492 8.5 8.5 0 0 1-8.501-8.49zm-71.818-.031a4.2 4.2 0 0 1 4.2-4.2 4.19 4.19 0 0 1 4.189 4.2 4.182 4.182 0 0 1-4.189 4.19 4.19 4.19 0 0 1-4.194-4.187zm236.51 1.5a.944.944 0 0 1 .938-.949.945.945 0 0 1 .94.949.938.938 0 0 1-.94.941.937.937 0 0 1-.932-.936zm-308.453-1.513a.215.215 0 0 1 .214-.213.215.215 0 0 1 .215.213.214.214 0 0 1-.215.2.214.214 0 0 1-.208-.195zm430.824-22.419a12.9 12.9 0 0 1 12.911-12.894 12.9 12.9 0 0 1 12.9 12.894 12.9 12.9 0 0 1-12.9 12.907 12.9 12.9 0 0 1-12.905-12.902zm-79.958 10.189a.836.836 0 0 1 .838-.838.843.843 0 0 1 .84.838.842.842 0 0 1-.84.837.836.836 0 0 1-.831-.832zm-80.8-8.492a8.7 8.7 0 0 1 8.711-8.707 8.709 8.709 0 0 1 8.709 8.707 8.709 8.709 0 0 1-8.709 8.708 8.7 8.7 0 0 1-8.709-8.703zm203.118-2.289a10.8 10.8 0 0 1 10.8-10.8 10.809 10.809 0 0 1 10.818 10.8 10.809 10.809 0 0 1-10.818 10.8 10.8 10.8 0 0 1-10.798-10.795zm-287.748 0a10.6 10.6 0 0 1 10.6-10.6 10.594 10.594 0 0 1 10.592 10.6 10.6 10.6 0 0 1-10.592 10.6 10.6 10.6 0 0 1-10.598-10.595zm207.729 2.289a8.082 8.082 0 0 1 8.088-8.083 8.082 8.082 0 0 1 8.076 8.083 8.08 8.08 0 0 1-8.076 8.073 8.08 8.08 0 0 1-8.085-8.068zm121.424-2.564a8.709 8.709 0 0 1 8.709-8.706 8.7 8.7 0 0 1 8.711 8.706 8.711 8.711 0 0 1-8.711 8.705 8.715 8.715 0 0 1-8.707-8.7zm41.039-.153a6.505 6.505 0 0 1 6.5-6.509 6.507 6.507 0 0 1 6.509 6.509 6.505 6.505 0 0 1-6.509 6.5 6.5 6.5 0 0 1-6.497-6.495zm-444.137 0a6.394 6.394 0 0 1 6.4-6.4 6.394 6.394 0 0 1 6.4 6.4 6.4 6.4 0 0 1-6.4 6.4 6.4 6.4 0 0 1-6.397-6.395zm484.782-.091a4.411 4.411 0 0 1 4.417-4.416 4.408 4.408 0 0 1 4.407 4.416 4.405 4.405 0 0 1-4.407 4.4 4.408 4.408 0 0 1-4.414-4.396zm40.587-.062a2.2 2.2 0 0 1 2.208-2.207 2.2 2.2 0 0 1 2.2 2.207 2.194 2.194 0 0 1-2.2 2.2 2.195 2.195 0 0 1-2.205-2.196zm-598 0a2.1 2.1 0 0 1 2.1-2.095 2.1 2.1 0 0 1 2.1 2.095 2.092 2.092 0 0 1-2.1 2.1 2.1 2.1 0 0 1-2.096-2.096zm638.146-.041a.318.318 0 0 1 .316-.316.308.308 0 0 1 .307.316.309.309 0 0 1-.307.316.318.318 0 0 1-.312-.312zm-441.652-19.322a12.8 12.8 0 0 1 12.8-12.793 12.794 12.794 0 0 1 12.8 12.793 12.794 12.794 0 0 1-12.8 12.792 12.8 12.8 0 0 1-12.795-12.788zm-79.794-2.923a8.505 8.505 0 0 1 8.507-8.5 8.5 8.5 0 0 1 8.5 8.5 8.5 8.5 0 0 1-8.5 8.5 8.507 8.507 0 0 1-8.502-8.493zm152.35-2.329a8.716 8.716 0 0 1 8.712-8.707 8.709 8.709 0 0 1 8.709 8.707 8.7 8.7 0 0 1-8.709 8.705 8.708 8.708 0 0 1-8.707-8.701zm46.987 0a8.5 8.5 0 0 1 8.507-8.492 8.494 8.494 0 0 1 8.495 8.492 8.5 8.5 0 0 1-8.495 8.5 8.51 8.51 0 0 1-8.502-8.496zm-274.468 1.512a4.2 4.2 0 0 1 4.189-4.2 4.2 4.2 0 0 1 4.205 4.2 4.2 4.2 0 0 1-4.205 4.2 4.2 4.2 0 0 1-4.184-4.196zm-73.816-.337a.21.21 0 0 1 .216-.215.208.208 0 0 1 .207.215.206.206 0 0 1-.207.2.208.208 0 0 1-.211-.196zm396.467-13.559a12.9 12.9 0 0 1 12.9-12.9 12.9 12.9 0 0 1 12.912 12.9 12.9 12.9 0 0 1-12.906 12.908 12.9 12.9 0 0 1-12.9-12.905zm48.59-4.6a10.82 10.82 0 0 1 10.817-10.811 10.811 10.811 0 0 1 10.808 10.811 10.81 10.81 0 0 1-10.808 10.81 10.82 10.82 0 0 1-10.812-10.805zm-244.738 0a10.6 10.6 0 0 1 10.6-10.6 10.6 10.6 0 0 1 10.6 10.6 10.6 10.6 0 0 1-10.6 10.6 10.6 10.6 0 0 1-10.595-10.595zm290.306-2.176a8.605 8.605 0 0 1 8.6-8.6 8.6 8.6 0 0 1 8.606 8.6 8.591 8.591 0 0 1-8.606 8.594 8.6 8.6 0 0 1-8.595-8.589zm-226.795-7.163a12.8 12.8 0 0 1 12.8-12.8 12.8 12.8 0 0 1 12.8 12.8 12.8 12.8 0 0 1-12.8 12.793 12.793 12.793 0 0 1-12.795-12.788zm270.507 5.957a6.5 6.5 0 0 1 6.5-6.5 6.506 6.506 0 0 1 6.514 6.5 6.509 6.509 0 0 1-6.514 6.509 6.506 6.506 0 0 1-6.495-6.507zm-414.689 0a6.3 6.3 0 0 1 6.3-6.295 6.3 6.3 0 0 1 6.295 6.295 6.291 6.291 0 0 1-6.295 6.295 6.291 6.291 0 0 1-6.295-6.293zm457.371-.726a4.416 4.416 0 0 1 4.417-4.4 4.4 4.4 0 0 1 4.4 4.4 4.409 4.409 0 0 1-4.4 4.415 4.426 4.426 0 0 1-4.412-4.41zm42.132-.47a2.2 2.2 0 0 1 2.2-2.206 2.2 2.2 0 0 1 2.207 2.206 2.2 2.2 0 0 1-2.207 2.2 2.2 2.2 0 0 1-2.194-2.195zm-575.712 0a1.992 1.992 0 0 1 2-1.993 1.992 1.992 0 0 1 2 1.993 2 2 0 0 1-2 1.992 2 2 0 0 1-1.994-1.987zm617.067-.327a.319.319 0 0 1 .314-.318.32.32 0 0 1 .319.318.319.319 0 0 1-.319.317.318.318 0 0 1-.308-.311zm-304.832-14.091a12.8 12.8 0 0 1 12.809-12.792 12.8 12.8 0 0 1 12.8 12.792 12.805 12.805 0 0 1-12.8 12.8 12.807 12.807 0 0 1-12.803-12.795zm-46.946-4.924a12.8 12.8 0 0 1 12.8-12.8 12.809 12.809 0 0 1 12.814 12.8 12.806 12.806 0 0 1-12.814 12.792 12.8 12.8 0 0 1-12.794-12.787zm-136.923 1.686a8.5 8.5 0 0 1 8.5-8.5 8.5 8.5 0 0 1 8.495 8.5 8.5 8.5 0 0 1-8.495 8.5 8.5 8.5 0 0 1-8.494-8.495zm-81.3-3.71a4.183 4.183 0 0 1 4.192-4.2 4.193 4.193 0 0 1 4.2 4.2 4.2 4.2 0 0 1-4.2 4.19 4.188 4.188 0 0 1-4.182-4.186zm321.168-7.53a10.7 10.7 0 0 1 10.7-10.7 10.7 10.7 0 0 1 10.7 10.7 10.7 10.7 0 0 1-10.7 10.7 10.7 10.7 0 0 1-10.689-10.695zm-177.869 0a10.6 10.6 0 0 1 10.6-10.6 10.594 10.594 0 0 1 10.6 10.6 10.6 10.6 0 0 1-10.6 10.6 10.611 10.611 0 0 1-10.589-10.595zm-220.714 5.977a.219.219 0 0 1 .217-.214.214.214 0 0 1 .214.214.213.213 0 0 1-.214.2.217.217 0 0 1-.206-.195zm449.65-13.039a8.6 8.6 0 0 1 8.6-8.6 8.606 8.606 0 0 1 8.609 8.6 8.607 8.607 0 0 1-8.609 8.6 8.6 8.6 0 0 1-8.589-8.595zm47.854-3.933a6.508 6.508 0 0 1 6.512-6.509 6.506 6.506 0 0 1 6.5 6.509 6.5 6.5 0 0 1-6.5 6.5 6.506 6.506 0 0 1-6.501-6.495zm-367.215 0a6.3 6.3 0 0 1 6.3-6.295 6.3 6.3 0 0 1 6.3 6.295 6.3 6.3 0 0 1-6.3 6.295 6.3 6.3 0 0 1-6.289-6.29zm413.138-2.4a4.3 4.3 0 0 1 4.307-4.3 4.3 4.3 0 0 1 4.3 4.3 4.3 4.3 0 0 1-4.3 4.291 4.3 4.3 0 0 1-4.296-4.287zm-187.045-8.1a10.7 10.7 0 0 1 10.7-10.7 10.7 10.7 0 0 1 10.7 10.7 10.7 10.7 0 0 1-10.7 10.7 10.7 10.7 0 0 1-10.689-10.699zm-93.465.01a10.6 10.6 0 0 1 10.6-10.6 10.594 10.594 0 0 1 10.6 10.6 10.592 10.592 0 0 1-10.6 10.586 10.6 10.6 0 0 1-10.589-10.586zm324.961 6.51a2.2 2.2 0 0 1 2.2-2.2 2.2 2.2 0 0 1 2.207 2.2 2.2 2.2 0 0 1-2.207 2.207 2.2 2.2 0 0 1-2.189-2.206zm-539.354 0a2 2 0 0 1 2-1.994 2.006 2.006 0 0 1 2 1.994 2 2 0 0 1-2 1.991 2 2 0 0 1-1.989-1.99zm142.645-8.349a8.5 8.5 0 0 1 8.507-8.492 8.5 8.5 0 0 1 8.507 8.492 8.5 8.5 0 0 1-8.507 8.5 8.5 8.5 0 0 1-8.493-8.5zm440 7.265a.317.317 0 0 1 .31-.317.312.312 0 0 1 .316.317.312.312 0 0 1-.316.317.317.317 0 0 1-.303-.316zm-321.565-12.834a10.689 10.689 0 0 1 10.7-10.7 10.7 10.7 0 0 1 10.7 10.7 10.7 10.7 0 0 1-10.7 10.7 10.7 10.7 0 0 1-10.693-10.699zm103.489-8.389a8.607 8.607 0 0 1 8.609-8.6 8.608 8.608 0 0 1 8.609 8.6 8.607 8.607 0 0 1-8.609 8.6 8.606 8.606 0 0 1-8.602-8.599zm-311.324 4.056a4.2 4.2 0 0 1 4.205-4.2 4.2 4.2 0 0 1 4.2 4.2 4.192 4.192 0 0 1-4.2 4.19 4.193 4.193 0 0 1-4.198-4.189zm-82.432-4.19a.217.217 0 0 1 .217-.215.212.212 0 0 1 .2.215.2.2 0 0 1-.2.2.2.2 0 0 1-.21-.199zm446.408-8.838a6.506 6.506 0 0 1 6.511-6.5 6.5 6.5 0 0 1 6.5 6.5 6.5 6.5 0 0 1-6.5 6.5 6.506 6.506 0 0 1-6.505-6.499zm-303.687 0a6.3 6.3 0 0 1 6.3-6.295 6.3 6.3 0 0 1 6.3 6.295 6.3 6.3 0 0 1-6.3 6.294 6.3 6.3 0 0 1-6.294-6.293zm69.17-2.474a8.5 8.5 0 0 1 8.506-8.491 8.49 8.49 0 0 1 8.495 8.491 8.494 8.494 0 0 1-8.495 8.5 8.505 8.505 0 0 1-8.499-8.499zm284.284-3.076a4.3 4.3 0 0 1 4.306-4.3 4.3 4.3 0 0 1 4.3 4.3 4.3 4.3 0 0 1-4.3 4.3 4.3 4.3 0 0 1-4.3-4.302zm-145.334-5.66a8.606 8.606 0 0 1 8.606-8.6 8.606 8.606 0 0 1 8.609 8.6 8.6 8.6 0 0 1-8.609 8.594 8.6 8.6 0 0 1-8.601-8.592zm192.986 2a2.084 2.084 0 0 1 2.1-2.094 2.089 2.089 0 0 1 2.092 2.094 2.1 2.1 0 0 1-2.092 2.095 2.091 2.091 0 0 1-2.094-2.091zm-489.8 0a1.989 1.989 0 0 1 1.993-1.992 1.989 1.989 0 0 1 2 1.992 1.988 1.988 0 0 1-2 1.993 1.988 1.988 0 0 1-1.991-1.989zm202.984-7.91a8.5 8.5 0 0 1 8.5-8.5 8.5 8.5 0 0 1 8.5 8.5 8.494 8.494 0 0 1-8.5 8.492 8.494 8.494 0 0 1-8.498-8.488zm332.62 5.375a.205.205 0 0 1 .205-.2.206.206 0 0 1 .214.2.207.207 0 0 1-.214.2.206.206 0 0 1-.202-.195zm-285.272-8.358a8.5 8.5 0 0 1 8.5-8.492 8.49 8.49 0 0 1 8.488 8.492 8.5 8.5 0 0 1-8.488 8.5 8.5 8.5 0 0 1-8.498-8.496zm-190.669-2.626a4.2 4.2 0 0 1 4.192-4.19 4.2 4.2 0 0 1 4.206 4.19 4.2 4.2 0 0 1-4.206 4.2 4.2 4.2 0 0 1-4.19-4.195zm294.425-5.161a6.405 6.405 0 0 1 6.4-6.407 6.405 6.405 0 0 1 6.4 6.407 6.4 6.4 0 0 1-6.4 6.4 6.4 6.4 0 0 1-6.399-6.395zm-226.979 0a6.285 6.285 0 0 1 6.3-6.293 6.291 6.291 0 0 1 6.3 6.293 6.3 6.3 0 0 1-6.3 6.3 6.293 6.293 0 0 1-6.299-6.295zm-155.938-3.555a.214.214 0 0 1 .2-.214.215.215 0 0 1 .207.214.208.208 0 0 1-.207.215.208.208 0 0 1-.2-.211zm436.653-6.906a4.305 4.305 0 0 1 4.3-4.3 4.3 4.3 0 0 1 4.305 4.3 4.3 4.3 0 0 1-4.305 4.291 4.3 4.3 0 0 1-4.3-4.287zm-97.114-8.841a6.406 6.406 0 0 1 6.415-6.4 6.4 6.4 0 0 1 6.4 6.4 6.4 6.4 0 0 1-6.4 6.4 6.405 6.405 0 0 1-6.415-6.395zm-140.233 0a6.3 6.3 0 0 1 6.3-6.293 6.3 6.3 0 0 1 6.294 6.293 6.3 6.3 0 0 1-6.294 6.3 6.3 6.3 0 0 1-6.3-6.295zm288.466 1.87a2.1 2.1 0 0 1 2.1-2.094 2.1 2.1 0 0 1 2.1 2.094 2.1 2.1 0 0 1-2.1 2.095 2.1 2.1 0 0 1-2.1-2.09zm-428.085 0a1.988 1.988 0 0 1 1.993-1.991 1.989 1.989 0 0 1 1.992 1.991 1.99 1.99 0 0 1-1.992 1.994 1.989 1.989 0 0 1-1.993-1.989zm65.949-7a4.192 4.192 0 0 1 4.19-4.2 4.2 4.2 0 0 1 4.2 4.2 4.2 4.2 0 0 1-4.2 4.189 4.189 4.189 0 0 1-4.19-4.183zm410.872 2.146a.2.2 0 0 1 .2-.2.216.216 0 0 1 .214.2.218.218 0 0 1-.214.215.2.2 0 0 1-.2-.209zm-243.391-6.888a6.4 6.4 0 0 1 6.4-6.4 6.406 6.406 0 0 1 6.4 6.4 6.41 6.41 0 0 1-6.4 6.408 6.4 6.4 0 0 1-6.4-6.402zm-47.477 0a6.4 6.4 0 0 1 6.4-6.4 6.4 6.4 0 0 1 6.4 6.4 6.405 6.405 0 0 1-6.4 6.408 6.4 6.4 0 0 1-6.4-6.402zm151.376-7.448a4.3 4.3 0 0 1 4.307-4.3 4.3 4.3 0 0 1 4.292 4.3 4.3 4.3 0 0 1-4.292 4.3 4.3 4.3 0 0 1-4.307-4.294zm-366.477-3.321a.2.2 0 0 1 .214-.2.2.2 0 0 1 .205.2.206.206 0 0 1-.205.2.206.206 0 0 1-.213-.194zm136.91-6.989a4.2 4.2 0 0 1 4.2-4.2 4.2 4.2 0 0 1 4.2 4.2 4.2 4.2 0 0 1-4.2 4.2 4.2 4.2 0 0 1-4.201-4.194zm284.2-1.339a2.084 2.084 0 0 1 2.099-2.091 2.091 2.091 0 0 1 2.1 2.095 2.1 2.1 0 0 1-2.1 2.095 2.091 2.091 0 0 1-2.1-2.09zm-355.839 0a1.992 1.992 0 0 1 1.993-1.994 1.992 1.992 0 0 1 2 1.994 2 2 0 0 1-2 1.991 2 2 0 0 1-1.989-1.982zm257.633-7.01a4.2 4.2 0 0 1 4.2-4.2 4.2 4.2 0 0 1 4.193 4.2 4.194 4.194 0 0 1-4.193 4.2 4.2 4.2 0 0 1-4.195-4.194zm150.048-1.166a.2.2 0 0 1 .2-.213.2.2 0 0 1 .2.213.2.2 0 0 1-.2.2.2.2 0 0 1-.196-.193zm-290.868-5.15a4.193 4.193 0 0 1 4.2-4.2 4.2 4.2 0 0 1 4.192 4.2 4.2 4.2 0 0 1-4.192 4.19 4.192 4.192 0 0 1-4.196-4.183zm94.517-4.25a4.189 4.189 0 0 1 4.192-4.19 4.192 4.192 0 0 1 4.2 4.19 4.2 4.2 0 0 1-4.2 4.2 4.2 4.2 0 0 1-4.184-4.193zm-47.448-2.126a4.184 4.184 0 0 1 4.2-4.19 4.189 4.189 0 0 1 4.19 4.19 4.19 4.19 0 0 1-4.19 4.19 4.185 4.185 0 0 1-4.196-4.179zm151.439-5.119a2.1 2.1 0 0 1 2.1-2.084 2.1 2.1 0 0 1 2.107 2.084 2.1 2.1 0 0 1-2.107 2.1 2.1 2.1 0 0 1-2.095-2.092zm-274.814 0a1.993 1.993 0 0 1 1.993-1.983 1.987 1.987 0 0 1 2 1.983 2 2 0 0 1-2 2 2 2 0 0 1-1.989-1.992zm-70.459 1.368a.211.211 0 0 1 .2-.214.206.206 0 0 1 .2.214.2.2 0 0 1-.2.2.2.2 0 0 1-.196-.193zm400.183-13.967a.209.209 0 0 1 .207-.216.2.2 0 0 1 .205.216.2.2 0 0 1-.205.2.2.2 0 0 1-.2-.193zm-98.81-5.569a2.1 2.1 0 0 1 2.107-2.095 2.1 2.1 0 0 1 2.1 2.095 2.1 2.1 0 0 1-2.1 2.1 2.105 2.105 0 0 1-2.103-2.092zm-187.016 0a2 2 0 0 1 1.993-1.992 1.994 1.994 0 0 1 1.993 1.992 1.987 1.987 0 0 1-1.993 1.992 1.989 1.989 0 0 1-1.989-1.984zm-74.968-7.031a.206.206 0 0 1 .214-.2.2.2 0 0 1 .2.2.209.209 0 0 1-.2.216.21.21 0 0 1-.213-.209zm215.789-4.055a2.1 2.1 0 0 1 2.1-2.095 2.1 2.1 0 0 1 2.1 2.095 2.1 2.1 0 0 1-2.1 2.1 2.1 2.1 0 0 1-2.096-2.093zm-94.723.009a2.093 2.093 0 0 1 2.095-2.1 2.094 2.094 0 0 1 2.1 2.1 2.091 2.091 0 0 1-2.1 2.085 2.09 2.09 0 0 1-2.091-2.078zm47.353-3.729a2.1 2.1 0 0 1 2.107-2.1 2.094 2.094 0 0 1 2.1 2.1 2.091 2.091 0 0 1-2.1 2.095 2.1 2.1 0 0 1-2.103-2.091zm151.217-3.37a.209.209 0 0 1 .212-.216.208.208 0 0 1 .207.216.2.2 0 0 1-.207.2.206.206 0 0 1-.208-.194zm-276.922-9.667a.2.2 0 0 1 .212-.2.2.2 0 0 1 .207.2.2.2 0 0 1-.207.2.206.206 0 0 1-.208-.194zm232.858-8.123a.209.209 0 0 1 .215-.214.205.205 0 0 1 .2.214.2.2 0 0 1-.2.2.209.209 0 0 1-.211-.194zm-187.661-6.549a.208.208 0 0 1 .207-.215.209.209 0 0 1 .212.215.206.206 0 0 1-.212.2.2.2 0 0 1-.203-.195zm141.554-4.946a.208.208 0 0 1 .214-.205.206.206 0 0 1 .2.205.2.2 0 0 1-.2.2.207.207 0 0 1-.21-.195zm-94.749-3.311a.206.206 0 0 1 .2-.2.209.209 0 0 1 .217.2.211.211 0 0 1-.217.214.208.208 0 0 1-.196-.208zm47.486-1.656a.215.215 0 0 1 .212-.213.214.214 0 0 1 .207.213.216.216 0 0 1-.207.216.217.217 0 0 1-.208-.211z" transform="translate(-6349.52 2543.834)"/>
</svg>
