<svg xmlns="http://www.w3.org/2000/svg" width="367.953" height="368.019" viewBox="0 0 367.953 368.019">
    <path fill="#eaf7ff" stroke="rgba(0,0,0,0)" stroke-miterlimit="10" d="M6539.482-2176.486a.172.172 0 0 1 .169-.171.167.167 0 0 1 .167.171.17.17 0 0 1-.167.17.175.175 0 0 1-.169-.17zm-25.6-.893a.168.168 0 0 1 .17-.171.167.167 0 0 1 .17.171.169.169 0 0 1-.17.165.17.17 0 0 1-.166-.164zm51.066-1.784a.168.168 0 0 1 .17-.171.175.175 0 0 1 .17.171.175.175 0 0 1-.17.171.168.168 0 0 1-.166-.17zm-76.282-2.66a.164.164 0 0 1 .167-.17.164.164 0 0 1 .169.17.167.167 0 0 1-.169.166.167.167 0 0 1-.163-.165zm101.127-3.535a.167.167 0 0 1 .171-.165.17.17 0 0 1 .17.165.176.176 0 0 1-.17.171.172.172 0 0 1-.164-.171zm-125.484-4.378a.173.173 0 0 1 .17-.171.173.173 0 0 1 .172.171.172.172 0 0 1-.172.171.173.173 0 0 1-.166-.171zm149.229-5.209a.164.164 0 0 1 .17-.165.17.17 0 0 1 .172.165.176.176 0 0 1-.172.171.169.169 0 0 1-.166-.171zm-81.538-1.817a1.247 1.247 0 0 1 1.244-1.244 1.243 1.243 0 0 1 1.245 1.244 1.243 1.243 0 0 1-1.245 1.245 1.247 1.247 0 0 1-1.244-1.245zm25.524-2a1.242 1.242 0 0 1 1.245-1.244 1.244 1.244 0 0 1 1.247 1.244 1.244 1.244 0 0 1-1.247 1.239 1.241 1.241 0 0 1-1.244-1.244zm-50.993 0a1.192 1.192 0 0 1 1.189-1.189 1.187 1.187 0 0 1 1.185 1.189 1.182 1.182 0 0 1-1.185 1.184 1.187 1.187 0 0 1-1.188-1.189zm-65.18-2.191a.112.112 0 0 1 .116-.11.111.111 0 0 1 .11.11.115.115 0 0 1-.11.115.116.116 0 0 1-.115-.12zm141.125-3.789a1.187 1.187 0 0 1 1.189-1.184 1.184 1.184 0 0 1 1.185 1.184 1.187 1.187 0 0 1-1.185 1.189 1.191 1.191 0 0 1-1.188-1.194zm-100.834 0a1.181 1.181 0 0 1 1.183-1.184 1.183 1.183 0 0 1 1.186 1.184 1.187 1.187 0 0 1-1.186 1.189 1.185 1.185 0 0 1-1.183-1.194zm154.076-3a.171.171 0 0 1 .17-.172.171.171 0 0 1 .169.172.17.17 0 0 1-.169.17.17.17 0 0 1-.17-.171zm-29.645-6.8a1.243 1.243 0 0 1 1.245-1.244 1.243 1.243 0 0 1 1.245 1.244 1.243 1.243 0 0 1-1.245 1.245 1.243 1.243 0 0 1-1.245-1.242zm-148.088 0a1.181 1.181 0 0 1 1.185-1.184 1.182 1.182 0 0 1 1.189 1.184 1.183 1.183 0 0 1-1.189 1.185 1.182 1.182 0 0 1-1.185-1.182zm66.479-2.753a2.375 2.375 0 0 1 2.38-2.373 2.372 2.372 0 0 1 2.368 2.373 2.372 2.372 0 0 1-2.368 2.374 2.375 2.375 0 0 1-2.38-2.371zm-104.338 2.021a.113.113 0 0 1 .109-.115.111.111 0 0 1 .11.115.108.108 0 0 1-.11.116.11.11 0 0 1-.109-.113zm129.907-3.167a2.38 2.38 0 0 1 2.379-2.379 2.374 2.374 0 0 1 2.369 2.379 2.369 2.369 0 0 1-2.369 2.369 2.374 2.374 0 0 1-2.379-2.365zm-50.934-2.29a2.374 2.374 0 0 1 2.375-2.374 2.376 2.376 0 0 1 2.376 2.374 2.376 2.376 0 0 1-2.376 2.373 2.374 2.374 0 0 1-2.374-2.37zm75.889-3.4a2.379 2.379 0 0 1 2.371-2.379 2.378 2.378 0 0 1 2.377 2.379 2.374 2.374 0 0 1-2.377 2.373 2.374 2.374 0 0 1-2.371-2.373zm80.91.628a.172.172 0 0 1 .17-.171.172.172 0 0 1 .171.171.172.172 0 0 1-.171.171.171.171 0 0 1-.168-.168zm-181.083-5.127a2.318 2.318 0 0 1 2.319-2.318 2.32 2.32 0 0 1 2.319 2.318 2.324 2.324 0 0 1-2.319 2.319 2.322 2.322 0 0 1-2.319-2.32zm153.145.722a1.192 1.192 0 0 1 1.19-1.189 1.188 1.188 0 0 1 1.186 1.189 1.188 1.188 0 0 1-1.186 1.189 1.192 1.192 0 0 1-1.19-1.19zm-191.753 0a1.131 1.131 0 0 1 1.133-1.129 1.131 1.131 0 0 1 1.13 1.129 1.131 1.131 0 0 1-1.13 1.129 1.131 1.131 0 0 1-1.133-1.13zm162.313-6.278a2.375 2.375 0 0 1 2.38-2.373 2.374 2.374 0 0 1 2.374 2.373 2.375 2.375 0 0 1-2.374 2.374 2.376 2.376 0 0 1-2.38-2.375zm-197.428 1.784a.111.111 0 0 1 .115-.11.111.111 0 0 1 .11.11.112.112 0 0 1-.11.116.112.112 0 0 1-.116-.114zm141.383-5.8a3.562 3.562 0 0 1 3.565-3.558 3.562 3.562 0 0 1 3.563 3.558 3.566 3.566 0 0 1-3.563 3.563 3.566 3.566 0 0 1-3.566-3.568zm-25.531 0a3.506 3.506 0 0 1 3.511-3.5 3.5 3.5 0 0 1 3.5 3.5 3.5 3.5 0 0 1-3.5 3.508 3.508 3.508 0 0 1-3.512-3.513zm-64.667-2.55a2.314 2.314 0 0 1 2.318-2.313 2.309 2.309 0 0 1 2.314 2.313 2.31 2.31 0 0 1-2.314 2.318 2.315 2.315 0 0 1-2.318-2.322zm115.22-2.764a3.567 3.567 0 0 1 3.565-3.564 3.566 3.566 0 0 1 3.563 3.564 3.564 3.564 0 0 1-3.563 3.562 3.566 3.566 0 0 1-3.562-3.566zm-75.569 0a3.506 3.506 0 0 1 3.5-3.508 3.508 3.508 0 0 1 3.509 3.508 3.506 3.506 0 0 1-3.509 3.5 3.5 3.5 0 0 1-3.5-3.504zm181.759 1.6a.167.167 0 0 1 .171-.165.168.168 0 0 1 .17.165.172.172 0 0 1-.17.171.171.171 0 0 1-.171-.173zm-26.313-2.61a1.243 1.243 0 0 1 1.245-1.244 1.243 1.243 0 0 1 1.245 1.244 1.242 1.242 0 0 1-1.245 1.239 1.242 1.242 0 0 1-1.245-1.242zm-230.631 0a1.132 1.132 0 0 1 1.13-1.134 1.128 1.128 0 0 1 1.128 1.134 1.127 1.127 0 0 1-1.128 1.129 1.131 1.131 0 0 1-1.13-1.132zm203.141-3.75a2.376 2.376 0 0 1 2.374-2.379 2.375 2.375 0 0 1 2.374 2.379 2.369 2.369 0 0 1-2.374 2.368 2.37 2.37 0 0 1-2.374-2.371zm-29.018-5.645a3.566 3.566 0 0 1 3.565-3.563 3.566 3.566 0 0 1 3.564 3.563 3.566 3.566 0 0 1-3.564 3.563 3.567 3.567 0 0 1-3.565-3.565zm-122.31 0a3.5 3.5 0 0 1 3.5-3.5 3.5 3.5 0 0 1 3.5 3.5 3.506 3.506 0 0 1-3.5 3.508 3.506 3.506 0 0 1-3.5-3.51zm-83.922 1.917a.116.116 0 0 1 .11-.116.116.116 0 0 1 .111.116.107.107 0 0 1-.111.109.107.107 0 0 1-.11-.111zm150.319-6.113a4.7 4.7 0 0 1 4.7-4.7 4.693 4.693 0 0 1 4.689 4.7 4.686 4.686 0 0 1-4.689 4.686 4.692 4.692 0 0 1-4.7-4.688zm-102.687 1.409a2.313 2.313 0 0 1 2.314-2.312 2.314 2.314 0 0 1 2.32 2.313 2.316 2.316 0 0 1-2.32 2.319 2.315 2.315 0 0 1-2.314-2.322zm77.175-3.018a4.7 4.7 0 0 1 4.694-4.691 4.693 4.693 0 0 1 4.693 4.691 4.69 4.69 0 0 1-4.693 4.692 4.693 4.693 0 0 1-4.694-4.694zm50.623-3.182a4.7 4.7 0 0 1 4.695-4.692 4.7 4.7 0 0 1 4.692 4.692 4.693 4.693 0 0 1-4.692 4.692 4.693 4.693 0 0 1-4.696-4.694zm128.674.286a.172.172 0 0 1 .171-.171.171.171 0 0 1 .17.171.171.171 0 0 1-.17.17.172.172 0 0 1-.171-.172zm-24.681-1.366a1.192 1.192 0 0 1 1.19-1.189 1.187 1.187 0 0 1 1.184 1.189 1.187 1.187 0 0 1-1.184 1.19 1.192 1.192 0 0 1-1.19-1.192zm-263.946 0a1.131 1.131 0 0 1 1.134-1.128 1.131 1.131 0 0 1 1.13 1.128 1.13 1.13 0 0 1-1.13 1.129 1.131 1.131 0 0 1-1.135-1.131zm85.023-3.634a4.688 4.688 0 0 1 4.689-4.687 4.689 4.689 0 0 1 4.693 4.687 4.69 4.69 0 0 1-4.693 4.692 4.689 4.689 0 0 1-4.689-4.694zm153.249 1.663a2.38 2.38 0 0 1 2.376-2.379 2.378 2.378 0 0 1 2.374 2.379 2.373 2.373 0 0 1-2.374 2.373 2.375 2.375 0 0 1-2.376-2.375zm-26.818-2.991a3.565 3.565 0 0 1 3.559-3.562 3.567 3.567 0 0 1 3.57 3.562 3.563 3.563 0 0 1-3.57 3.557 3.561 3.561 0 0 1-3.56-3.558zm-163.707 0a3.5 3.5 0 0 1 3.5-3.508 3.507 3.507 0 0 1 3.509 3.508 3.506 3.506 0 0 1-3.509 3.5 3.5 3.5 0 0 1-3.5-3.501zm135.335-4.841a4.691 4.691 0 0 1 4.693-4.687 4.692 4.692 0 0 1 4.694 4.687 4.7 4.7 0 0 1-4.694 4.7 4.7 4.7 0 0 1-4.693-4.701zm-55.825-4.515a5.876 5.876 0 0 1 5.877-5.881 5.88 5.88 0 0 1 5.878 5.881 5.884 5.884 0 0 1-5.878 5.881 5.88 5.88 0 0 1-5.877-5.882zm-156.31 4.592a.117.117 0 0 1 .117-.116.114.114 0 0 1 .109.116.11.11 0 0 1-.109.11.113.113 0 0 1-.116-.111zm44.367-2.258a2.316 2.316 0 0 1 2.321-2.318 2.318 2.318 0 0 1 2.318 2.318 2.322 2.322 0 0 1-2.318 2.318 2.319 2.319 0 0 1-2.321-2.318zm137.146-6.327a5.878 5.878 0 0 1 5.884-5.876 5.876 5.876 0 0 1 5.884 5.876 5.88 5.88 0 0 1-5.884 5.881 5.882 5.882 0 0 1-5.884-5.882zm-50.358 0a5.82 5.82 0 0 1 5.822-5.821 5.82 5.82 0 0 1 5.824 5.821 5.825 5.825 0 0 1-5.824 5.826 5.825 5.825 0 0 1-5.822-5.827zm-38.61.985a4.639 4.639 0 0 1 4.64-4.636 4.637 4.637 0 0 1 4.639 4.636 4.638 4.638 0 0 1-4.639 4.637 4.639 4.639 0 0 1-4.643-4.637zm189.827-5.347a2.374 2.374 0 0 1 2.374-2.374 2.373 2.373 0 0 1 2.374 2.374 2.373 2.373 0 0 1-2.374 2.373 2.373 2.373 0 0 1-2.374-2.374zm-24.749-1.293a3.566 3.566 0 0 1 3.564-3.563 3.567 3.567 0 0 1 3.566 3.563 3.563 3.563 0 0 1-3.566 3.558 3.561 3.561 0 0 1-3.563-3.559zm-197.886 0a3.446 3.446 0 0 1 3.449-3.448 3.447 3.447 0 0 1 3.45 3.448 3.448 3.448 0 0 1-3.45 3.447 3.447 3.447 0 0 1-3.444-3.448zm246.583 2.143a1.246 1.246 0 0 1 1.245-1.245 1.246 1.246 0 0 1 1.245 1.245 1.243 1.243 0 0 1-1.245 1.244 1.243 1.243 0 0 1-1.245-1.245zm-290.645 0a1.134 1.134 0 0 1 1.134-1.129 1.131 1.131 0 0 1 1.131 1.129 1.132 1.132 0 0 1-1.131 1.134 1.136 1.136 0 0 1-1.134-1.135zm314.03.583a.17.17 0 0 1 .167-.165.167.167 0 0 1 .17.165.165.165 0 0 1-.17.171.167.167 0 0 1-.166-.173zm-97.876-4.845a4.691 4.691 0 0 1 4.694-4.692 4.69 4.69 0 0 1 4.693 4.692 4.689 4.689 0 0 1-4.693 4.691 4.69 4.69 0 0 1-4.694-4.693zm-27.574-3.805a5.886 5.886 0 0 1 5.884-5.882 5.884 5.884 0 0 1 5.878 5.882 5.875 5.875 0 0 1-5.875 5.878 5.877 5.877 0 0 1-5.887-5.881zm-95.85 0a5.83 5.83 0 0 1 5.829-5.826 5.829 5.829 0 0 1 5.825 5.826 5.825 5.825 0 0 1-5.825 5.82 5.826 5.826 0 0 1-5.828-5.823zm40.433-5.149a6.951 6.951 0 0 1 6.951-6.949 6.953 6.953 0 0 1 6.96 6.949 6.953 6.953 0 0 1-6.96 6.95 6.951 6.951 0 0 1-6.947-6.953zm25.3-2.659a6.952 6.952 0 0 1 6.958-6.95 6.952 6.952 0 0 1 6.954 6.95 6.953 6.953 0 0 1-6.954 6.955 6.953 6.953 0 0 1-6.954-6.958zm-99.09 1.751a4.639 4.639 0 0 1 4.639-4.637 4.638 4.638 0 0 1 4.64 4.637 4.634 4.634 0 0 1-4.64 4.632 4.635 4.635 0 0 1-4.64-4.635zm-43.809 2a2.316 2.316 0 0 1 2.321-2.319 2.316 2.316 0 0 1 2.318 2.319 2.319 2.319 0 0 1-2.318 2.318 2.319 2.319 0 0 1-2.318-2.317zm-41.655.837a.117.117 0 0 1 .117-.115.116.116 0 0 1 .115.115.115.115 0 0 1-.115.111.117.117 0 0 1-.118-.113zm135.116-9.791a6.891 6.891 0 0 1 6.9-6.9 6.893 6.893 0 0 1 6.9 6.9 6.9 6.9 0 0 1-6.9 6.9 6.9 6.9 0 0 1-6.901-6.899zm97.6-5.033a5.882 5.882 0 0 1 5.884-5.882 5.882 5.882 0 0 1 5.884 5.882 5.885 5.885 0 0 1-5.884 5.881 5.885 5.885 0 0 1-5.88-5.88zm24.55 1.173a4.7 4.7 0 0 1 4.695-4.692 4.693 4.693 0 0 1 4.693 4.692 4.689 4.689 0 0 1-4.693 4.691 4.693 4.693 0 0 1-4.691-4.69zm-156.435-1.173a5.769 5.769 0 0 1 5.768-5.766 5.77 5.77 0 0 1 5.77 5.766 5.77 5.77 0 0 1-5.77 5.766 5.769 5.769 0 0 1-5.764-5.765zm180 1.817a3.557 3.557 0 0 1 3.558-3.558 3.562 3.562 0 0 1 3.57 3.558 3.566 3.566 0 0 1-3.57 3.563 3.561 3.561 0 0 1-3.556-3.558zm-223.47 0a3.449 3.449 0 0 1 3.449-3.448 3.446 3.446 0 0 1 3.448 3.448 3.445 3.445 0 0 1-3.448 3.447 3.449 3.449 0 0 1-3.452-3.442zm246.524.391a2.375 2.375 0 0 1 2.38-2.368 2.366 2.366 0 0 1 2.371 2.368 2.376 2.376 0 0 1-2.371 2.379 2.385 2.385 0 0 1-2.378-2.378zm-97.3-4.692a6.951 6.951 0 0 1 6.953-6.95 6.951 6.951 0 0 1 6.958 6.95 6.956 6.956 0 0 1-6.958 6.955 6.956 6.956 0 0 1-6.948-6.949zm120 4.95a1.189 1.189 0 0 1 1.19-1.189 1.187 1.187 0 0 1 1.184 1.189 1.187 1.187 0 0 1-1.184 1.189 1.189 1.189 0 0 1-1.184-1.187zm-310.294-.005a1.129 1.129 0 0 1 1.128-1.124 1.13 1.13 0 0 1 1.135 1.124 1.132 1.132 0 0 1-1.135 1.134 1.131 1.131 0 0 1-1.122-1.132zm332.58.182a.171.171 0 0 1 .169-.171.172.172 0 0 1 .172.171.167.167 0 0 1-.172.165.166.166 0 0 1-.163-.164zm-193.176-11.8a4.3 4.3 0 0 1 4.3-4.295 4.3 4.3 0 0 1 4.3 4.295 4.3 4.3 0 0 1-4.3 4.3 4.3 4.3 0 0 1-4.294-4.301zm25.321.006a4.184 4.184 0 0 1 4.188-4.185 4.187 4.187 0 0 1 4.185 4.185 4.186 4.186 0 0 1-4.185 4.18 4.183 4.183 0 0 1-4.182-4.18zm-64.816-2.831a6.9 6.9 0 0 1 6.9-6.9 6.9 6.9 0 0 1 6.9 6.9 6.9 6.9 0 0 1-6.9 6.9 6.9 6.9 0 0 1-6.894-6.896zm-43.053 1.575a4.637 4.637 0 0 1 4.638-4.636 4.638 4.638 0 0 1 4.639 4.636 4.638 4.638 0 0 1-4.639 4.637 4.637 4.637 0 0 1-4.633-4.637zm-40.433.441a2.258 2.258 0 0 1 2.257-2.258 2.257 2.257 0 0 1 2.266 2.258 2.262 2.262 0 0 1-2.266 2.263 2.263 2.263 0 0 1-2.251-2.263zm-39.778.182a.108.108 0 0 1 .116-.11.108.108 0 0 1 .111.11.116.116 0 0 1-.111.115.116.116 0 0 1-.11-.115zm228.6-13.271a6.953 6.953 0 0 1 6.957-6.95 6.951 6.951 0 0 1 6.953 6.95 6.955 6.955 0 0 1-6.953 6.955 6.957 6.957 0 0 1-6.951-6.956zm22.77.324a5.88 5.88 0 0 1 5.877-5.882 5.884 5.884 0 0 1 5.884 5.882 5.876 5.876 0 0 1-5.884 5.876 5.872 5.872 0 0 1-5.871-5.876zm-155.069 0a5.77 5.77 0 0 1 5.77-5.766 5.766 5.766 0 0 1 5.768 5.766 5.766 5.766 0 0 1-5.768 5.766 5.77 5.77 0 0 1-5.764-5.766zm177.437.149a4.7 4.7 0 0 1 4.693-4.692 4.694 4.694 0 0 1 4.694 4.692 4.691 4.691 0 0 1-4.694 4.692 4.693 4.693 0 0 1-4.688-4.688zm22.059.082a3.561 3.561 0 0 1 3.56-3.562 3.561 3.561 0 0 1 3.563 3.563 3.562 3.562 0 0 1-3.563 3.563 3.562 3.562 0 0 1-3.555-3.564zm-239.281 0a3.445 3.445 0 0 1 3.448-3.448 3.446 3.446 0 0 1 3.448 3.448 3.445 3.445 0 0 1-3.448 3.448 3.445 3.445 0 0 1-3.442-3.448zm85.679-1.464a4.467 4.467 0 0 1 4.469-4.466 4.466 4.466 0 0 1 4.467 4.466 4.466 4.466 0 0 1-4.467 4.466 4.467 4.467 0 0 1-4.464-4.467zm66.34 0a4.129 4.129 0 0 1 4.128-4.13 4.128 4.128 0 0 1 4.126 4.13 4.123 4.123 0 0 1-4.126 4.125 4.123 4.123 0 0 1-4.123-4.126zm109.222 1.514a2.375 2.375 0 0 1 2.38-2.373 2.374 2.374 0 0 1 2.375 2.373 2.374 2.374 0 0 1-2.375 2.374 2.375 2.375 0 0 1-2.375-2.375zm21.815.033a1.245 1.245 0 0 1 1.246-1.245 1.241 1.241 0 0 1 1.239 1.245 1.24 1.24 0 0 1-1.239 1.244 1.244 1.244 0 0 1-1.241-1.244zm-322.195 0a1.133 1.133 0 0 1 1.134-1.129 1.131 1.131 0 0 1 1.13 1.129 1.131 1.131 0 0 1-1.13 1.129 1.133 1.133 0 0 1-1.129-1.129zm343.885.022a.171.171 0 0 1 .171-.17.165.165 0 0 1 .166.17.167.167 0 0 1-.166.171.172.172 0 0 1-.165-.171zm-175.579-6.146a.278.278 0 0 1 .281-.281.28.28 0 0 1 .282.281.283.283 0 0 1-.282.28.281.281 0 0 1-.275-.28zm-72.77-6.674a6.9 6.9 0 0 1 6.9-6.9 6.9 6.9 0 0 1 6.9 6.9 6.9 6.9 0 0 1-6.9 6.895 6.9 6.9 0 0 1-6.891-6.895zm-39.006.061a4.583 4.583 0 0 1 4.584-4.582 4.577 4.577 0 0 1 4.578 4.582 4.575 4.575 0 0 1-4.578 4.575 4.582 4.582 0 0 1-4.578-4.575zm-38.7.01a2.262 2.262 0 0 1 2.265-2.258 2.258 2.258 0 0 1 2.258 2.258 2.255 2.255 0 0 1-2.258 2.264 2.259 2.259 0 0 1-2.261-2.264zm-38.769.011a.12.12 0 0 1 .115-.115.12.12 0 0 1 .116.115.121.121 0 0 1-.116.116.121.121 0 0 1-.11-.116zm166.328-.815a.394.394 0 0 1 .4-.4.4.4 0 0 1 .4.4.4.4 0 0 1-.4.4.4.4 0 0 1-.395-.4zm71.125-11.983a6.956 6.956 0 0 1 6.958-6.955 6.952 6.952 0 0 1 6.952 6.955 6.951 6.951 0 0 1-6.952 6.95 6.955 6.955 0 0 1-6.954-6.95zm21.474 0a5.878 5.878 0 0 1 5.88-5.881 5.882 5.882 0 0 1 5.878 5.881 5.88 5.88 0 0 1-5.878 5.876 5.877 5.877 0 0 1-5.876-5.876zm-163.05 0a5.762 5.762 0 0 1 5.769-5.765 5.765 5.765 0 0 1 5.768 5.765 5.769 5.769 0 0 1-5.768 5.766 5.766 5.766 0 0 1-5.762-5.766zm184.63 0a4.689 4.689 0 0 1 4.695-4.692 4.69 4.69 0 0 1 4.693 4.692 4.692 4.692 0 0 1-4.693 4.692 4.692 4.692 0 0 1-4.691-4.692zm-142.711 0a4.638 4.638 0 0 1 4.639-4.636 4.642 4.642 0 0 1 4.639 4.636 4.642 4.642 0 0 1-4.639 4.637 4.639 4.639 0 0 1-4.635-4.637zm82.032 0a4.185 4.185 0 0 1 4.188-4.185 4.183 4.183 0 0 1 4.182 4.185 4.182 4.182 0 0 1-4.182 4.18 4.185 4.185 0 0 1-4.184-4.18zm82.21 0a3.562 3.562 0 0 1 3.559-3.563 3.565 3.565 0 0 1 3.563 3.563 3.566 3.566 0 0 1-3.563 3.564 3.563 3.563 0 0 1-3.555-3.564zm-244.631 0a3.446 3.446 0 0 1 3.45-3.447 3.445 3.445 0 0 1 3.448 3.447 3.446 3.446 0 0 1-3.448 3.448 3.446 3.446 0 0 1-3.447-3.448zm266.211 0a2.374 2.374 0 0 1 2.375-2.373 2.373 2.373 0 0 1 2.374 2.373 2.374 2.374 0 0 1-2.374 2.375 2.375 2.375 0 0 1-2.372-2.375zm21.525 0a1.246 1.246 0 0 1 1.244-1.244 1.243 1.243 0 0 1 1.245 1.244 1.243 1.243 0 0 1-1.245 1.245 1.246 1.246 0 0 1-1.24-1.245zm-326.212 0a1.13 1.13 0 0 1 1.134-1.128 1.13 1.13 0 0 1 1.129 1.128 1.13 1.13 0 0 1-1.129 1.129 1.131 1.131 0 0 1-1.13-1.129zm184.41 0a.286.286 0 0 1 .28-.286.286.286 0 0 1 .281.286.282.282 0 0 1-.281.281.282.282 0 0 1-.277-.281zm163.271 0a.171.171 0 0 1 .171-.17.172.172 0 0 1 .172.17.173.173 0 0 1-.172.171.171.171 0 0 1-.168-.171zm-250.128-12.714a6.9 6.9 0 0 1 6.9-6.9 6.9 6.9 0 0 1 6.9 6.9 6.9 6.9 0 0 1-6.9 6.893 6.894 6.894 0 0 1-6.9-6.893zm-39.006-.061a4.587 4.587 0 0 1 4.584-4.581 4.58 4.58 0 0 1 4.578 4.581 4.576 4.576 0 0 1-4.578 4.576 4.582 4.582 0 0 1-4.587-4.577zm-38.7-.016a2.262 2.262 0 0 1 2.265-2.263 2.258 2.258 0 0 1 2.258 2.263 2.254 2.254 0 0 1-2.258 2.258 2.258 2.258 0 0 1-2.27-2.259zm127.451.81a.509.509 0 0 1 .5-.512.509.509 0 0 1 .506.512.505.505 0 0 1-.506.507.5.5 0 0 1-.505-.508zm-166.22-.815a.116.116 0 0 1 .115-.115.116.116 0 0 1 .116.115.116.116 0 0 1-.116.11.115.115 0 0 1-.119-.112zm232.164-12.082a6.951 6.951 0 0 1 6.957-6.949 6.949 6.949 0 0 1 6.953 6.949 6.952 6.952 0 0 1-6.953 6.956 6.954 6.954 0 0 1-6.962-6.958zm-43.088 5.491a.45.45 0 0 1 .452-.452.454.454 0 0 1 .453.452.454.454 0 0 1-.453.451.45.45 0 0 1-.453-.453zm-43.544-4.576a4.69 4.69 0 0 1 4.694-4.692 4.693 4.693 0 0 1 4.693 4.692 4.693 4.693 0 0 1-4.693 4.693 4.69 4.69 0 0 1-4.699-4.695zm109.456-1.234a5.82 5.82 0 0 1 5.822-5.82 5.825 5.825 0 0 1 5.83 5.82 5.825 5.825 0 0 1-5.83 5.821 5.82 5.82 0 0 1-5.827-5.823zm-155.062 0a5.71 5.71 0 0 1 5.713-5.711 5.709 5.709 0 0 1 5.708 5.711 5.712 5.712 0 0 1-5.708 5.711 5.713 5.713 0 0 1-5.717-5.713zm111.941 1.234a4.355 4.355 0 0 1 4.358-4.356 4.355 4.355 0 0 1 4.352 4.356 4.354 4.354 0 0 1-4.352 4.351 4.354 4.354 0 0 1-4.362-4.353zm65.433-1.382a4.693 4.693 0 0 1 4.693-4.692 4.691 4.691 0 0 1 4.694 4.692 4.694 4.694 0 0 1-4.694 4.692 4.7 4.7 0 0 1-4.697-4.694zm22.115-.083a3.506 3.506 0 0 1 3.5-3.508 3.507 3.507 0 0 1 3.508 3.508 3.506 3.506 0 0 1-3.508 3.5 3.5 3.5 0 0 1-3.503-3.502zm-239.337 0a3.446 3.446 0 0 1 3.448-3.448 3.446 3.446 0 0 1 3.448 3.448 3.449 3.449 0 0 1-3.448 3.447 3.448 3.448 0 0 1-3.451-3.449zm261.241-.049a2.377 2.377 0 0 1 2.38-2.38 2.376 2.376 0 0 1 2.375 2.38 2.374 2.374 0 0 1-2.375 2.373 2.375 2.375 0 0 1-2.384-2.375zm21.872-.033a1.188 1.188 0 0 1 1.189-1.189 1.187 1.187 0 0 1 1.184 1.189 1.182 1.182 0 0 1-1.184 1.183 1.183 1.183 0 0 1-1.194-1.186zm-322.251 0a1.133 1.133 0 0 1 1.134-1.129 1.131 1.131 0 0 1 1.13 1.129 1.127 1.127 0 0 1-1.13 1.129 1.129 1.129 0 0 1-1.139-1.132zm343.885-.022a.172.172 0 0 1 .171-.17.166.166 0 0 1 .166.17.166.166 0 0 1-.166.17.172.172 0 0 1-.175-.173zm-238-10.413a6.9 6.9 0 0 1 6.9-6.894 6.894 6.894 0 0 1 6.9 6.894 6.894 6.894 0 0 1-6.9 6.894 6.9 6.9 0 0 1-6.902-6.896zm-43-1.575a4.583 4.583 0 0 1 4.584-4.582 4.581 4.581 0 0 1 4.578 4.582 4.582 4.582 0 0 1-4.578 4.583 4.585 4.585 0 0 1-4.586-4.586zm82.1-1.255a4.7 4.7 0 0 1 4.695-4.692 4.693 4.693 0 0 1 4.693 4.692 4.689 4.689 0 0 1-4.693 4.691 4.693 4.693 0 0 1-4.698-4.694zm25.321 0a4.581 4.581 0 0 1 4.584-4.577 4.578 4.578 0 0 1 4.578 4.577 4.582 4.582 0 0 1-4.578 4.581 4.586 4.586 0 0 1-4.587-4.584zm-147.906.815a2.262 2.262 0 0 1 2.257-2.264 2.261 2.261 0 0 1 2.266 2.264 2.262 2.262 0 0 1-2.266 2.263 2.262 2.262 0 0 1-2.26-2.266zm-39.778-.182a.113.113 0 0 1 .116-.115.112.112 0 0 1 .111.115.111.111 0 0 1-.111.11.112.112 0 0 1-.119-.115zm213.648-7.307a6.951 6.951 0 0 1 6.953-6.95 6.951 6.951 0 0 1 6.958 6.95 6.952 6.952 0 0 1-6.958 6.955 6.952 6.952 0 0 1-6.956-6.959zm26.184-2.478a5.831 5.831 0 0 1 5.829-5.826 5.826 5.826 0 0 1 5.824 5.826 5.826 5.826 0 0 1-5.824 5.826 5.831 5.831 0 0 1-5.831-5.83zm-131.884 0a5.713 5.713 0 0 1 5.712-5.711 5.714 5.714 0 0 1 5.713 5.711 5.711 5.711 0 0 1-5.713 5.711 5.71 5.71 0 0 1-5.715-5.715zm156.44-1.173a4.637 4.637 0 0 1 4.634-4.637 4.634 4.634 0 0 1 4.638 4.637 4.629 4.629 0 0 1-4.638 4.632 4.633 4.633 0 0 1-4.637-4.636zm-122.215-3.86a6.9 6.9 0 0 1 6.9-6.9 6.9 6.9 0 0 1 6.9 6.9 6.9 6.9 0 0 1-6.9 6.894 6.894 6.894 0 0 1-6.903-6.898zm145.771 3.21a3.5 3.5 0 0 1 3.5-3.5 3.507 3.507 0 0 1 3.51 3.5 3.508 3.508 0 0 1-3.51 3.508 3.506 3.506 0 0 1-3.503-3.512zm-223.468 0a3.394 3.394 0 0 1 3.393-3.392 3.394 3.394 0 0 1 3.392 3.392 3.39 3.39 0 0 1-3.392 3.392 3.39 3.39 0 0 1-3.396-3.396zm246.469-.391a2.38 2.38 0 0 1 2.38-2.373 2.371 2.371 0 0 1 2.371 2.373 2.376 2.376 0 0 1-2.371 2.38 2.385 2.385 0 0 1-2.383-2.386zm22.7-.253a1.187 1.187 0 0 1 1.186-1.189 1.187 1.187 0 0 1 1.189 1.189 1.184 1.184 0 0 1-1.189 1.184 1.184 1.184 0 0 1-1.185-1.188zm-310.241 0a1.073 1.073 0 0 1 1.075-1.074 1.073 1.073 0 0 1 1.075 1.074 1.077 1.077 0 0 1-1.075 1.074 1.076 1.076 0 0 1-1.073-1.078zm332.526-.176a.172.172 0 0 1 .169-.171.172.172 0 0 1 .172.171.172.172 0 0 1-.172.171.171.171 0 0 1-.167-.175zm-164.269-7.594a6.9 6.9 0 0 1 6.9-6.894 6.9 6.9 0 0 1 6.9 6.894 6.9 6.9 0 0 1-6.9 6.9 6.9 6.9 0 0 1-6.898-6.904zm-25.3-2.654a6.9 6.9 0 0 1 6.9-6.9 6.9 6.9 0 0 1 6.905 6.9 6.9 6.9 0 0 1-6.905 6.894 6.9 6.9 0 0 1-6.896-6.898zm-73.785.908a4.582 4.582 0 0 1 4.578-4.582 4.581 4.581 0 0 1 4.578 4.582 4.58 4.58 0 0 1-4.578 4.581 4.582 4.582 0 0 1-4.574-4.585zm-43.809-2a2.254 2.254 0 0 1 2.259-2.263 2.26 2.26 0 0 1 2.263 2.263 2.262 2.262 0 0 1-2.263 2.258 2.256 2.256 0 0 1-2.255-2.261zm173.072-4.058a5.765 5.765 0 0 1 5.768-5.766 5.769 5.769 0 0 1 5.768 5.766 5.768 5.768 0 0 1-5.768 5.766 5.765 5.765 0 0 1-5.764-5.769zm-95.85 0a5.714 5.714 0 0 1 5.713-5.71 5.709 5.709 0 0 1 5.713 5.71 5.713 5.713 0 0 1-5.713 5.71 5.719 5.719 0 0 1-5.709-5.713zm-118.938 3.221a.117.117 0 0 1 .117-.115.115.115 0 0 1 .115.115.115.115 0 0 1-.115.11.117.117 0 0 1-.114-.11zm242.308-7.027a4.633 4.633 0 0 1 4.633-4.636 4.638 4.638 0 0 1 4.64 4.636 4.639 4.639 0 0 1-4.64 4.637 4.634 4.634 0 0 1-4.63-4.64zm25.788-2.119a3.507 3.507 0 0 1 3.509-3.508 3.506 3.506 0 0 1 3.505 3.508 3.505 3.505 0 0 1-3.505 3.5 3.506 3.506 0 0 1-3.507-3.504zm-197.885 0a3.4 3.4 0 0 1 3.394-3.393 3.4 3.4 0 0 1 3.395 3.393 3.4 3.4 0 0 1-3.395 3.392 3.394 3.394 0 0 1-3.392-3.396zm222.632-1.294a2.32 2.32 0 0 1 2.321-2.318 2.319 2.319 0 0 1 2.319 2.318 2.318 2.318 0 0 1-2.319 2.313 2.319 2.319 0 0 1-2.319-2.316zm-100.795-4.367a5.768 5.768 0 0 1 5.767-5.765 5.768 5.768 0 0 1 5.768 5.765 5.765 5.765 0 0 1-5.768 5.766 5.765 5.765 0 0 1-5.765-5.77zm-50.367.005a5.714 5.714 0 0 1 5.713-5.71 5.709 5.709 0 0 1 5.713 5.71 5.708 5.708 0 0 1-5.713 5.705 5.713 5.713 0 0 1-5.71-5.708zm175.116 3.509a1.183 1.183 0 0 1 1.186-1.185 1.187 1.187 0 0 1 1.189 1.185 1.188 1.188 0 0 1-1.189 1.189 1.184 1.184 0 0 1-1.183-1.196zm-290.647 0a1.079 1.079 0 0 1 1.077-1.074 1.081 1.081 0 0 1 1.077 1.074 1.077 1.077 0 0 1-1.077 1.073 1.075 1.075 0 0 1-1.075-1.08zm76.869-4.5a4.582 4.582 0 0 1 4.584-4.576 4.582 4.582 0 0 1 4.584 4.576 4.582 4.582 0 0 1-4.584 4.582 4.583 4.583 0 0 1-4.582-4.589zm237.1 3.916a.171.171 0 0 1 .167-.171.168.168 0 0 1 .17.171.168.168 0 0 1-.17.171.171.171 0 0 1-.16-.175zm-173.285-6.917a5.76 5.76 0 0 1 5.767-5.766 5.765 5.765 0 0 1 5.769 5.766 5.768 5.768 0 0 1-5.769 5.765 5.763 5.763 0 0 1-5.76-5.771zm55.769-4.521a4.638 4.638 0 0 1 4.639-4.637 4.639 4.639 0 0 1 4.639 4.637 4.638 4.638 0 0 1-4.639 4.636 4.637 4.637 0 0 1-4.633-4.639zm-167.767 2.186a2.264 2.264 0 0 1 2.266-2.263 2.263 2.263 0 0 1 2.263 2.263 2.259 2.259 0 0 1-2.263 2.258 2.259 2.259 0 0 1-2.26-2.261zm-44.421-2.258a.117.117 0 0 1 .117-.115.114.114 0 0 1 .109.115.106.106 0 0 1-.109.11.109.109 0 0 1-.111-.114zm240.562-4.763a3.506 3.506 0 0 1 3.508-3.5 3.505 3.505 0 0 1 3.505 3.5 3.505 3.505 0 0 1-3.505 3.5 3.506 3.506 0 0 1-3.503-3.504zm-163.652 0a3.394 3.394 0 0 1 3.394-3.392 3.4 3.4 0 0 1 3.395 3.392 3.4 3.4 0 0 1-3.395 3.392 3.394 3.394 0 0 1-3.389-3.396zm37.274-1.333a4.582 4.582 0 0 1 4.584-4.576 4.575 4.575 0 0 1 4.578 4.576 4.577 4.577 0 0 1-4.578 4.582 4.584 4.584 0 0 1-4.578-4.586zm153.2-1.657a2.319 2.319 0 0 1 2.32-2.319 2.319 2.319 0 0 1 2.318 2.319 2.319 2.319 0 0 1-2.318 2.318 2.319 2.319 0 0 1-2.319-2.322zm-78.318-3.05a4.638 4.638 0 0 1 4.638-4.637 4.638 4.638 0 0 1 4.639 4.637 4.634 4.634 0 0 1-4.639 4.632 4.634 4.634 0 0 1-4.637-4.636zm104 1.079a1.123 1.123 0 0 1 1.13-1.128 1.125 1.125 0 0 1 1.127 1.128 1.129 1.129 0 0 1-1.127 1.129 1.127 1.127 0 0 1-1.132-1.133zm-263.946 0a1.072 1.072 0 0 1 1.074-1.074 1.072 1.072 0 0 1 1.075 1.074 1.072 1.072 0 0 1-1.075 1.074 1.071 1.071 0 0 1-1.076-1.078zm109.384-4.263a4.582 4.582 0 0 1 4.58-4.581 4.582 4.582 0 0 1 4.582 4.581 4.577 4.577 0 0 1-4.582 4.576 4.578 4.578 0 0 1-4.582-4.58zm179.243 2.9a.111.111 0 0 1 .111-.11.111.111 0 0 1 .115.11.111.111 0 0 1-.115.11.111.111 0 0 1-.111-.117zm-153.728-4.5a4.578 4.578 0 0 1 4.582-4.576 4.576 4.576 0 0 1 4.574 4.576 4.58 4.58 0 0 1-4.574 4.582 4.582 4.582 0 0 1-4.584-4.594zm-102.75-1.426a2.263 2.263 0 0 1 2.259-2.258 2.261 2.261 0 0 1 2.266 2.258 2.261 2.261 0 0 1-2.266 2.263 2.263 2.263 0 0 1-2.259-2.263zm158.66-2.781a3.452 3.452 0 0 1 3.45-3.453 3.452 3.452 0 0 1 3.449 3.453 3.451 3.451 0 0 1-3.449 3.448 3.45 3.45 0 0 1-3.45-3.449zm-122.315 0a3.387 3.387 0 0 1 3.394-3.392 3.391 3.391 0 0 1 3.394 3.392 3.4 3.4 0 0 1-3.394 3.393 3.392 3.392 0 0 1-3.394-3.394zm-84.032-1.916a.116.116 0 0 1 .11-.116.115.115 0 0 1 .111.116.112.112 0 0 1-.111.116.112.112 0 0 1-.111-.119zm235.3-3.722a2.32 2.32 0 0 1 2.319-2.319 2.32 2.32 0 0 1 2.32 2.319 2.318 2.318 0 0 1-2.32 2.313 2.318 2.318 0 0 1-2.316-2.314zm-52.333-4.764a3.452 3.452 0 0 1 3.457-3.448 3.447 3.447 0 0 1 3.448 3.448 3.447 3.447 0 0 1-3.448 3.448 3.452 3.452 0 0 1-3.454-3.45zm-75.569 0a3.394 3.394 0 0 1 3.4-3.392 3.393 3.393 0 0 1 3.392 3.392 3.4 3.4 0 0 1-3.392 3.393 3.4 3.4 0 0 1-3.397-3.395zm155.449 1.008a1.132 1.132 0 0 1 1.133-1.128 1.132 1.132 0 0 1 1.131 1.128 1.132 1.132 0 0 1-1.131 1.129 1.132 1.132 0 0 1-1.13-1.131zm-230.687 0a1.071 1.071 0 0 1 1.074-1.073 1.072 1.072 0 0 1 1.073 1.073 1.073 1.073 0 0 1-1.073 1.075 1.072 1.072 0 0 1-1.069-1.077zm35.539-3.772a2.259 2.259 0 0 1 2.258-2.263 2.263 2.263 0 0 1 2.265 2.263 2.261 2.261 0 0 1-2.265 2.257 2.257 2.257 0 0 1-2.255-2.259zm221.411 1.157a.109.109 0 0 1 .109-.11.117.117 0 0 1 .115.11.118.118 0 0 1-.115.115.111.111 0 0 1-.105-.117zm-131.155-3.71a3.45 3.45 0 0 1 3.45-3.447 3.452 3.452 0 0 1 3.447 3.447 3.454 3.454 0 0 1-3.447 3.453 3.451 3.451 0 0 1-3.45-3.453zm-25.585 0a3.449 3.449 0 0 1 3.449-3.447 3.45 3.45 0 0 1 3.448 3.447 3.452 3.452 0 0 1-3.448 3.453 3.451 3.451 0 0 1-3.454-3.453zm81.574-4.014a2.319 2.319 0 0 1 2.321-2.319 2.318 2.318 0 0 1 2.313 2.319 2.318 2.318 0 0 1-2.313 2.318 2.319 2.319 0 0 1-2.321-2.322zm-197.487-1.79a.11.11 0 0 1 .115-.11.11.11 0 0 1 .11.11.111.111 0 0 1-.11.11.111.111 0 0 1-.116-.114zm73.778-3.767a2.264 2.264 0 0 1 2.265-2.263 2.264 2.264 0 0 1 2.265 2.263 2.264 2.264 0 0 1-2.265 2.263 2.264 2.264 0 0 1-2.265-2.267zm153.152-.721a1.124 1.124 0 0 1 1.129-1.129 1.127 1.127 0 0 1 1.129 1.129 1.131 1.131 0 0 1-1.129 1.129 1.127 1.127 0 0 1-1.13-1.137zm-191.755 0a1.073 1.073 0 0 1 1.074-1.074 1.073 1.073 0 0 1 1.076 1.074 1.076 1.076 0 0 1-1.076 1.073 1.076 1.076 0 0 1-1.074-1.081zm138.833-3.778a2.264 2.264 0 0 1 2.264-2.264 2.261 2.261 0 0 1 2.259 2.264 2.26 2.26 0 0 1-2.259 2.263 2.263 2.263 0 0 1-2.264-2.267zm80.859-.628a.11.11 0 0 1 .11-.115.109.109 0 0 1 .109.115.108.108 0 0 1-.109.11.109.109 0 0 1-.111-.112zm-156.744-2.775a2.26 2.26 0 0 1 2.264-2.263 2.263 2.263 0 0 1 2.259 2.263 2.262 2.262 0 0 1-2.259 2.258 2.259 2.259 0 0 1-2.264-2.262zm50.934-2.29a2.257 2.257 0 0 1 2.259-2.258 2.259 2.259 0 0 1 2.264 2.258 2.263 2.263 0 0 1-2.264 2.263 2.261 2.261 0 0 1-2.26-2.268zm-25.569-1.146a2.255 2.255 0 0 1 2.265-2.258 2.258 2.258 0 0 1 2.258 2.258 2.258 2.258 0 0 1-2.258 2.258 2.255 2.255 0 0 1-2.265-2.262zm81.608-2.759a1.13 1.13 0 0 1 1.13-1.123 1.131 1.131 0 0 1 1.135 1.123 1.133 1.133 0 0 1-1.135 1.133 1.132 1.132 0 0 1-1.13-1.137zm-148.092 0a1.074 1.074 0 0 1 1.074-1.069 1.071 1.071 0 0 1 1.075 1.069 1.077 1.077 0 0 1-1.075 1.079 1.08 1.08 0 0 1-1.07-1.083zm-37.969.737a.114.114 0 0 1 .109-.116.111.111 0 0 1 .11.116.106.106 0 0 1-.11.11.108.108 0 0 1-.11-.114zm215.651-7.527a.112.112 0 0 1 .111-.116.11.11 0 0 1 .111.116.108.108 0 0 1-.111.109.11.11 0 0 1-.112-.113zm-53.247-3a1.132 1.132 0 0 1 1.136-1.129 1.131 1.131 0 0 1 1.13 1.129 1.133 1.133 0 0 1-1.13 1.135 1.134 1.134 0 0 1-1.137-1.14zm-100.78 0a1.076 1.076 0 0 1 1.074-1.074 1.074 1.074 0 0 1 1.074 1.074 1.071 1.071 0 0 1-1.074 1.074 1.073 1.073 0 0 1-1.075-1.079zm-40.4-3.789a.111.111 0 0 1 .116-.109.11.11 0 0 1 .11.109.113.113 0 0 1-.11.116.114.114 0 0 1-.115-.121zm116.285-2.186a1.131 1.131 0 0 1 1.133-1.129 1.132 1.132 0 0 1 1.13 1.129 1.132 1.132 0 0 1-1.13 1.134 1.131 1.131 0 0 1-1.132-1.139zm-51.044 0a1.128 1.128 0 0 1 1.129-1.134 1.129 1.129 0 0 1 1.129 1.134 1.126 1.126 0 0 1-1.129 1.124 1.126 1.126 0 0 1-1.129-1.124zm25.517-2.01a1.134 1.134 0 0 1 1.136-1.133 1.128 1.128 0 0 1 1.13 1.133 1.126 1.126 0 0 1-1.13 1.129 1.132 1.132 0 0 1-1.136-1.129zm81.488-1.816a.113.113 0 0 1 .115-.116.112.112 0 0 1 .111.116.11.11 0 0 1-.111.109.111.111 0 0 1-.112-.11zm-149.228-5.21a.108.108 0 0 1 .114-.111.107.107 0 0 1 .111.111.11.11 0 0 1-.111.109.111.111 0 0 1-.113-.109zm125.483-4.378a.113.113 0 0 1 .116-.115.111.111 0 0 1 .11.115.11.11 0 0 1-.11.11.112.112 0 0 1-.115-.11zm-101.127-3.53a.112.112 0 0 1 .111-.116.113.113 0 0 1 .114.116.111.111 0 0 1-.114.109.11.11 0 0 1-.11-.109zm76.281-2.666a.112.112 0 0 1 .116-.11.111.111 0 0 1 .11.11.11.11 0 0 1-.11.11.112.112 0 0 1-.116-.109zm-51.059-1.784a.111.111 0 0 1 .109-.11.112.112 0 0 1 .117.11.113.113 0 0 1-.117.116.112.112 0 0 1-.108-.116zm25.589-.893a.116.116 0 0 1 .114-.115.115.115 0 0 1 .112.115.116.116 0 0 1-.112.116.117.117 0 0 1-.113-.115z" transform="translate(-6349.521 2543.834)"/>
</svg>
