<svg xmlns="http://www.w3.org/2000/svg" width="25.455" height="28" viewBox="0 0 25.455 28">
    <defs>
        <style>
            .cls-1{fill:#fd7831}
        </style>
    </defs>
    <g id="User" transform="translate(-6 -5)">
        <path id="Path_2047" d="M17.364 17.727A6.364 6.364 0 1 0 11 11.364a6.364 6.364 0 0 0 6.364 6.364zm0-10.182a3.818 3.818 0 1 1-3.818 3.818 3.818 3.818 0 0 1 3.818-3.818z" class="cls-1" transform="translate(1.364)"/>
        <path id="Path_2048" d="M21.273 16h-5.091A10.194 10.194 0 0 0 6 26.182v2.545A1.273 1.273 0 0 0 7.273 30h22.909a1.273 1.273 0 0 0 1.273-1.273v-2.545A10.194 10.194 0 0 0 21.273 16zm-2.19 2.545l2.007 6.02-2.362 2.362-2.362-2.362 2.007-6.02zM8.545 26.182a7.64 7.64 0 0 1 7.135-7.611l-1.98 5.935a1.273 1.273 0 0 0 .308 1.3l1.646 1.646H8.545zm20.364 1.273H21.8l1.646-1.646a1.273 1.273 0 0 0 .308-1.3l-1.978-5.935a7.64 7.64 0 0 1 7.135 7.611z" class="cls-1" transform="translate(0 3)"/>
    </g>
</svg>
